<svg width="80" height="80" viewBox="0 0 80 80" fill="none" xmlns="http://www.w3.org/2000/svg">
<path d="M3.08522 24.5137C2.46612 25.9932 1.93095 27.5147 1.50073 29.0467L50.9448 78.4908C52.4768 78.0606 53.9879 77.5255 55.4779 76.9064L3.08522 24.5137Z" fill="#1A5CBC"/>
<path d="M6.48409 18.1106C5.65512 19.3698 4.92059 20.671 4.24902 21.9931L57.9954 75.7394C59.3175 75.0678 60.6187 74.3333 61.8779 73.5044L6.48409 18.1106Z" fill="#1A5CBC"/>
<path d="M10.7983 12.6433C9.80143 13.7136 8.86752 14.8154 7.99658 15.9592L64.0304 71.993C65.1742 71.1326 66.2865 70.1987 67.3463 69.1913L10.7983 12.6433Z" fill="#1A5CBC"/>
<path d="M77.8807 27.0703C75.9709 21.4564 72.7809 16.1679 68.3003 11.6977C63.8197 7.21713 58.5416 4.0272 52.9277 2.11743L77.8807 27.0703Z" fill="#1A5CBC"/>
<path d="M32.0988 79.2339C34.3653 79.6851 36.6738 79.937 38.9823 79.9999L0 41.0176C0.0629594 43.3261 0.304315 45.6241 0.766017 47.9011L32.0988 79.2339Z" fill="#1A5CBC"/>
<path d="M0.787506 32.0039C0.420243 33.7878 0.1894 35.5926 0.0739746 37.4079L42.5925 79.9265C44.4078 79.811 46.2127 79.5697 47.9965 79.2129L0.787506 32.0039Z" fill="#1A5CBC"/>
<path d="M21.9938 4.24976C20.6717 4.92132 19.3705 5.65584 18.1113 6.4848L73.5156 61.8891C74.3445 60.6299 75.0791 59.3287 75.7506 58.0066L21.9938 4.24976Z" fill="#1A5CBC"/>
<path d="M47.8906 0.766001C45.6241 0.314792 43.3156 0.0629594 41.0071 0L79.9894 38.9823C79.9264 36.6738 79.6851 34.3758 79.2234 32.0988L47.8906 0.766001Z" fill="#1A5CBC"/>
<path d="M2.10864 52.9172C4.01841 58.5311 7.20836 63.8197 11.689 68.2898C16.1696 72.7704 21.4477 75.9604 27.0615 77.8701L2.10864 52.9172Z" fill="#1A5CBC"/>
<path d="M29.045 1.50073C27.513 1.93095 26.002 2.46612 24.512 3.08522L76.9046 55.4779C77.5237 53.9984 78.0589 52.4768 78.4891 50.9448L29.045 1.50073Z" fill="#1A5CBC"/>
<path d="M37.3982 0.0749512C35.5828 0.190377 33.778 0.431729 31.9941 0.788499L79.2032 47.9975C79.5704 46.2137 79.8013 44.4088 79.9167 42.5935L37.3982 0.0749512Z" fill="#1A5CBC"/>
<path d="M15.9599 8.00635C14.8161 8.86679 13.7039 9.80069 12.644 10.808L69.2026 67.3665C70.1994 66.2962 71.1333 65.1944 72.0042 64.0507L15.9599 8.00635Z" fill="#1A5CBC"/>
</svg>
