<svg width="14" height="13" viewBox="0 0 14 13" fill="none" xmlns="http://www.w3.org/2000/svg">
<path d="M12.0767 5.49359L7.73561 5.49244L7.73443 1.15136C7.73429 0.605064 7.28542 0.156199 6.73913 0.156052C6.19284 0.155904 5.74423 0.604512 5.74438 1.1508L5.74555 5.49188L1.40447 5.49071C0.858179 5.49056 0.409571 5.93917 0.409719 6.48546C0.409866 7.03175 0.858731 7.48062 1.40502 7.48077L5.74607 7.48197L5.74726 11.823C5.74741 12.3693 6.19627 12.8182 6.74256 12.8183C7.28886 12.8185 7.73746 12.3698 7.73732 11.8236L7.73616 7.48249L12.0772 7.48365C12.6235 7.4838 13.0721 7.03519 13.072 6.4889C13.0767 5.93773 12.6327 5.49374 12.0767 5.49359Z" fill="#889EFA"/>
</svg>
