<svg width="9" height="9" viewBox="0 0 9 9" fill="none" xmlns="http://www.w3.org/2000/svg">
<path d="M7.59891 4.11815L4.86741 4.11742L4.86668 1.38592C4.86658 1.04218 4.58415 0.759745 4.24041 0.759652C3.89667 0.759559 3.6144 1.04183 3.61449 1.38557L3.61523 4.11708L0.883724 4.11634C0.539985 4.11624 0.257711 4.39852 0.257804 4.74226C0.257897 5.086 0.540333 5.36843 0.884072 5.36852L3.61556 5.36928L3.6163 8.10076C3.6164 8.4445 3.89883 8.72693 4.24257 8.72702C4.58631 8.72712 4.86858 8.44484 4.86849 8.1011L4.86776 5.36961L7.59926 5.37034C7.94299 5.37043 8.22527 5.08816 8.22518 4.74442C8.22815 4.39761 7.94879 4.11825 7.59891 4.11815Z" fill="#889EFA"/>
</svg>
