<svg width="6" height="6" viewBox="0 0 6 6" fill="none" xmlns="http://www.w3.org/2000/svg">
<path d="M5.06594 2.82616L3.24494 2.82568L3.24445 1.00468C3.24439 0.775516 3.0561 0.587226 2.82694 0.587164C2.59778 0.587102 2.4096 0.775285 2.40966 1.00444L2.41015 2.82545L0.589149 2.82495C0.35999 2.82489 0.171807 3.01307 0.171869 3.24223C0.171931 3.47139 0.360222 3.65968 0.589381 3.65975L2.41037 3.66025L2.41087 5.48123C2.41093 5.71039 2.59922 5.89868 2.82838 5.89875C3.05754 5.89881 3.24572 5.71062 3.24566 5.48147L3.24517 3.66047L5.06617 3.66095C5.29533 3.66102 5.48351 3.47283 5.48345 3.24368C5.48543 3.01247 5.29919 2.82623 5.06594 2.82616Z" fill="#889EFA"/>
</svg>
