<svg width="64" height="64" viewBox="0 0 64 64" fill="none" xmlns="http://www.w3.org/2000/svg">
<path d="M24.749 18.4992C24.1523 18.4992 23.58 18.7362 23.1581 19.1581C22.7362 19.58 22.4992 20.1523 22.4992 20.749V23.7487C22.499 24.1467 22.6043 24.5376 22.8045 24.8816C23.0047 25.2255 23.2926 25.5102 23.6387 25.7066C23.9848 25.903 24.3769 26.0041 24.7748 25.9995C25.1727 25.9949 25.5624 25.8849 25.9039 25.6806C25.2269 27.1558 24.2981 28.5019 23.1591 29.6583C22.9381 29.8642 22.7608 30.1126 22.6378 30.3886C22.5148 30.6646 22.4487 30.9625 22.4434 31.2646C22.4381 31.5667 22.4936 31.8667 22.6068 32.1469C22.7199 32.427 22.8884 32.6815 23.102 32.8951C23.3156 33.1088 23.5701 33.2772 23.8503 33.3903C24.1304 33.5035 24.4305 33.5591 24.7325 33.5537C25.0346 33.5484 25.3325 33.4823 25.6085 33.3593C25.8845 33.2363 26.1329 33.0591 26.3389 32.838C27.6347 31.5481 31.4984 27.2015 31.4984 20.749C31.4984 20.1523 31.2614 19.58 30.8395 19.1581C30.4176 18.7362 29.8453 18.4992 29.2486 18.4992H24.749ZM36.748 18.4992C36.1513 18.4992 35.5791 18.7362 35.1572 19.1581C34.7352 19.58 34.4982 20.1523 34.4982 20.749V23.7487C34.498 24.1467 34.6034 24.5376 34.8036 24.8816C35.0038 25.2255 35.2916 25.5102 35.6377 25.7066C35.9839 25.903 36.3759 26.0041 36.7738 25.9995C37.1718 25.9949 37.5614 25.8849 37.9029 25.6806C37.226 27.1558 36.2972 28.5019 35.1581 29.6583C34.9371 29.8642 34.7598 30.1126 34.6368 30.3886C34.5139 30.6646 34.4478 30.9625 34.4424 31.2646C34.4371 31.5667 34.4927 31.8667 34.6058 32.1469C34.719 32.427 34.8874 32.6815 35.101 32.8951C35.3147 33.1088 35.5692 33.2772 35.8493 33.3903C36.1294 33.5035 36.4295 33.5591 36.7316 33.5537C37.0337 33.5484 37.3316 33.4823 37.6076 33.3593C37.8835 33.2363 38.1319 33.0591 38.3379 32.838C39.6338 31.5451 43.4975 27.2015 43.4975 20.749C43.4975 20.1523 43.2604 19.58 42.8385 19.1581C42.4166 18.7362 41.8443 18.4992 41.2477 18.4992H36.748ZM12 14.7495C12 12.9594 12.7111 11.2426 13.9769 9.97687C15.2426 8.7111 16.9594 8 18.7495 8H45.7473C47.5374 8 49.2541 8.7111 50.5199 9.97687C51.7857 11.2426 52.4968 12.9594 52.4968 14.7495V37.2477C52.4968 39.0377 51.7857 40.7545 50.5199 42.0202C49.2541 43.286 47.5374 43.9971 45.7473 43.9971H39.9218L34.2402 54.7963C34.0495 55.1594 33.7631 55.4635 33.412 55.6757C33.061 55.8879 32.6586 56 32.2484 56C31.8382 56 31.4358 55.8879 31.0847 55.6757C30.7336 55.4635 30.4473 55.1594 30.2565 54.7963L24.575 43.9971H18.7495C16.9594 43.9971 15.2426 43.286 13.9769 42.0202C12.7111 40.7545 12 39.0377 12 37.2477V14.7495ZM18.7495 12.4996C18.1528 12.4996 17.5805 12.7367 17.1586 13.1586C16.7367 13.5805 16.4996 14.1528 16.4996 14.7495V37.2477C16.4996 38.4896 17.5076 39.4975 18.7495 39.4975H25.9339C26.3432 39.4977 26.7447 39.6095 27.0951 39.8209C27.4456 40.0324 27.7317 40.3354 27.9227 40.6974L32.2484 48.9167L36.571 40.6974C36.7623 40.3349 37.0489 40.0316 37.3999 39.8201C37.7509 39.6087 38.1531 39.4971 38.5629 39.4975H45.7473C46.344 39.4975 46.9162 39.2604 47.3382 38.8385C47.7601 38.4166 47.9971 37.8443 47.9971 37.2477V14.7495C47.9971 14.1528 47.7601 13.5805 47.3382 13.1586C46.9162 12.7367 46.344 12.4996 45.7473 12.4996H18.7495Z" fill="#0E489D"/>
</svg>
