<svg width="87" height="20" viewBox="0 0 87 20" fill="none" xmlns="http://www.w3.org/2000/svg">
<g clip-path="url(#clip0_445_1795)">
<path d="M42.9646 12.3451C42.9646 10.0442 44.823 8.18584 47.1239 8.18584C49.4248 8.18584 51.2832 10.0442 51.2832 12.3451C51.2832 14.646 49.4248 16.5044 47.1239 16.5044C44.823 16.5044 42.9646 14.6903 42.9646 12.3451ZM59.9557 12.3451C59.9557 10.0442 61.8142 8.18584 64.115 8.18584C66.4159 8.18584 68.2743 10.0442 68.2743 12.3451C68.2743 14.646 66.4159 16.5044 64.115 16.5044C61.8142 16.5487 59.9557 14.6903 59.9557 12.3451ZM20.531 12.3451C20.531 10.0442 22.3894 8.18584 24.6903 8.18584C26.9911 8.18584 28.8496 10.0442 28.8496 12.3451C28.8496 14.646 26.9911 16.5044 24.6903 16.5044C22.3894 16.5487 20.531 14.6903 20.531 12.3451ZM3.53982 12.3451C3.53982 10.0442 5.39823 8.18584 7.69911 8.18584C10 8.18584 11.8584 10.0442 11.8584 12.3451C11.8584 14.646 10 16.5044 7.69911 16.5044C5.39823 16.5487 3.53982 14.6903 3.53982 12.3451ZM37.9204 4.95575H34.292V19.5575H37.9204V4.95575ZM11.8584 19.6018H15.4867V5H11.8584V6.19469C10.6195 5.35398 9.15929 4.86726 7.52212 4.86726C3.36283 4.82301 0 8.18584 0 12.3451C0 16.5487 3.36283 19.9115 7.56637 19.9115C9.15929 19.9115 10.6637 19.4248 11.9027 18.5841V19.6018H11.8584ZM68.2743 19.6018H71.9027V5H68.2743V6.19469C67.0354 5.35398 65.5752 4.86726 63.938 4.86726C59.7788 4.86726 56.3717 8.23009 56.3717 12.4336C56.3717 16.6372 59.7345 20 63.938 20C65.531 20 67.0354 19.5133 68.2743 18.6726V19.6018ZM73.2301 14.8673C73.3628 17.8319 75.8407 19.9115 80.0885 19.9115C83.5398 19.9115 86.3717 18.4071 86.3717 15.1327C86.3717 12.8319 85.0885 11.5044 82.1239 10.9292L79.823 10.4867C78.3186 10.2212 77.3009 9.9115 77.3009 9.02655C77.3009 8.0531 78.3186 7.61062 79.5575 7.61062C81.3717 7.61062 82.1239 8.53982 82.1681 9.60177H85.8407C85.6195 6.72566 83.3628 4.82301 79.646 4.82301C75.8407 4.82301 73.5841 6.90265 73.5841 9.64602C73.5841 12.9646 76.2832 13.4956 78.5841 13.9381L80.4867 14.292C81.8584 14.5575 82.4779 14.9558 82.4779 15.7522C82.4779 16.4602 81.7699 17.1681 80.177 17.1681C77.7876 17.1681 77.0354 15.9292 76.9911 14.8673H73.2301ZM28.8496 0V6.15044C27.6106 5.30973 26.1504 4.82301 24.5133 4.82301C20.354 4.82301 16.9469 8.18584 16.9469 12.3894C16.9911 16.5487 20.354 19.9115 24.5575 19.9115C26.1504 19.9115 27.6549 19.4248 28.8938 18.5841V19.6018H32.5221V0H28.8496ZM51.2832 0V6.15044C50.0442 5.30973 48.5841 4.82301 46.9469 4.82301C42.7876 4.82301 39.3805 8.18584 39.3805 12.3894C39.3805 16.5929 42.7434 19.9558 46.9469 19.9558C48.5398 19.9558 50.0442 19.469 51.2832 18.6283V19.646H54.9115V0H51.2832ZM34.292 0V3.62832H37.9204V0" fill="#7BA0D5"/>
</g>
<defs>
<clipPath id="clip0_445_1795">
<rect width="86.7111" height="20" fill="white"/>
</clipPath>
</defs>
</svg>
