<svg width="68" height="20" viewBox="0 0 68 20" fill="none" xmlns="http://www.w3.org/2000/svg">
<g clip-path="url(#clip0_445_1797)">
<path fill-rule="evenodd" clip-rule="evenodd" d="M41.9321 15.6407C38.0708 18.4833 32.4742 20 27.6556 20C20.8992 20 14.8166 17.504 10.2149 13.3526C9.8534 13.0262 10.1773 12.5813 10.6112 12.8355C15.5773 15.7215 21.7177 17.4578 28.0605 17.4578C32.3383 17.4578 37.0441 16.5738 41.371 14.7393C42.0246 14.462 42.5713 15.1669 41.9321 15.6407Z" fill="#7BA0D5"/>
<path fill-rule="evenodd" clip-rule="evenodd" d="M43.5375 13.8061C43.0458 13.1764 40.275 13.5086 39.0313 13.6559C38.6524 13.7021 38.5946 13.3728 38.9358 13.1359C41.1427 11.5846 44.7639 12.0323 45.1861 12.5523C45.6084 13.0752 45.0762 16.7008 43.0024 18.4313C42.6843 18.6971 42.3806 18.5555 42.5223 18.2031C42.988 17.0417 44.0321 14.4388 43.5375 13.8061Z" fill="#7BA0D5"/>
<path fill-rule="evenodd" clip-rule="evenodd" d="M39.1181 2.18403V0.676015C39.1181 0.44779 39.2916 0.294678 39.4999 0.294678H46.2592C46.4761 0.294678 46.6497 0.45068 46.6497 0.676015V1.96736C46.6468 2.18403 46.4646 2.46714 46.1406 2.91493L42.638 7.90987C43.9396 7.87809 45.3134 8.07165 46.4935 8.7361C46.7596 8.88632 46.8319 9.10588 46.8521 9.32255V10.9317C46.8521 11.1512 46.6092 11.4083 46.3547 11.2755C44.2751 10.1863 41.5129 10.0679 39.2135 11.287C38.9792 11.4141 38.7334 11.1599 38.7334 10.9403V9.41211C38.7334 9.16655 38.7363 8.74765 38.9821 8.37498L43.0401 2.56248H39.5085C39.2916 2.56248 39.1181 2.40937 39.1181 2.18403Z" fill="#7BA0D5"/>
<path fill-rule="evenodd" clip-rule="evenodd" d="M14.4609 11.5932H12.4044C12.2078 11.5787 12.0516 11.4314 12.0371 11.2436V0.701971C12.0371 0.49108 12.2135 0.323522 12.4334 0.323522H14.351C14.5505 0.332182 14.7096 0.4853 14.7241 0.675969V2.05398H14.7617C15.262 0.722192 16.202 0.101074 17.4689 0.101074C18.756 0.101074 19.56 0.722192 20.1385 2.05398C20.636 0.722192 21.7669 0.101074 22.9787 0.101074C23.8407 0.101074 24.7835 0.456411 25.3591 1.25375C26.0099 2.14065 25.8768 3.42911 25.8768 4.55868L25.874 11.2119C25.874 11.4227 25.6975 11.5932 25.4777 11.5932H23.4242C23.2188 11.5787 23.0539 11.4141 23.0539 11.2119V5.62469C23.0539 5.17979 23.0944 4.07045 22.9961 3.64867C22.8428 2.94088 22.3829 2.74155 21.7871 2.74155C21.2896 2.74155 20.769 3.07377 20.5579 3.60533C20.3467 4.13689 20.367 5.02668 20.367 5.62469V11.2119C20.367 11.4227 20.1905 11.5932 19.9707 11.5932H17.9172C17.7089 11.5787 17.547 11.4141 17.547 11.2119L17.5441 5.62469C17.5441 4.4489 17.7379 2.71843 16.2772 2.71843C14.7993 2.71843 14.8571 4.40556 14.8571 5.62469V11.2119C14.8571 11.4227 14.6807 11.5932 14.4609 11.5932Z" fill="#7BA0D5"/>
<path fill-rule="evenodd" clip-rule="evenodd" d="M52.469 0.101074C55.5204 0.101074 57.1719 2.71843 57.1719 6.04647C57.1719 9.26184 55.3469 11.8128 52.469 11.8128C49.4726 11.8128 47.8413 9.19539 47.8413 5.9338C47.8413 2.65199 49.4928 0.101074 52.469 0.101074ZM52.4864 2.25332C50.9708 2.25332 50.8753 4.31601 50.8753 5.60158C50.8753 6.89003 50.8551 9.64028 52.469 9.64028C54.0627 9.64028 54.1379 7.4216 54.1379 6.06958C54.1379 5.17979 54.1003 4.11667 53.8313 3.27311C53.5999 2.53932 53.14 2.25332 52.4864 2.25332Z" fill="#7BA0D5"/>
<path fill-rule="evenodd" clip-rule="evenodd" d="M61.1284 11.5932H59.0806C58.8753 11.5787 58.7104 11.4141 58.7104 11.2119L58.7075 0.667302C58.7249 0.473745 58.8955 0.323522 59.1038 0.323522H61.0098C61.1891 0.332182 61.3366 0.453523 61.3771 0.618191V2.23021H61.4147C61.9903 0.788637 62.7973 0.101074 64.2174 0.101074C65.14 0.101074 66.0395 0.4333 66.618 1.34331C67.156 2.18687 67.156 3.60533 67.156 4.62512V11.261C67.1328 11.4459 66.9622 11.5932 66.7597 11.5932H64.6975C64.5095 11.5787 64.3533 11.4401 64.3331 11.261V5.53513C64.3331 4.38245 64.4661 2.69532 63.046 2.69532C62.5456 2.69532 62.0857 3.03044 61.8572 3.53889C61.568 4.18312 61.5304 4.82446 61.5304 5.53513V11.2119C61.5275 11.4227 61.3482 11.5932 61.1284 11.5932Z" fill="#7BA0D5"/>
<path fill-rule="evenodd" clip-rule="evenodd" d="M33.7298 6.55785C33.7298 7.35808 33.7501 8.02542 33.3451 8.73609C33.0183 9.31388 32.4977 9.66921 31.9221 9.66921C31.1325 9.66921 30.6697 9.06832 30.6697 8.18142C30.6697 6.43073 32.2403 6.11295 33.7298 6.11295V6.55785ZM35.8036 11.5643C35.6677 11.6857 35.471 11.6943 35.3177 11.6135C34.6351 11.0472 34.5107 10.7843 34.1376 10.2441C33.0096 11.3939 32.2085 11.7377 30.7478 11.7377C29.0153 11.7377 27.6704 10.6717 27.6704 8.53676C27.6704 6.86985 28.5728 5.7345 29.8628 5.17983C30.9792 4.68871 32.5382 4.60205 33.7298 4.46627V4.20049C33.7298 3.71226 33.7674 3.13448 33.4782 2.7127C33.2294 2.33425 32.7493 2.17824 32.3241 2.17824C31.5403 2.17824 30.8433 2.5798 30.6726 3.41181C30.6379 3.59671 30.502 3.77871 30.314 3.78737L28.3212 3.57359C28.1534 3.53604 27.9654 3.40026 28.0146 3.14315C28.4716 0.728009 30.6582 0 32.6134 0C33.6141 0 34.9214 0.265781 35.7111 1.02268C36.7118 1.9558 36.6163 3.20092 36.6163 4.55583V7.75675C36.6163 8.71876 37.0155 9.14054 37.3915 9.66055C37.5216 9.84543 37.5506 10.0679 37.3828 10.2065C36.9634 10.5561 36.2172 11.2061 35.8065 11.5701L35.8036 11.5643Z" fill="#7BA0D5"/>
<path fill-rule="evenodd" clip-rule="evenodd" d="M6.77034 6.55785C6.77034 7.35808 6.79058 8.02542 6.38566 8.73609C6.05883 9.31388 5.5411 9.66921 4.96264 9.66921C4.17304 9.66921 3.71316 9.06832 3.71316 8.18142C3.71316 6.43073 5.28369 6.11295 6.77034 6.11295V6.55785ZM8.84413 11.5643C8.70819 11.6857 8.51151 11.6943 8.35822 11.6135C7.67563 11.0472 7.55416 10.7843 7.17815 10.2441C6.05015 11.3939 5.25187 11.7377 3.78836 11.7377C2.05875 11.7377 0.710938 10.6717 0.710938 8.53676C0.710938 6.86985 1.61623 5.7345 2.90331 5.17983C4.01975 4.68871 5.5787 4.60205 6.77034 4.46627V4.20049C6.77034 3.71226 6.80794 3.13448 6.5216 2.7127C6.26997 2.33425 5.78984 2.17824 5.36757 2.17824C4.58375 2.17824 3.88381 2.5798 3.71316 3.41181C3.67845 3.59671 3.54251 3.77871 3.35741 3.78737L1.36171 3.57359C1.19395 3.53604 1.00885 3.40026 1.05512 3.14315C1.515 0.728009 3.6987 0 5.65391 0C6.65465 0 7.96197 0.265781 8.75157 1.02268C9.75232 1.9558 9.65687 3.20092 9.65687 4.55583V7.75675C9.65687 8.71876 10.056 9.14054 10.432 9.66055C10.5651 9.84543 10.594 10.0679 10.4262 10.2065C10.0068 10.5561 9.26062 11.2061 8.84991 11.5701L8.84413 11.5643Z" fill="#7BA0D5"/>
</g>
<defs>
<clipPath id="clip0_445_1797">
<rect width="66.4452" height="20" fill="white" transform="translate(0.710938)"/>
</clipPath>
</defs>
</svg>
