<svg width="50" height="20" viewBox="0 0 50 20" fill="none" xmlns="http://www.w3.org/2000/svg">
<path d="M34.0919 3.31332C33.4133 3.6726 32.7745 4.15164 32.2955 4.71053C31.2975 5.78837 30.7386 6.98598 31.1777 7.30534C31.3374 7.4251 31.6967 7.46502 32.3753 6.8263C33.0141 6.26741 33.4931 5.58877 33.8125 4.83029C34.2516 3.79236 34.0919 3.31332 34.0919 3.31332ZM39.4412 5.22949C38.3634 4.67061 37.565 3.99196 36.7266 3.55284C35.8883 3.11372 35.4492 2.99396 34.8105 3.0738C34.7306 3.0738 34.6508 3.11372 34.531 3.15364C34.531 3.15364 34.8504 4.27141 33.5729 6.14765C32.2556 8.0239 31.058 8.06382 30.7386 7.54486C30.4192 7.0259 30.8584 5.86821 31.6169 4.87021C32.2556 4.11172 33.0141 3.473 33.8524 2.95404C33.8524 2.95404 33.4133 2.6746 32.2955 3.31332C30.4192 4.47101 28.8224 6.02789 27.6248 7.8243C25.9083 10.2993 25.549 11.6566 25.3095 12.6946C25.0699 13.7724 25.2695 14.8902 26.4672 14.8902C27.6648 14.8902 29.022 13.0938 29.4212 12.455C30.1398 11.2974 30.6188 9.50095 29.6208 9.74047C29.1418 9.86023 28.7426 10.3792 28.5031 10.8982C28.3434 11.2175 28.2236 11.5768 28.1438 11.9361C27.7845 12.0958 27.4652 12.2554 27.1857 12.495C26.8664 12.7345 26.547 13.0139 26.2676 13.2934C26.3474 12.495 26.5869 11.7365 26.9462 11.0578C27.4252 9.97999 28.4232 9.22151 29.5809 8.98198C30.2196 8.94206 31.058 9.46103 30.3394 11.457C29.6208 13.453 27.5849 15.8882 25.3893 15.8882C23.3933 15.9281 22.0759 13.3732 24.8703 8.90214C27.9442 3.99196 31.537 2.475 32.7346 2.31532C33.9322 2.15564 34.2915 2.6746 34.2915 2.6746C35.0101 2.39516 35.7686 2.2754 36.527 2.31532C37.9642 2.39516 39.0819 3.43308 40.559 4.15164C40.1598 4.47101 39.8005 4.87021 39.4412 5.22949ZM45.9083 3.55284C44.9103 4.19156 43.553 4.79037 42.2356 4.63069C41.9163 4.98997 41.557 5.38917 41.1977 5.82829C43.5131 6.26741 45.5091 4.87021 46.5869 3.63268C46.9861 3.19356 47.3055 2.71452 47.5849 2.19556C47.026 2.75444 46.5071 3.19356 45.9083 3.55284ZM42.8743 10.0199C42.8743 9.97999 42.9143 9.94007 42.9143 9.94007C42.9143 9.82031 42.8344 9.74047 42.7147 9.74047C42.4751 9.74047 42.1957 9.78039 41.4372 10.6187C40.7985 11.3373 40.2396 12.1357 39.7606 12.974C39.3214 13.7724 39.1218 14.4111 39.4013 14.5708C39.4811 14.6107 39.6009 14.6107 39.6807 14.6107C39.8404 14.5708 40.04 14.4111 40.3594 14.0518C40.4791 13.8922 40.6787 13.6526 40.8384 13.4131C41.3175 12.7345 42.5949 10.499 42.8743 10.0199ZM34.7306 10.978C34.8504 10.6187 35.0101 9.97999 34.6907 9.70055C34.3314 9.42111 33.3733 10.0598 33.3733 10.7385C33.4133 11.2175 33.7326 11.6566 34.2117 11.7764C34.2915 11.8163 34.3314 11.8163 34.3713 11.7365C34.4911 11.497 34.6109 11.2574 34.7306 10.978ZM34.0121 12.2554C33.7725 12.1357 33.5729 12.0159 33.3733 11.8562C33.1737 11.6966 33.0141 11.497 32.8943 11.2574C32.8943 11.2175 32.8544 11.2574 32.8544 11.2574C32.6548 11.497 32.4552 11.7764 32.2955 12.0558C31.7765 12.8143 31.0181 14.3313 31.7366 14.5708C32.1757 14.7305 32.9342 13.972 33.3334 13.4131C33.6129 13.0538 33.8524 12.6546 34.0919 12.2554C34.052 12.2554 34.052 12.2554 34.0121 12.2554ZM41.9562 14.0119C41.7566 14.3313 41.557 14.8902 42.1957 14.5309C42.9542 14.0918 44.0719 12.4151 44.0719 12.4151H44.551C44.1119 13.0938 43.5929 13.7724 43.0739 14.3712C42.3155 15.2095 41.3574 16.0079 40.6787 15.9281C39.8803 15.8483 40.1598 14.8103 40.1598 14.8103C40.1598 14.8103 39.042 16.0079 38.2835 15.9281C37.2456 15.8083 37.565 14.5309 37.565 14.5309C37.565 14.5309 36.3674 15.968 35.5689 15.9281C34.2915 15.8483 34.6109 14.3313 34.9701 13.2534C35.1697 12.6546 35.3294 12.2155 35.3294 12.2155C35.3294 12.2155 35.2097 12.2554 34.9302 12.2954C34.8105 12.2954 34.531 12.3353 34.531 12.3353C34.531 12.3353 34.0121 13.2534 33.5729 13.8123C33.1338 14.3712 31.3773 16.2874 30.3394 15.8882C29.3813 15.5289 29.7007 14.0518 30.2596 12.8542C31.0979 11.1377 33.3733 8.66262 34.7306 8.98198C36.048 9.30135 34.7705 11.8562 34.7705 11.8562C34.8504 11.8562 34.9302 11.8562 35.05 11.8562C35.2097 11.8163 35.4093 11.7764 35.5689 11.6966C36.4073 9.97999 37.3654 8.38318 38.4831 6.86622C40.0001 4.95005 43.0739 1.67659 44.2715 2.475C44.551 2.6746 44.4312 3.35324 44.032 4.15164C43.8723 4.19156 43.6727 4.27141 43.4731 4.31133C43.6727 3.95204 43.8723 3.55284 43.9522 3.15364C44.1119 2.15564 41.8364 4.23149 40.1997 6.46701C39.2017 7.8243 38.3234 9.22151 37.565 10.7385C37.8444 10.5788 38.1638 10.3393 38.4033 10.1397C39.1218 9.54087 39.8404 8.86222 40.4791 8.18358C41.1179 7.54486 41.7167 6.86622 42.2755 6.14765C42.4352 6.14765 42.6348 6.10773 42.7945 6.10773C42.1957 6.90614 41.557 7.70454 40.8384 8.4231C40.1997 9.10175 39.4811 9.78039 38.8424 10.3393C38.2835 10.8183 37.7246 11.2574 37.1258 11.6167C37.1258 11.6167 35.6887 14.491 36.4472 14.6906C36.9262 14.8103 37.8045 13.4131 37.8045 13.4131C37.8045 13.4131 39.0021 11.6167 39.7206 10.7784C40.6787 9.66063 41.5171 9.0219 42.3554 9.0219C42.6747 9.06182 42.9542 9.26143 43.1139 9.54087L43.3534 9.18159H44.7905C44.8304 9.18159 42.1957 13.6526 41.9562 14.0119ZM45.9083 3.55284C44.9103 4.19156 43.553 4.79037 42.2356 4.63069C41.9163 4.98997 41.557 5.38917 41.1977 5.82829C43.5131 6.26741 45.5091 4.87021 46.5869 3.63268C46.9861 3.19356 47.3055 2.71452 47.5849 2.19556C47.026 2.75444 46.5071 3.19356 45.9083 3.55284ZM43.4731 15.1297H43.6727C43.7127 15.1297 43.7925 15.1297 43.8324 15.1297C43.9123 15.1696 43.9522 15.2095 43.9123 15.2894C43.9123 15.3293 43.8723 15.3692 43.8324 15.4091C43.7925 15.4091 43.7925 15.4491 43.7526 15.4491C43.7925 15.4491 43.8324 15.489 43.8723 15.5289C43.9123 15.5688 43.9123 15.6087 43.9123 15.6087V15.6886V15.7285H43.8324V15.6487C43.8324 15.5688 43.8324 15.5289 43.7925 15.489C43.7526 15.489 43.7127 15.4491 43.6727 15.4491H43.5929V15.6886H43.4731V15.1297ZM43.8324 15.2894C43.8324 15.2494 43.8324 15.2095 43.7925 15.2095C43.7526 15.2095 43.7127 15.1696 43.6727 15.1696H43.5929V15.4091H43.6727C43.7127 15.4091 43.7526 15.4091 43.7925 15.4091C43.8324 15.4091 43.8324 15.3692 43.8324 15.2894ZM44.2316 15.4491C44.2316 15.6886 44.0719 15.9281 43.8324 16.0079C43.5929 16.0878 43.3135 15.968 43.1937 15.7285C43.0739 15.489 43.1139 15.2095 43.2735 15.0498C43.5131 14.8502 43.8324 14.8502 44.0719 15.0498C44.1917 15.1297 44.2316 15.2894 44.2316 15.4491ZM43.6727 14.9301C43.553 14.9301 43.4332 14.97 43.3135 15.0898C43.2336 15.1696 43.1538 15.2894 43.1538 15.4491C43.1538 15.5688 43.1937 15.6886 43.3135 15.8083C43.3933 15.8882 43.5131 15.968 43.6727 15.9281C43.7925 15.9281 43.9522 15.8882 44.032 15.8083C44.1119 15.7285 44.1917 15.5688 44.1917 15.4491C44.1917 15.3293 44.1518 15.2095 44.032 15.0898C43.9522 15.0099 43.8324 14.97 43.6727 14.9301ZM26.068 5.78837H24.7107L23.9522 6.98598H25.3095L26.068 5.78837ZM19.6807 10.0199C20.2396 9.22151 21.8364 6.50693 21.8364 6.50693C21.8364 6.38717 21.7167 6.30733 21.6368 6.30733C21.4372 6.30733 21.038 6.38717 20.3194 7.26542C19.6807 8.0239 19.1218 8.78238 18.6428 9.66063C18.2037 10.459 18.0041 11.0578 18.2436 11.2175C18.3234 11.2574 18.4432 11.2574 18.523 11.2574C18.8025 11.1377 19.0819 10.9381 19.2416 10.6986C19.3614 10.499 19.521 10.2594 19.6807 10.0199ZM12.4552 6.30733C12.0959 6.02789 11.1378 6.66661 11.1378 7.34526C11.1378 8.0239 11.9761 8.26342 12.0959 8.26342C12.1358 8.26342 12.2157 8.26342 12.2157 8.2235C12.2556 8.18358 12.3354 7.94406 12.4951 7.6247C12.6548 7.26542 12.8145 6.58677 12.4552 6.30733ZM11.9362 8.70254C11.6568 8.6227 11.4173 8.50294 11.1777 8.38318C10.9781 8.2235 10.7785 8.0239 10.6588 7.8243C10.6588 7.78438 10.6188 7.8243 10.6188 7.8243C10.6188 7.8243 10.539 7.94406 10.02 8.70254C9.50108 9.42111 8.78252 10.978 9.46116 11.2175C9.90029 11.3772 10.6588 10.5788 11.058 10.0598C11.3773 9.66063 11.6568 9.22151 11.8963 8.78238C11.9362 8.70254 11.9362 8.70254 11.9362 8.70254ZM22.8743 9.14166H23.3534C23.3534 9.14166 20.8783 12.6946 19.4811 12.5349C18.7226 12.455 18.9222 11.497 18.9222 11.497C18.9222 11.497 17.8444 12.7744 16.8464 12.5349C15.9682 12.2954 16.567 10.7784 16.567 10.7784C16.4472 10.8183 14.4911 13.0538 13.0939 12.495C11.6967 11.9361 12.3753 10.0598 12.6947 9.50095C12.9342 9.0219 13.1737 8.58278 13.1737 8.58278C13.1737 8.58278 12.9342 8.66262 12.8145 8.66262L12.4552 8.74246C12.4552 8.74246 11.7765 9.86023 11.3374 10.4191C10.8983 10.978 9.1418 12.8942 8.10388 12.495C7.06595 12.0958 7.30548 10.6586 7.90428 9.50095C8.86236 7.58478 11.1378 5.26941 12.4951 5.62869C13.8524 5.98797 12.7346 8.2235 12.7346 8.2235C12.7346 8.2235 13.0141 8.26342 13.6528 7.8243C14.6109 7.18558 15.8484 5.42909 17.2057 5.62869C17.8444 5.70853 18.4432 6.38717 17.6049 7.6247C17.3254 8.0239 16.9262 8.38318 16.567 8.0239C16.3674 7.8243 16.527 7.4251 16.7666 7.14566C16.9262 6.90614 17.2057 6.78638 17.4851 6.8263C17.4851 6.8263 17.7246 6.30733 17.1258 6.30733C16.6468 6.30733 15.4891 7.38518 14.8504 8.46302C14.2516 9.46103 13.3334 11.1377 14.2516 11.5369C15.0899 11.8562 16.6867 9.97999 17.4452 8.98198C18.2037 7.98398 19.8803 5.70853 21.2775 5.62869C21.5969 5.62869 21.8763 5.78837 22.036 6.02789L22.1957 5.74845H23.6328C23.6328 5.74845 20.9582 10.2195 20.7586 10.5389C20.5989 10.8183 20.3594 11.4171 20.9981 11.0578C21.6368 10.6986 22.9143 9.14166 22.8743 9.14166ZM22.1558 16.2874C21.1179 15.5688 19.8404 15.2095 18.6029 15.2495C17.9242 15.2495 17.2456 15.6087 16.8464 16.2075C16.3274 15.2494 15.2496 14.6906 13.5729 14.6906C10.8983 14.7305 8.26356 15.968 6.14779 15.968C4.15178 15.968 2.67474 14.6906 2.71466 12.455C2.7945 8.50294 6.14779 4.95005 8.62284 3.35324C10.06 2.43508 11.2576 2.15564 12.0161 2.23548C12.3753 2.2754 12.6947 2.51492 12.8943 2.8742C13.054 3.19356 13.054 3.59276 12.8544 3.95204C12.2157 5.38917 11.3374 5.26941 11.3773 4.59077C11.4173 4.23148 11.6169 3.91212 11.8963 3.71252C12.056 3.63268 12.2157 3.59276 12.4153 3.59276C12.535 3.473 12.6548 2.71452 11.6169 2.95404C10.5789 3.19356 9.3414 4.23149 8.18372 5.50893C7.02603 6.78638 5.18971 9.26143 4.71067 11.8562C4.51106 13.0538 4.63083 15.2494 7.46516 15.2095C9.86037 15.2095 13.4133 13.6127 16.6867 13.6526C17.8045 13.6526 18.9222 13.9321 19.9202 14.5309C20.7586 14.97 21.5171 15.5688 22.1558 16.2874Z" fill="#7BA0D5"/>
</svg>
