<svg width="94" height="20" viewBox="0 0 94 20" fill="none" xmlns="http://www.w3.org/2000/svg">
<g clip-path="url(#clip0_445_1788)">
<path d="M33.4106 11.5194L32.8524 13.1008H32.8059C32.7129 12.7442 32.5424 12.2016 32.2633 11.5504L29.2711 4.03106H26.3408V16.0156H28.2788V8.62021C28.2788 8.15509 28.2788 7.62796 28.2633 6.9768C28.2478 6.65122 28.2168 6.40315 28.2013 6.21711H28.2478C28.3408 6.68222 28.4493 7.02331 28.5269 7.24036L32.1238 15.9846H33.4881L37.054 7.16284C37.1315 6.96129 37.209 6.55819 37.2866 6.21711H37.3331C37.2866 7.10083 37.2555 7.89153 37.24 8.37215V15.969H39.3021V4.00005H36.4804L33.4106 11.5194ZM41.2555 7.3799H43.271V15.969H41.2555V7.3799ZM42.2788 3.75199C41.9377 3.75199 41.6586 3.87602 41.4261 4.09308C41.1935 4.31013 41.0695 4.5892 41.0695 4.93029C41.0695 5.25587 41.1935 5.53494 41.4261 5.75199C41.6586 5.96905 41.9377 6.07757 42.2788 6.07757C42.6199 6.07757 42.9145 5.95354 43.1315 5.75199C43.3641 5.53494 43.4881 5.25587 43.4881 4.93029C43.4881 4.6047 43.3641 4.32564 43.1315 4.09308C42.93 3.87602 42.6354 3.75199 42.2788 3.75199ZM50.4183 7.30238C50.0462 7.22486 49.6586 7.17835 49.2866 7.17835C48.3718 7.17835 47.5346 7.3799 46.8369 7.783C46.1393 8.1861 45.5811 8.74424 45.2245 9.44191C44.8524 10.1551 44.6664 10.9768 44.6664 11.9225C44.6664 12.7442 44.8524 13.4729 45.209 14.1396C45.5656 14.7908 46.0617 15.3179 46.7284 15.6745C47.3641 16.0311 48.1083 16.2171 48.9455 16.2171C49.9067 16.2171 50.7284 16.0156 51.3796 15.6435L51.3951 15.628V13.7675L51.3176 13.8295C51.023 14.0466 50.6819 14.2326 50.3408 14.3411C49.9842 14.4652 49.6586 14.5272 49.3796 14.5272C48.5734 14.5272 47.9377 14.2946 47.4881 13.783C47.023 13.2869 46.7904 12.6047 46.7904 11.752C46.7904 10.8683 47.023 10.1706 47.5036 9.65897C47.9842 9.14734 48.6199 8.88377 49.3951 8.88377C50.0462 8.88377 50.7129 9.10083 51.3176 9.53494L51.3951 9.59695V7.62796L51.3796 7.61246C51.116 7.50393 50.8214 7.3799 50.4183 7.30238ZM57.0695 7.24036C56.5734 7.24036 56.1083 7.3954 55.7052 7.72098C55.3641 8.00005 55.1315 8.40315 54.93 8.88377H54.9145V7.3799H52.899V15.969H54.9145V11.5814C54.9145 10.8373 55.0695 10.2171 55.4106 9.7675C55.7517 9.30238 56.1858 9.06982 56.7129 9.06982C56.899 9.06982 57.085 9.11633 57.3176 9.14734C57.5346 9.20936 57.6897 9.27137 57.7982 9.34889L57.8757 9.41091V7.3954L57.8292 7.3799C57.6897 7.28688 57.4106 7.24036 57.0695 7.24036ZM62.5579 7.19385C61.147 7.19385 60.0152 7.61246 59.2245 8.43416C58.4183 9.25587 58.0307 10.3877 58.0307 11.814C58.0307 13.1473 58.4338 14.2326 59.209 15.0233C59.9842 15.7985 61.0385 16.2016 62.3563 16.2016C63.7362 16.2016 64.8369 15.783 65.6276 14.9458C66.4338 14.1086 66.8214 12.9923 66.8214 11.6125C66.8214 10.2481 66.4493 9.16284 65.6897 8.37215C64.961 7.58145 63.8912 7.19385 62.5579 7.19385ZM64.1703 13.7985C63.7982 14.2791 63.209 14.5117 62.4804 14.5117C61.7517 14.5117 61.1625 14.2791 60.7439 13.7675C60.3253 13.2869 60.1238 12.5892 60.1238 11.7055C60.1238 10.7908 60.3408 10.0931 60.7439 9.59695C61.1625 9.10083 61.7362 8.85277 62.4648 8.85277C63.178 8.85277 63.7362 9.08533 64.1393 9.56595C64.5424 10.0466 64.7594 10.7442 64.7594 11.659C64.7284 12.5892 64.5579 13.3179 64.1703 13.7985ZM71.3176 10.9458C70.6819 10.6822 70.2788 10.4807 70.0928 10.3101C69.9377 10.1551 69.8602 9.93804 69.8602 9.65897C69.8602 9.42641 69.9532 9.19385 70.1858 9.03881C70.4183 8.88377 70.6819 8.80625 71.0695 8.80625C71.4106 8.80625 71.7672 8.86827 72.1083 8.96129C72.4493 9.05432 72.7594 9.19385 73.0075 9.3799L73.085 9.44191V7.55044L73.0385 7.53494C72.8059 7.44191 72.4959 7.34889 72.1238 7.27137C71.7517 7.20936 71.4106 7.17835 71.1315 7.17835C70.1703 7.17835 69.3796 7.41091 68.7594 7.92253C68.1393 8.40315 67.8447 9.05432 67.8447 9.81401C67.8447 10.2171 67.9067 10.5737 68.0462 10.8683C68.1858 11.1628 68.3873 11.4419 68.6664 11.6745C68.9455 11.8915 69.3486 12.1396 69.9067 12.3721C70.3718 12.5737 70.7284 12.7287 70.9455 12.8528C71.1625 12.9768 71.3021 13.1163 71.4106 13.2249C71.4881 13.3489 71.5346 13.5039 71.5346 13.7055C71.5346 14.2791 71.1005 14.5582 70.2168 14.5582C69.8757 14.5582 69.5191 14.4962 69.1005 14.3566C68.6819 14.2171 68.2943 14.0156 67.9687 13.783L67.8912 13.721V15.69L67.9377 15.7055C68.2323 15.845 68.5889 15.938 69.023 16.0466C69.4571 16.1241 69.8447 16.1861 70.1858 16.1861C71.2245 16.1861 72.0772 15.9535 72.6819 15.4419C73.3021 14.9458 73.6276 14.3101 73.6276 13.4884C73.6276 12.9148 73.4726 12.4032 73.1315 12.0156C72.6819 11.6435 72.1238 11.2559 71.3176 10.9458ZM78.9455 7.19385C77.5346 7.19385 76.4028 7.61246 75.6121 8.43416C74.8214 9.25587 74.4183 10.3877 74.4183 11.814C74.4183 13.1473 74.8214 14.2326 75.5966 15.0233C76.3718 15.7985 77.4261 16.2016 78.7439 16.2016C80.1238 16.2016 81.2245 15.783 82.0152 14.9458C82.8214 14.1086 83.209 12.9923 83.209 11.6125C83.209 10.2481 82.8369 9.16284 82.0772 8.37215C81.3486 7.58145 80.2788 7.19385 78.9455 7.19385ZM80.5424 13.7985C80.1703 14.2791 79.5811 14.5117 78.8524 14.5117C78.1083 14.5117 77.5346 14.2791 77.116 13.7675C76.6974 13.2869 76.4959 12.5892 76.4959 11.7055C76.4959 10.7908 76.7129 10.0931 77.116 9.59695C77.5346 9.10083 78.1083 8.85277 78.8369 8.85277C79.5346 8.85277 80.1083 9.08533 80.5114 9.56595C80.9145 10.0466 81.1315 10.7442 81.1315 11.659C81.1315 12.5892 80.93 13.3179 80.5424 13.7985ZM93.9842 9.03881V7.3799H91.9532V4.83726L91.8912 4.85277L89.9687 5.42641L89.9222 5.44191V7.3799H86.8834V6.29463C86.8834 5.7985 87.0075 5.41091 87.2245 5.16284C87.4416 4.91478 87.7672 4.79075 88.1703 4.79075C88.4493 4.79075 88.7439 4.85277 89.0695 4.9923L89.147 5.03881V3.28688L89.1005 3.27137C88.8214 3.17835 88.4493 3.11633 87.9687 3.11633C87.3641 3.11633 86.8369 3.25587 86.3563 3.48843C85.8757 3.75199 85.5191 4.10858 85.2555 4.5892C84.992 5.05432 84.8524 5.58145 84.8524 6.1861V7.3799H83.4416V9.02331H84.8524V15.969H86.8834V9.03881H89.9222V13.4574C89.9222 15.2714 90.7749 16.1861 92.4803 16.1861C92.7594 16.1861 93.054 16.1396 93.3331 16.0931C93.6276 16.0311 93.8447 15.9535 93.9687 15.8915L93.9842 15.876V14.2171L93.9067 14.2791C93.7827 14.3566 93.6741 14.4187 93.4881 14.4652C93.3331 14.5117 93.1935 14.5272 93.085 14.5272C92.6819 14.5272 92.4028 14.4342 92.2013 14.2016C92.0152 13.9846 91.9222 13.628 91.9222 13.1008V9.03881H93.9842Z" fill="#7BA0D5"/>
<path d="M0.356445 0H9.86032V9.50388H0.356445V0Z" fill="#7BA0D5"/>
<path d="M10.8525 0H20.3564V9.50388H10.8525V0Z" fill="#7BA0D5"/>
<path d="M0.356445 10.4961H9.86032V20H0.356445V10.4961Z" fill="#7BA0D5"/>
<path d="M10.8525 10.4961H20.3564V20H10.8525V10.4961Z" fill="#7BA0D5"/>
</g>
<defs>
<clipPath id="clip0_445_1788">
<rect width="93.6434" height="20" fill="white" transform="translate(0.356445)"/>
</clipPath>
</defs>
</svg>
