<svg width="83" height="20" viewBox="0 0 83 20" fill="none" xmlns="http://www.w3.org/2000/svg">
<g clip-path="url(#clip0_445_1758)">
<path d="M32.9727 7.20905H35.554V15.3285H32.9727V7.20905Z" fill="#7BA0D5"/>
<mask id="mask0_445_1758" style="mask-type:luminance" maskUnits="userSpaceOnUse" x="0" y="0" width="83" height="20">
<path d="M0.77832 4.47035e-07H82.5036V20H0.77832V4.47035e-07Z" fill="white"/>
</mask>
<g mask="url(#mask0_445_1758)">
<path d="M36.0933 7.20905H38.5795V8.31913H38.627C39.2288 7.44689 40.0047 6.97121 41.1291 6.97121C42.9027 6.97121 43.9479 8.23985 43.9479 10.0477V15.3285H41.3667V10.5711C41.3667 9.71465 40.9391 9.12785 40.0998 9.12785C39.2447 9.12785 38.6745 9.84153 38.6745 10.8406V15.3285H36.0933V7.20905Z" fill="#7BA0D5"/>
<path d="M35.8121 5.0368C35.8121 4.1804 35.1188 3.48624 34.2637 3.48624C33.4086 3.48624 32.7153 4.1804 32.7153 5.0368C32.7153 5.89312 33.4086 6.58728 34.2637 6.58728C35.1188 6.58728 35.8121 5.89312 35.8121 5.0368Z" fill="#7BA0D5"/>
<path d="M62.1022 7.09185C62.0286 7.08521 61.9441 7.08225 61.8453 7.08225C60.8635 7.08225 60.1984 7.51041 59.6283 8.47777H59.5808V7.20913H57.1104V15.3285H59.6916V11.6811C59.6916 9.99113 60.6262 9.20801 62.1022 9.34465V7.09185Z" fill="#7BA0D5"/>
<path d="M74.7695 10.2062C73.7401 10.0159 72.8216 9.93663 72.8216 9.36575C72.8216 8.85823 73.3126 8.62039 73.946 8.62039C74.6586 8.62039 75.1496 8.84239 75.2446 9.57191H77.62C77.4933 7.97023 76.2581 6.97111 73.962 6.97111C72.0457 6.97111 70.4621 7.85919 70.4621 9.57191C70.4621 11.4748 71.9665 11.8554 73.376 12.0934C74.4528 12.2837 75.4346 12.363 75.4346 13.0924C75.4346 13.6158 74.9437 13.9012 74.1677 13.9012C73.3892 13.9012 72.8744 13.5714 72.7165 12.9022H70.2568C70.4379 14.5713 71.9009 15.5822 74.1836 15.5822C76.3056 15.5822 77.8733 14.6624 77.8733 12.8863C77.8733 10.8088 76.1947 10.4441 74.7695 10.2062Z" fill="#7BA0D5"/>
<path d="M66.1064 8.81073C66.9457 8.81073 67.5475 9.42921 67.6425 10.3966H64.4437C64.6178 9.42921 65.1246 8.81073 66.1064 8.81073ZM66.249 13.7109C65.1879 13.7109 64.5862 13.029 64.4278 11.9348H70.2555C70.2713 10.2856 69.7963 8.87417 68.8302 7.98617C68.1334 7.35185 67.215 6.97121 66.0588 6.97121C63.5885 6.97121 61.894 8.82657 61.894 11.253C61.894 13.7109 63.541 15.5664 66.2173 15.5664C67.2465 15.5664 68.0701 15.2968 68.7511 14.821C69.4637 14.3294 69.9387 13.6317 70.1129 12.9022H67.595C67.3732 13.4097 66.9299 13.7109 66.249 13.7109Z" fill="#7BA0D5"/>
<path d="M82.4199 13.4138C82.3003 13.4185 82.1397 13.4255 81.9922 13.4255C81.4378 13.4255 81.0895 13.2669 81.0895 12.6325V8.82654H82.4199V7.20902H81.0895V4.63999H78.5715V7.20902H77.7793V8.82654H78.5715V13.1876C78.5715 14.9321 79.6484 15.4236 81.1529 15.4236C81.7269 15.4236 82.1607 15.3805 82.4199 15.3299V13.4138Z" fill="#7BA0D5"/>
<path d="M48.5574 13.4175C48.4545 13.4215 48.3356 13.4255 48.2245 13.4255C47.6704 13.4255 47.3219 13.2669 47.3219 12.6325V8.82654H48.5574V7.20902H47.3219V4.63999H44.804V7.20902H43.9644V8.82654H44.804V13.1876C44.804 14.9321 45.8808 15.4236 47.3852 15.4236C47.8943 15.4236 48.2928 15.3897 48.5574 15.3467V13.4175Z" fill="#7BA0D5"/>
<path d="M54.1801 10.3966C54.0851 9.42929 53.4833 8.81073 52.644 8.81073C51.6621 8.81073 51.1554 9.42929 50.9812 10.3966H54.1801ZM48.4316 11.253C48.4316 8.82665 50.1261 6.97129 52.5965 6.97129C53.7525 6.97129 54.671 7.35185 55.3678 7.98617C56.3338 8.87425 56.8088 10.2856 56.793 11.9349H50.9654C51.1237 13.029 51.7255 13.711 52.7866 13.711C53.4674 13.711 53.9109 13.4097 54.1325 12.9022H56.6505C56.4763 13.6317 56.0013 14.3294 55.2886 14.8211C54.6077 15.2968 53.7842 15.5664 52.7548 15.5664C50.0785 15.5664 48.4316 13.711 48.4316 11.253Z" fill="#7BA0D5"/>
<path d="M28.4899 9.31825C29.5034 9.31825 30.0735 8.71561 30.0735 7.81161C30.0735 6.90777 29.4875 6.35273 28.4899 6.35273H26.5103V9.31825H28.4899ZM23.897 3.98985H28.3795C29.7571 3.98985 30.7707 4.37041 31.4675 5.03649C32.196 5.71833 32.6077 6.68577 32.6077 7.82753C32.6077 10.0001 31.1033 11.5384 28.7753 11.5384H26.5103V15.3285H23.897V3.98985Z" fill="#7BA0D5"/>
<path d="M20.3537 10C20.3537 15.39 15.9903 19.7594 10.608 19.7594C5.22562 19.7594 0.862305 15.39 0.862305 10C0.862305 4.61004 5.22562 0.24068 10.608 0.24068C15.9903 0.24068 20.3537 4.61004 20.3537 10Z" fill="#0E489D"/>
<path d="M10.608 0.240436C5.22562 0.240436 0.862305 4.60988 0.862305 9.9998C0.862305 14.1344 3.4311 17.6688 7.05641 19.0908C6.97125 18.3187 6.89423 17.1312 7.0902 16.2882C7.26731 15.5265 8.23299 11.4372 8.23299 11.4372C8.23299 11.4372 7.94148 10.8525 7.94148 9.9882C7.94148 8.63116 8.72694 7.61804 9.70493 7.61804C10.5364 7.61804 10.938 8.24316 10.938 8.99276C10.938 9.83012 10.4056 11.082 10.1309 12.2422C9.90129 13.2136 10.6173 14.0057 11.5741 14.0057C13.3062 14.0057 14.6377 12.1768 14.6377 9.53668C14.6377 7.19996 12.961 5.5662 10.5668 5.5662C7.79385 5.5662 6.16622 7.649 6.16622 9.80148C6.16622 10.6403 6.48888 11.5397 6.89152 12.0287C6.97117 12.1253 6.98283 12.21 6.9591 12.3086C6.88513 12.6168 6.72072 13.2797 6.68844 13.4154C6.64594 13.594 6.5472 13.632 6.3625 13.5459C5.14533 12.9785 4.38432 11.1964 4.38432 9.76508C4.38432 6.68652 6.61798 3.85924 10.8237 3.85924C14.2044 3.85924 16.8317 6.27172 16.8317 9.4958C16.8317 12.8592 14.714 15.5661 11.7746 15.5661C10.787 15.5661 9.85863 15.0524 9.54084 14.4455C9.54084 14.4455 9.05216 16.3088 8.93369 16.7655C8.71368 17.6132 8.11971 18.6757 7.72243 19.324C8.63427 19.6067 9.60331 19.7592 10.608 19.7592C15.9904 19.7592 20.3537 15.3897 20.3537 9.9998C20.3537 4.60988 15.9904 0.240436 10.608 0.240436Z" fill="#7BA0D5"/>
</g>
</g>
<defs>
<clipPath id="clip0_445_1758">
<rect width="81.7252" height="20" fill="white" transform="translate(0.77832)"/>
</clipPath>
</defs>
</svg>
