<svg width="66" height="20" viewBox="0 0 66 20" fill="none" xmlns="http://www.w3.org/2000/svg">
<g clip-path="url(#clip0_445_1831)">
<path fill-rule="evenodd" clip-rule="evenodd" d="M62.531 2.726C63.5036 2.726 64.257 3.02737 64.8049 3.61641C65.3529 4.20545 65.6268 5.02737 65.6268 6.06847C65.6268 7.12326 65.3529 7.94518 64.8049 8.53422C64.257 9.12326 63.5036 9.42463 62.531 9.42463C61.5583 9.42463 60.8049 9.12326 60.257 8.53422C59.709 7.94518 59.4351 7.12326 59.4351 6.06847C59.4351 5.02737 59.709 4.20545 60.257 3.61641C60.7912 3.01367 61.5583 2.726 62.531 2.726ZM62.531 4.10956C61.6679 4.10956 61.2433 4.7671 61.2433 6.06847C61.2433 7.38354 61.6679 8.04107 62.531 8.04107C63.394 8.04107 63.8186 7.38354 63.8186 6.06847C63.8186 4.7534 63.3803 4.10956 62.531 4.10956ZM56.0652 2.7808C56.8049 2.7808 57.394 2.95888 57.8049 3.32874C58.2296 3.6986 58.4351 4.17806 58.4351 4.7808C58.4351 5.38354 58.2022 5.84929 57.7638 6.16436C57.3118 6.47943 56.6405 6.63011 55.7638 6.63011C55.3118 6.63011 54.9145 6.58902 54.572 6.49313C54.6131 7.04107 54.7775 7.42463 55.0515 7.65751C55.3255 7.89039 55.7501 8.01367 56.3118 8.01367C56.531 8.01367 56.7501 7.99997 56.9693 7.97258C57.1748 7.94518 57.4762 7.87669 57.846 7.7808C57.8734 7.7671 57.8871 7.7671 57.9145 7.7671C57.9419 7.7671 57.9556 7.7671 57.9693 7.7671C58.1063 7.7671 58.1748 7.86299 58.1748 8.04107V8.60271C58.1748 8.726 58.1611 8.82189 58.12 8.87669C58.0789 8.93148 58.0104 8.97258 57.9145 9.01367C57.3255 9.23285 56.709 9.35614 56.0515 9.35614C55.0652 9.35614 54.2981 9.08217 53.7638 8.53422C53.2296 7.98628 52.9693 7.19176 52.9693 6.16436C52.9693 5.10956 53.2433 4.28764 53.7912 3.68491C54.3392 3.08217 55.0926 2.7808 56.0652 2.7808ZM55.9282 3.99997C55.1611 3.99997 54.709 4.47943 54.5994 5.42463C54.9145 5.49312 55.2707 5.52052 55.6679 5.52052C56.0789 5.52052 56.3666 5.45203 56.5583 5.32874C56.7364 5.20545 56.8323 5.01367 56.8323 4.7534C56.8323 4.26025 56.531 3.99997 55.9282 3.99997ZM51.394 0.0684664C51.5036 0.0684664 51.5857 0.0958637 51.6268 0.13696C51.6679 0.178055 51.6953 0.260247 51.6953 0.383535V8.91778C51.6953 9.02737 51.6679 9.10956 51.6268 9.15066C51.5857 9.20545 51.5036 9.21915 51.394 9.21915H50.4077C50.3118 9.21915 50.2296 9.19176 50.1748 9.15066C50.12 9.10956 50.0789 9.04107 50.0515 8.94518L49.983 8.65751C49.4762 9.12326 48.8734 9.35614 48.1748 9.35614C47.6405 9.35614 47.1885 9.21915 46.7912 8.94518C46.394 8.67121 46.0926 8.28765 45.8871 7.79449C45.6816 7.30134 45.572 6.7397 45.572 6.09586C45.572 5.06847 45.8186 4.26025 46.2981 3.64381C46.7775 3.02737 47.4214 2.726 48.2159 2.726C48.8597 2.726 49.4214 2.91778 49.9008 3.28764V0.383535C49.9008 0.273946 49.9282 0.191754 49.9693 0.13696C50.0104 0.082165 50.0926 0.0684664 50.2022 0.0684664H51.394ZM48.6953 4.08217C48.257 4.08217 47.9419 4.24655 47.7227 4.57532C47.5036 4.90408 47.4077 5.39723 47.4077 6.05477C47.4077 6.7123 47.5173 7.20545 47.7501 7.52052C47.9693 7.83559 48.3255 7.99997 48.7912 7.99997C49.1885 7.99997 49.5583 7.89039 49.9145 7.65751V4.39723C49.5583 4.17806 49.1474 4.08217 48.6953 4.08217ZM42.9282 9.23285C42.8186 9.23285 42.7501 9.20545 42.6953 9.16436C42.6405 9.10956 42.6268 9.04107 42.6268 8.93148V3.21915C42.6268 3.10956 42.6542 3.02737 42.6953 2.97258C42.7364 2.91778 42.8186 2.90408 42.9282 2.90408H44.1063C44.2159 2.90408 44.2981 2.93148 44.3392 2.97258C44.3803 3.01367 44.4077 3.09586 44.4077 3.21915V8.91778C44.4077 9.02737 44.3803 9.10956 44.3392 9.15066C44.2981 9.20545 44.2159 9.21915 44.1063 9.21915C44.1063 9.23285 42.9282 9.23285 42.9282 9.23285ZM43.5173 1.93148C43.2022 1.93148 42.9556 1.84929 42.7638 1.67121C42.572 1.49312 42.4762 1.26025 42.4762 0.972576C42.4762 0.671206 42.572 0.438329 42.7638 0.273946C42.9556 0.109562 43.2022 0.0136719 43.5173 0.0136719C43.8323 0.0136719 44.0789 0.0958637 44.2707 0.273946C44.4625 0.452028 44.5583 0.684905 44.5583 0.972576C44.5583 1.27395 44.4625 1.50682 44.2707 1.67121C44.0789 1.83559 43.8323 1.93148 43.5173 1.93148ZM38.0652 9.23285C37.983 9.23285 37.9145 9.21915 37.8597 9.20545C37.8049 9.19175 37.7638 9.15066 37.7227 9.10956C37.6816 9.06847 37.6542 8.99997 37.6131 8.91778L35.5172 3.41093C35.4899 3.35614 35.4762 3.30134 35.4625 3.23285C35.4488 3.19175 35.4351 3.13696 35.4351 3.09586C35.4351 2.97258 35.5172 2.90408 35.6816 2.90408H36.9008C37.0378 2.90408 37.1337 2.93148 37.1885 2.97258C37.2433 3.02737 37.2981 3.10956 37.3255 3.21915L38.5857 7.60271L39.8734 3.21915C39.9008 3.10956 39.9556 3.02737 40.0104 2.97258C40.0652 2.91778 40.1611 2.90408 40.2981 2.90408H41.4899C41.6542 2.90408 41.7364 2.97258 41.7364 3.09586C41.7364 3.13696 41.7227 3.17806 41.709 3.23285C41.6953 3.28764 41.6679 3.34244 41.6542 3.41093L39.572 8.90408C39.5446 8.98628 39.5036 9.05477 39.4625 9.09586C39.4351 9.13696 39.3803 9.17806 39.3392 9.19175C39.2844 9.21915 39.2159 9.21915 39.1337 9.21915H38.0652V9.23285Z" fill="#7BA0D5"/>
<path d="M32.216 7.7945C32.2023 7.7945 32.1749 7.7945 32.1612 7.7945C32.1338 7.7945 32.1064 7.8082 32.0927 7.8082C31.7092 7.90409 31.4078 7.97258 31.1886 7.99998C30.9695 8.02738 30.7503 8.04107 30.5174 8.04107C29.9421 8.04107 29.5174 7.91779 29.2297 7.68491C28.9421 7.45203 28.7777 7.05477 28.7366 6.49313C29.079 6.58902 29.49 6.63012 29.9558 6.63012C30.8599 6.63012 31.5448 6.46573 32.0106 6.15066C32.4763 5.83559 32.7092 5.36984 32.7092 4.7397C32.7092 4.12327 32.49 3.63012 32.0653 3.26025C31.6407 2.89039 31.038 2.69861 30.2708 2.69861C29.2845 2.69861 28.5037 2.99998 27.9421 3.61642C27.3804 4.23285 27.1064 5.06847 27.1064 6.13696C27.1064 7.19176 27.3804 7.98628 27.9284 8.54792C28.4763 9.10957 29.2571 9.38354 30.2708 9.38354C30.9421 9.38354 31.5859 9.27395 32.1749 9.04107C32.2845 8.99998 32.353 8.95888 32.3941 8.90409C32.4352 8.84929 32.4489 8.7534 32.4489 8.63012V8.08217C32.4215 7.89039 32.353 7.7945 32.216 7.7945ZM30.1064 3.97258C30.7229 3.97258 31.0243 4.23285 31.0243 4.7534C31.0243 5.01368 30.9284 5.21916 30.7366 5.34244C30.5448 5.46573 30.2434 5.53422 29.8325 5.53422C29.4352 5.53422 29.0653 5.50683 28.7366 5.43833C28.8736 4.46573 29.3256 3.97258 30.1064 3.97258Z" fill="#7BA0D5"/>
<path fill-rule="evenodd" clip-rule="evenodd" d="M18.093 3.52059C18.5313 3.23292 18.9149 3.02744 19.2711 2.90416C19.6135 2.78087 19.9834 2.72607 20.3532 2.72607C21.093 2.72607 21.6135 2.98635 21.9149 3.52059C22.3395 3.24662 22.7231 3.04114 23.093 2.91785C23.4628 2.79457 23.8464 2.72607 24.2437 2.72607C24.819 2.72607 25.2574 2.89046 25.5861 3.20553C25.9012 3.53429 26.0656 3.97265 26.0656 4.54799V8.91785C26.0656 9.02744 26.0382 9.10964 25.9971 9.15073C25.956 9.20553 25.8738 9.21923 25.7505 9.21923H24.5724C24.4628 9.21923 24.3943 9.19183 24.3396 9.15073C24.2848 9.09594 24.2711 9.02744 24.2711 8.91785V4.94525C24.2711 4.38361 24.0245 4.10964 23.5176 4.10964C23.0793 4.10964 22.6272 4.21922 22.1752 4.4247V8.91785C22.1752 9.02744 22.1478 9.10964 22.1067 9.15073C22.0656 9.20553 21.9834 9.21923 21.8601 9.21923H20.682C20.5724 9.21923 20.5039 9.19183 20.4491 9.15073C20.3943 9.09594 20.3806 9.02744 20.3806 8.91785V4.94525C20.3806 4.38361 20.1341 4.10964 19.6272 4.10964C19.1615 4.10964 18.7231 4.21923 18.2711 4.4384V8.91785C18.2711 9.02744 18.2437 9.10964 18.2026 9.15073C18.1615 9.20553 18.0793 9.21923 17.9697 9.21923H16.7916C16.682 9.21923 16.6135 9.19183 16.5587 9.15073C16.5039 9.09594 16.4902 9.02744 16.4902 8.91785V3.21922C16.4902 3.10964 16.5176 3.02744 16.5587 2.97265C16.6135 2.93155 16.682 2.90416 16.7916 2.90416H17.682C17.8738 2.90416 17.9834 3.00005 18.0245 3.17813L18.093 3.52059Z" fill="#7BA0D5"/>
<path fill-rule="evenodd" clip-rule="evenodd" d="M13.1338 3.21912C13.1338 3.10953 13.1612 3.02734 13.2023 2.97255C13.2571 2.93145 13.3256 2.90405 13.4352 2.90405H14.6132C14.7228 2.90405 14.805 2.93145 14.8598 2.97255C14.9009 3.01364 14.9283 3.09583 14.9283 3.21912V8.91775C14.9283 9.02734 14.9009 9.10953 14.8598 9.15063C14.8187 9.20542 14.7365 9.21912 14.6132 9.21912H13.4352C13.3256 9.21912 13.2571 9.19172 13.2023 9.15063C13.1475 9.09583 13.1338 9.02734 13.1338 8.91775V3.21912Z" fill="#7BA0D5"/>
<path fill-rule="evenodd" clip-rule="evenodd" d="M14.0382 1.93151C13.7231 1.93151 13.4765 1.84932 13.2847 1.67123C13.093 1.49315 12.9971 1.26027 12.9971 0.958904C12.9971 0.657534 13.093 0.424658 13.2847 0.260274C13.4765 0.0821918 13.7231 0 14.0382 0C14.3532 0 14.5998 0.0821918 14.7916 0.260274C14.9834 0.438356 15.0793 0.671233 15.0793 0.958904C15.0793 1.26027 14.9834 1.49315 14.7916 1.67123C14.5998 1.84932 14.3532 1.93151 14.0382 1.93151Z" fill="#7BA0D5"/>
<path fill-rule="evenodd" clip-rule="evenodd" d="M9.91489 3.84937C10.2437 3.4932 10.5587 3.23293 10.8464 3.08224C11.1341 2.93156 11.4491 2.84937 11.7779 2.84937H11.956C12.0656 2.84937 12.1478 2.87676 12.2026 2.91786C12.2574 2.95895 12.271 3.04115 12.271 3.16443V4.20553C12.271 4.31512 12.2437 4.39731 12.2026 4.43841C12.1615 4.4932 12.0793 4.5069 11.9697 4.5069C11.9149 4.5069 11.8327 4.5069 11.7505 4.4932C11.6409 4.4795 11.5176 4.4795 11.408 4.4795C11.2163 4.4795 10.9834 4.5069 10.7231 4.56169C10.4491 4.61649 10.2163 4.68498 10.0382 4.76717V8.91786C10.0382 9.02745 10.0108 9.10964 9.96968 9.15074C9.92858 9.20553 9.84639 9.21923 9.7231 9.21923H8.54502C8.43543 9.21923 8.36694 9.19183 8.31215 9.15074C8.25735 9.09594 8.24365 9.02745 8.24365 8.91786V3.21923C8.24365 3.10964 8.27105 3.02745 8.31215 2.97265C8.36694 2.93156 8.43543 2.90416 8.54502 2.90416H9.43543C9.62721 2.90416 9.7368 3.00005 9.7779 3.17813C9.7642 3.17813 9.91489 3.84937 9.91489 3.84937Z" fill="#7BA0D5"/>
<path d="M6.31195 3.60279C5.84619 3.01375 5.21605 2.72607 4.42153 2.72607C4.06537 2.72607 3.70921 2.79457 3.35304 2.93155C3.01058 3.06854 2.70921 3.26032 2.46263 3.5069L2.38044 3.19183C2.33934 3.01375 2.22975 2.91785 2.03797 2.91785H1.14756C1.03797 2.91785 0.969479 2.94525 0.914685 2.98635C0.85989 3.02744 0.846191 3.10964 0.846191 3.23292V11.4795C0.846191 11.5891 0.873589 11.6713 0.914685 11.7261C0.969479 11.7535 1.05167 11.7809 1.14756 11.7809H2.33934C2.44893 11.7809 2.53112 11.7535 2.58592 11.7124C2.62701 11.6713 2.65441 11.5891 2.65441 11.4658V8.76717C2.87359 8.95895 3.12016 9.10964 3.43523 9.20553C3.7366 9.31511 4.06537 9.36991 4.39414 9.36991C4.90099 9.36991 5.35304 9.23292 5.7503 8.95895C6.14756 8.68498 6.46263 8.28772 6.68181 7.78087C6.91469 7.27402 7.02427 6.67128 7.02427 5.98635C7.01058 4.97265 6.7777 4.19183 6.31195 3.60279ZM4.85989 7.53429C4.64071 7.84936 4.29825 8.00005 3.84619 8.00005C3.40784 8.00005 2.99688 7.89046 2.64071 7.67128V4.41101C3.02427 4.19183 3.42153 4.08224 3.84619 4.08224C4.31195 4.08224 4.65441 4.23292 4.87359 4.54799C5.09277 4.86306 5.18866 5.35621 5.18866 6.04114C5.18866 6.72607 5.07907 7.21922 4.85989 7.53429Z" fill="#7BA0D5"/>
<path fill-rule="evenodd" clip-rule="evenodd" d="M16.5586 12.6575C16.586 12.5205 16.6956 12.4109 16.8463 12.4109C16.9148 12.4109 16.997 12.4383 17.0792 12.4931C21.8326 15.4794 27.723 17.2739 33.8052 17.2739C37.9011 17.2739 42.4079 16.3561 46.5586 14.4657C47.1888 14.178 47.7093 14.904 47.0929 15.3972C43.3942 18.3424 38.0244 19.904 33.4079 19.904C26.9422 19.904 21.1066 17.3287 16.6956 13.0273C16.6134 12.9451 16.5586 12.8492 16.5449 12.7671V12.6575H16.5586Z" fill="#7BA0D5"/>
<path fill-rule="evenodd" clip-rule="evenodd" d="M44.0517 13.1232C45.1476 12.3013 46.5996 12.0273 47.8051 12.0273C48.9284 12.0273 49.8462 12.2739 50.038 12.5205C50.449 13.0547 49.9284 16.7945 47.9421 18.5753C47.6407 18.8493 47.3531 18.6986 47.4764 18.3424C47.9284 17.1506 48.9284 14.4657 48.449 13.8082C47.9695 13.1506 45.3257 13.4931 44.1339 13.6575C43.9558 13.6849 43.8462 13.6027 43.8325 13.4931V13.4246C43.8462 13.3287 43.9147 13.2191 44.0517 13.1232Z" fill="#7BA0D5"/>
</g>
<defs>
<clipPath id="clip0_445_1831">
<rect width="64.7945" height="20" fill="white" transform="translate(0.83252)"/>
</clipPath>
</defs>
</svg>
