<svg width="59" height="20" viewBox="0 0 59 20" fill="none" xmlns="http://www.w3.org/2000/svg">
<path d="M52.5906 8.15044C53.2892 8.15044 53.8555 7.58412 53.8555 6.88552C53.8555 6.18693 53.2892 5.62061 52.5906 5.62061C51.892 5.62061 51.3257 6.18693 51.3257 6.88552C51.3257 7.58412 51.892 8.15044 52.5906 8.15044Z" fill="#7BA0D5"/>
<path d="M34.5236 12.2792C35.1441 12.2792 35.5021 11.8138 35.4782 11.3604C35.4663 11.1217 35.4424 10.9666 35.4186 10.8472C35.0367 9.20046 33.7002 7.98328 32.1131 7.98328C30.2276 7.98328 28.7002 9.68972 28.7002 11.79C28.7002 13.8902 30.2276 15.5966 32.1131 15.5966C33.2945 15.5966 34.1417 15.167 34.7503 14.4869C35.0486 14.1527 34.989 13.6396 34.631 13.389C34.3327 13.1861 33.9627 13.2577 33.6883 13.4845C33.4257 13.7112 32.9245 14.1647 32.1131 14.1647C31.1584 14.1647 30.347 13.3413 30.168 12.2554H34.5236V12.2792ZM32.1011 9.42719C32.9603 9.42719 33.7002 10.0954 33.9747 11.0143H30.2276C30.5021 10.0835 31.242 9.42719 32.1011 9.42719Z" fill="#7BA0D5"/>
<path d="M28.7722 8.73517C28.7722 8.37718 28.5097 8.09078 28.1756 8.03112C27.1374 7.87598 26.1589 8.25785 25.598 8.9619V8.86644C25.598 8.42491 25.24 8.15045 24.882 8.15045C24.4882 8.15045 24.166 8.47264 24.166 8.86644V14.7137C24.166 15.0956 24.4524 15.4297 24.8343 15.4535C25.2519 15.4774 25.598 15.1552 25.598 14.7376V11.7185C25.598 10.3819 26.6004 9.2841 27.9846 9.43923C28.0324 9.43923 28.0801 9.43923 28.1278 9.43923C28.4858 9.41536 28.7722 9.1051 28.7722 8.73517Z" fill="#7BA0D5"/>
<path d="M53.307 9.49883C53.307 9.10503 52.9848 8.78284 52.591 8.78284C52.1972 8.78284 51.875 9.10503 51.875 9.49883C51.875 9.52269 51.875 14.5108 51.875 14.7375C51.875 15.1313 52.1972 15.4535 52.591 15.4535C52.9848 15.4535 53.307 15.1313 53.307 14.7375C53.307 14.5227 53.307 9.53463 53.307 9.49883Z" fill="#7BA0D5"/>
<path d="M42.6623 5.53704C42.6623 5.14324 42.3402 4.82104 41.9464 4.82104C41.5526 4.82104 41.2304 5.14324 41.2304 5.53704V8.72319C40.7411 8.23393 40.1325 7.99527 39.4046 7.99527C37.5191 7.99527 35.9917 9.70171 35.9917 11.802C35.9917 13.9022 37.5191 15.6086 39.4046 15.6086C40.1325 15.6086 40.753 15.358 41.2423 14.8688C41.302 15.2029 41.6003 15.4535 41.9464 15.4535C42.3402 15.4535 42.6623 15.1313 42.6623 14.7375V5.53704ZM39.4165 14.1886C38.3187 14.1886 37.4356 13.1265 37.4356 11.802C37.4356 10.4893 38.3187 9.41532 39.4165 9.41532C40.5144 9.41532 41.3974 10.4774 41.3974 11.802C41.3974 13.1265 40.5024 14.1886 39.4165 14.1886Z" fill="#7BA0D5"/>
<path d="M50.1326 5.53704C50.1326 5.14324 49.8104 4.82104 49.4166 4.82104C49.0228 4.82104 48.7006 5.14324 48.7006 5.53704V8.72319C48.2113 8.23393 47.6027 7.99527 46.8748 7.99527C44.9894 7.99527 43.4619 9.70171 43.4619 11.802C43.4619 13.9022 44.9894 15.6086 46.8748 15.6086C47.6027 15.6086 48.2233 15.358 48.7125 14.8688C48.7722 15.2029 49.0705 15.4535 49.4166 15.4535C49.8104 15.4535 50.1326 15.1313 50.1326 14.7375V5.53704ZM46.8748 14.1886C45.777 14.1886 44.8939 13.1265 44.8939 11.802C44.8939 10.4893 45.777 9.41532 46.8748 9.41532C47.9727 9.41532 48.8557 10.4774 48.8557 11.802C48.8557 13.1265 47.9727 14.1886 46.8748 14.1886Z" fill="#7BA0D5"/>
<path d="M56.9344 14.7494V9.4272H57.5668C57.9009 9.4272 58.1993 9.1766 58.2231 8.83054C58.247 8.46061 57.9487 8.15035 57.5907 8.15035H56.9344V7.14796C56.9344 6.7661 56.648 6.43197 56.2661 6.40811C55.8484 6.38424 55.5024 6.70643 55.5024 7.1241V8.16228H54.9057C54.5716 8.16228 54.2733 8.41288 54.2494 8.75894C54.2255 9.12887 54.5238 9.43913 54.8818 9.43913H55.4904V14.7613C55.4904 15.1551 55.8126 15.4773 56.2064 15.4773C56.6241 15.4535 56.9344 15.1432 56.9344 14.7494Z" fill="#7BA0D5"/>
<path d="M10.1562 20C15.6791 20 20.1562 15.5228 20.1562 10C20.1562 4.47715 15.6791 0 10.1562 0C4.6334 0 0.15625 4.47715 0.15625 10C0.15625 15.5228 4.6334 20 10.1562 20Z" fill="#7BA0D5"/>
<path d="M16.8272 9.99998C16.8272 9.18852 16.1709 8.54413 15.3713 8.54413C14.9775 8.54413 14.6195 8.69926 14.357 8.94986C13.3546 8.23387 11.9823 7.76847 10.4549 7.70881L11.1231 4.58232L13.295 5.04771C13.3188 5.59664 13.7723 6.03816 14.3332 6.03816C14.9059 6.03816 15.3713 5.57277 15.3713 4.99998C15.3713 4.42719 14.9059 3.96179 14.3332 3.96179C13.9274 3.96179 13.5694 4.20046 13.4024 4.54652L10.9799 4.03339C10.9083 4.02146 10.8367 4.03339 10.789 4.06919C10.7293 4.10499 10.6935 4.16466 10.6816 4.23626L9.94175 7.72074C8.39043 7.76847 6.99425 8.23387 5.97993 8.96179C5.7174 8.7112 5.35941 8.55606 4.96561 8.55606C4.15416 8.55606 3.50977 9.21239 3.50977 10.0119C3.50977 10.6086 3.86776 11.1098 4.36895 11.3365C4.34509 11.4797 4.33315 11.6229 4.33315 11.778C4.33315 14.0215 6.94652 15.8472 10.1685 15.8472C13.3904 15.8472 16.0038 14.0334 16.0038 11.778C16.0038 11.6348 15.9919 11.4797 15.968 11.3365C16.4692 11.1098 16.8272 10.5966 16.8272 9.99998ZM6.82719 11.0382C6.82719 10.4654 7.29258 9.99998 7.86537 9.99998C8.43817 9.99998 8.90356 10.4654 8.90356 11.0382C8.90356 11.611 8.43817 12.0763 7.86537 12.0763C7.29258 12.0883 6.82719 11.611 6.82719 11.0382ZM12.6386 13.7947C11.9227 14.5107 10.5623 14.5584 10.1685 14.5584C9.76275 14.5584 8.40237 14.4988 7.69831 13.7947C7.59091 13.6873 7.59091 13.5203 7.69831 13.4129C7.80571 13.3055 7.97277 13.3055 8.08017 13.4129C8.53363 13.8663 9.48828 14.0215 10.1685 14.0215C10.8487 14.0215 11.8153 13.8663 12.2568 13.4129C12.3642 13.3055 12.5312 13.3055 12.6386 13.4129C12.7341 13.5203 12.7341 13.6873 12.6386 13.7947ZM12.4477 12.0883C11.8749 12.0883 11.4095 11.6229 11.4095 11.0501C11.4095 10.4773 11.8749 10.0119 12.4477 10.0119C13.0205 10.0119 13.4859 10.4773 13.4859 11.0501C13.4859 11.611 13.0205 12.0883 12.4477 12.0883Z" fill="#0E489D"/>
</svg>
