<svg width="67" height="20" viewBox="0 0 67 20" fill="none" xmlns="http://www.w3.org/2000/svg">
<g clip-path="url(#clip0_445_1819)">
<path d="M16.383 8.88226C13.2115 6.99675 7.9802 6.82338 4.95262 7.74329C4.46642 7.8909 3.95231 7.61614 3.80499 7.12943C3.65767 6.64249 3.93184 6.12814 4.41836 5.98017C7.89383 4.92395 13.6712 5.12802 17.3223 7.29774C17.7597 7.55756 17.9032 8.12296 17.6439 8.56014C17.3845 8.99786 16.8192 9.14217 16.383 8.88226ZM16.2791 11.675C16.0567 12.0365 15.5847 12.1498 15.2241 11.928C12.58 10.3009 8.54809 9.82951 5.41996 10.7801C5.0143 10.9028 4.58583 10.6738 4.46266 10.2685C4.34039 9.86236 4.56922 9.43419 4.97414 9.31069C8.54764 8.22517 12.9899 8.75095 16.0268 10.6193C16.3873 10.8416 16.5008 11.3145 16.2791 11.675ZM15.0752 14.3571C14.8985 14.6473 14.5209 14.7383 14.2321 14.5614C11.9216 13.1478 9.01355 12.8284 5.58875 13.6117C5.25868 13.6874 4.9298 13.4803 4.85449 13.15C4.77891 12.8196 4.98493 12.4904 5.31573 12.415C9.06358 11.5573 12.2785 11.9264 14.8718 13.5129C15.161 13.6896 15.252 14.0678 15.0752 14.3571ZM10.563 0.150248C5.12926 0.150248 0.724121 4.56003 0.724121 9.99987C0.724121 15.4402 5.12926 19.8499 10.563 19.8499C15.997 19.8499 20.4019 15.4402 20.4019 9.99987C20.4019 4.56003 15.997 0.150248 10.563 0.150248Z" fill="#7BA0D5"/>
<path d="M27.4925 9.24333C25.7937 8.83776 25.4912 8.55309 25.4912 7.95515C25.4912 7.38998 26.0227 7.00984 26.8129 7.00984C27.5789 7.00984 28.3384 7.2986 29.1348 7.89304C29.1589 7.91104 29.1891 7.91821 29.2188 7.91351C29.2486 7.90904 29.2748 7.89281 29.2923 7.86811L30.1217 6.69756C30.1558 6.64945 30.1465 6.58288 30.1006 6.54607C29.1528 5.78472 28.0855 5.41457 26.8381 5.41457C25.0038 5.41457 23.7226 6.51643 23.7226 8.09323C23.7226 9.78406 24.8278 10.3827 26.7377 10.8448C28.3633 11.2196 28.6376 11.5336 28.6376 12.0951C28.6376 12.7172 28.0828 13.1039 27.19 13.1039C26.1986 13.1039 25.3897 12.7696 24.4849 11.9851C24.4624 11.9658 24.4316 11.9569 24.4032 11.9585C24.3734 11.961 24.346 11.9749 24.327 11.9978L23.3969 13.1059C23.3579 13.1519 23.3629 13.2206 23.4079 13.2603C24.4607 14.2012 25.7553 14.6982 27.1525 14.6982C29.129 14.6982 30.4062 13.617 30.4062 11.9436C30.4062 10.5294 29.5621 9.74725 27.4925 9.24333Z" fill="#7BA0D5"/>
<path d="M36.3127 11.1387C36.3127 12.3329 35.5779 13.1662 34.5258 13.1662C33.4857 13.1662 32.7011 12.2951 32.7011 11.1387C32.7011 9.98257 33.4857 9.11127 34.5258 9.11127C35.561 9.11127 36.3127 9.96374 36.3127 11.1387ZM34.8779 7.56606C34.0212 7.56606 33.3185 7.90386 32.739 8.59605V7.81694C32.739 7.75543 32.6892 7.70532 32.6278 7.70532H31.1067C31.0453 7.70532 30.9956 7.75543 30.9956 7.81694V16.474C30.9956 16.5355 31.0453 16.5856 31.1067 16.5856H32.6278C32.6892 16.5856 32.739 16.5355 32.739 16.474V13.7414C33.3186 14.3926 34.0214 14.7106 34.8779 14.7106C36.4698 14.7106 38.0812 13.4838 38.0812 11.1387C38.0812 8.79315 36.4698 7.56606 34.8779 7.56606Z" fill="#7BA0D5"/>
<path d="M42.2118 13.1787C41.1214 13.1787 40.2993 12.3016 40.2993 11.1387C40.2993 9.9709 41.093 9.12344 42.1867 9.12344C43.2841 9.12344 44.1117 10.0005 44.1117 11.1642C44.1117 12.3318 43.3127 13.1787 42.2118 13.1787ZM42.2118 7.56601C40.1617 7.56601 38.5557 9.14638 38.5557 11.1642C38.5557 13.1601 40.1507 14.7239 42.1867 14.7239C44.244 14.7239 45.855 13.1488 45.855 11.1387C45.855 9.1353 44.255 7.56601 42.2118 7.56601Z" fill="#7BA0D5"/>
<path d="M50.2327 7.70534H48.5588V5.99209C48.5588 5.93058 48.5093 5.88059 48.4478 5.88059H46.9269C46.8654 5.88059 46.8153 5.93058 46.8153 5.99209V7.70534H46.0839C46.0226 7.70534 45.9731 7.75544 45.9731 7.81696V9.12567C45.9731 9.18715 46.0226 9.23722 46.0839 9.23722H46.8153V12.6237C46.8153 13.9922 47.4957 14.686 48.8375 14.686C49.3831 14.686 49.8358 14.5732 50.2624 14.3311C50.2971 14.3117 50.3187 14.2743 50.3187 14.2345V12.9882C50.3187 12.9497 50.2986 12.9135 50.2658 12.8933C50.2327 12.8725 50.1915 12.8714 50.1575 12.8883C49.8645 13.0358 49.5812 13.104 49.2646 13.104C48.7767 13.104 48.5588 12.8822 48.5588 12.3851V9.23722H50.2327C50.2941 9.23722 50.3436 9.18715 50.3436 9.12567V7.81696C50.3436 7.75544 50.2941 7.70534 50.2327 7.70534Z" fill="#7BA0D5"/>
<path d="M56.0646 7.71199V7.50156C56.0646 6.88253 56.3017 6.60648 56.8334 6.60648C57.1505 6.60648 57.4052 6.66952 57.6905 6.7648C57.7256 6.77585 57.7623 6.77032 57.7908 6.74927C57.8202 6.72822 57.8368 6.69446 57.8368 6.6587V5.37548C57.8368 5.32643 57.8053 5.28303 57.7582 5.26868C57.4568 5.17893 57.0712 5.08672 56.4939 5.08672C55.0888 5.08672 54.3463 5.87877 54.3463 7.37642V7.69869H53.6155C53.5542 7.69869 53.5039 7.74868 53.5039 7.8102V9.12562C53.5039 9.1871 53.5542 9.23717 53.6155 9.23717H54.3463V14.4606C54.3463 14.5221 54.3959 14.5721 54.4572 14.5721H55.9782C56.0397 14.5721 56.0897 14.5221 56.0897 14.4606V9.23717H57.5099L59.6855 14.4592C59.4385 15.0079 59.1957 15.1171 58.8641 15.1171C58.5961 15.1171 58.3139 15.037 58.0253 14.8789C57.9982 14.8639 57.9661 14.8615 57.9368 14.8705C57.9077 14.8809 57.8833 14.9024 57.871 14.9308L57.3554 16.0631C57.3309 16.1166 57.3518 16.1794 57.4032 16.2072C57.9415 16.499 58.4274 16.6235 59.0278 16.6235C60.151 16.6235 60.7718 16.0997 61.3191 14.6906L63.9581 7.86395C63.9712 7.8296 63.9673 7.79091 63.9463 7.76033C63.9254 7.73022 63.8917 7.71199 63.8548 7.71199H62.2713C62.2239 7.71199 62.1814 7.7421 62.1659 7.78667L60.5437 12.4253L58.7669 7.78362C58.7507 7.74045 58.7092 7.71199 58.6631 7.71199H56.0646Z" fill="#7BA0D5"/>
<path d="M52.6838 7.70529H51.1626C51.1012 7.70529 51.0513 7.75539 51.0513 7.81691V14.4606C51.0513 14.5222 51.1012 14.5721 51.1626 14.5721H52.6838C52.7451 14.5721 52.7952 14.5222 52.7952 14.4606V7.81691C52.7952 7.75539 52.7451 7.70529 52.6838 7.70529Z" fill="#7BA0D5"/>
<path d="M51.9309 4.68019C51.3285 4.68019 50.8394 5.16866 50.8394 5.77181C50.8394 6.37544 51.3285 6.86438 51.9309 6.86438C52.5333 6.86438 53.0218 6.37544 53.0218 5.77181C53.0218 5.16866 52.5333 4.68019 51.9309 4.68019Z" fill="#7BA0D5"/>
<path d="M65.3192 8.3661H65.0405V8.7219H65.3192C65.4583 8.7219 65.5414 8.65376 65.5414 8.54391C65.5414 8.42817 65.4583 8.3661 65.3192 8.3661ZM65.4999 8.87365L65.8027 9.29809H65.5474L65.2748 8.9088H65.0405V9.29809H64.8268V8.17312H65.3279C65.5889 8.17312 65.7606 8.30688 65.7606 8.53196C65.7606 8.71634 65.6542 8.82904 65.4999 8.87365ZM65.2626 7.79886C64.7143 7.79886 64.2993 8.23511 64.2993 8.76954C64.2993 9.30361 64.7113 9.73411 65.257 9.73411C65.8052 9.73411 66.2205 9.2981 66.2205 8.76343C66.2205 8.22935 65.8082 7.79886 65.2626 7.79886ZM65.257 9.84131C64.6549 9.84131 64.1865 9.35727 64.1865 8.76954C64.1865 8.18171 64.6611 7.69218 65.2626 7.69218C65.8645 7.69218 66.333 8.17618 66.333 8.76343C66.333 9.35126 65.8589 9.84131 65.257 9.84131Z" fill="#7BA0D5"/>
</g>
<defs>
<clipPath id="clip0_445_1819">
<rect width="66.6079" height="20" fill="white" transform="translate(0.224609)"/>
</clipPath>
</defs>
</svg>
