<svg width="46" height="20" viewBox="0 0 46 20" fill="none" xmlns="http://www.w3.org/2000/svg">
<g clip-path="url(#clip0_445_1754)">
<path d="M25.9253 0H45.9253V20H25.9253V0ZM0.925293 0H20.9253V20H0.925293V0Z" fill="#7BA0D5"/>
<path d="M40.6652 2.73499H41.9302V9.05499H40.6652V2.73499ZM32.6602 6.94999C32.6602 7.50827 32.4385 8.04368 32.0437 8.43845C31.6489 8.83321 31.1135 9.05499 30.5552 9.05499C29.9969 9.05499 29.4615 8.83321 29.0668 8.43845C28.672 8.04368 28.4502 7.50827 28.4502 6.94999V2.73499H29.7152V6.94999C29.7152 7.17277 29.8037 7.38642 29.9613 7.54395C30.1188 7.70149 30.3324 7.78999 30.5552 7.78999C30.778 7.78999 30.9917 7.70149 31.1492 7.54395C31.3067 7.38642 31.3952 7.17277 31.3952 6.94999V2.73499H32.6602V6.94999ZM38.5552 17.265H34.3452V10.945H35.6102V16H38.5552V17.265ZM38.5552 9.05499H37.2902L35.6102 5.44499V9.05499H34.3452V2.73499H35.6102L37.2902 6.34499V2.73499H38.5552V9.05499ZM30.5552 10.945C30.2784 10.945 30.0042 10.9996 29.7485 11.1057C29.4928 11.2118 29.2605 11.3673 29.065 11.5633C28.8695 11.7593 28.7145 11.9919 28.609 12.2479C28.5035 12.5039 28.4496 12.7781 28.4502 13.055V15.16C28.4502 15.7183 28.672 16.2537 29.0668 16.6484C29.4615 17.0432 29.9969 17.265 30.5552 17.265C30.6927 17.2663 30.83 17.2546 30.9652 17.23L31.3952 18.53H32.6602L32.0352 16.655C32.2338 16.459 32.3914 16.2254 32.4987 15.9679C32.606 15.7103 32.6609 15.434 32.6602 15.155V13.055C32.6609 12.7781 32.6069 12.5039 32.5014 12.2479C32.3959 11.9919 32.241 11.7593 32.0455 11.5633C31.8499 11.3673 31.6177 11.2118 31.3619 11.1057C31.1062 10.9996 30.8321 10.945 30.5552 10.945ZM31.3952 15.16C31.3952 15.3828 31.3067 15.5964 31.1492 15.754C30.9917 15.9115 30.778 16 30.5552 16C30.3324 16 30.1188 15.9115 29.9613 15.754C29.8037 15.5964 29.7152 15.3828 29.7152 15.16V13.055C29.7152 12.8322 29.8037 12.6185 29.9613 12.461C30.1188 12.3035 30.3324 12.215 30.5552 12.215C30.778 12.215 30.9917 12.3035 31.1492 12.461C31.3067 12.6185 31.3952 12.8322 31.3952 13.055V15.16ZM41.2952 10.945C40.7356 10.945 40.1989 11.1673 39.8032 11.563C39.4075 11.9587 39.1852 12.4954 39.1852 13.055V15.16C39.1852 15.7183 39.407 16.2537 39.8018 16.6484C40.1965 17.0432 40.732 17.265 41.2902 17.265C41.8485 17.265 42.3839 17.0432 42.7787 16.6484C43.1735 16.2537 43.3952 15.7183 43.3952 15.16V13.055C43.3959 12.7781 43.3419 12.5039 43.2364 12.2479C43.1309 11.9919 42.976 11.7593 42.7805 11.5633C42.5849 11.3673 42.3527 11.2118 42.0969 11.1057C41.8412 10.9996 41.5671 10.945 41.2902 10.945M42.1302 15.16C42.1302 15.3834 42.0415 15.5977 41.8835 15.7557C41.7255 15.9137 41.5112 16.0025 41.2877 16.0025C41.0643 16.0025 40.85 15.9137 40.692 15.7557C40.534 15.5977 40.4452 15.3834 40.4452 15.16V13.055C40.4452 12.8315 40.534 12.6172 40.692 12.4592C40.85 12.3012 41.0643 12.2125 41.2877 12.2125C41.5112 12.2125 41.7255 12.3012 41.8835 12.4592C42.0415 12.6172 42.1302 12.8315 42.1302 13.055V15.16ZM12.2952 7.57999H17.9752V8.83999H12.2952V7.57999ZM12.9252 2.73499H17.3452V3.99999H12.9252V2.73499ZM8.29523 2.73499H4.50023V3.99999H7.03023V7.57999H3.87523V8.83999H9.55523V7.57999H8.29523V2.73499ZM12.2952 11.155V17.265H17.9752V11.155H12.2952ZM16.7102 16H13.5552V12.42H16.7102V16ZM4.50023 11.155L3.86023 14.215H5.12023L5.50023 12.42H8.03523L7.29023 16H3.49523L3.24023 17.265H8.29523L9.55523 11.155H4.50023Z" fill="#0E489D"/>
</g>
<defs>
<clipPath id="clip0_445_1754">
<rect width="45" height="20" fill="white" transform="translate(0.925293)"/>
</clipPath>
</defs>
</svg>
