<svg width="617" height="527" viewBox="0 0 617 527" fill="none" xmlns="http://www.w3.org/2000/svg">
<path fill-rule="evenodd" clip-rule="evenodd" d="M289.314 1.53499C333.466 2.30205 376.521 1.82736 419.821 10.4873C471.92 20.9069 532.376 20.1299 569.977 57.6664C607.3 94.9254 616.785 154.076 616.484 206.813C616.202 256.264 579.252 296.939 568.338 345.172C557.4 393.511 591.003 460.32 552.156 491.096C508.861 525.395 443.367 480.667 388.568 487.589C353.127 492.066 324.788 520.084 289.314 524.298C251.801 528.754 211.931 529.242 178.016 512.6C144.153 495.982 125.816 460.057 100.824 431.803C74.6756 402.24 39.667 378.695 26.6257 341.444C13.2664 303.285 29.6046 262.037 27.2607 221.675C24.0579 166.526 -18.1857 106.296 10.2183 58.9153C37.2402 13.84 105.128 16.4978 156.606 5.91437C200.51 -3.11199 244.499 0.756392 289.314 1.53499Z" fill="#7BA0D5"/>
</svg>
