<svg width="668" height="539" viewBox="0 0 668 539" fill="none" xmlns="http://www.w3.org/2000/svg">
<path fill-rule="evenodd" clip-rule="evenodd" d="M330.766 3.05899C363.527 9.51165 384.36 46.0844 417.422 50.7564C469.699 58.1437 524.441 17.1945 573.25 37.3241C620.007 56.6072 668.745 103.3 667.421 153.859C665.965 209.527 591.051 234.449 566.78 284.568C549.113 321.048 560.398 364.788 546.783 402.967C529.852 450.446 525.02 518.654 477.404 535.197C427.217 552.634 377.138 503.952 330.766 478.02C298.071 459.737 281.287 419.504 246.35 405.99C207.081 390.801 160.748 413.544 121.927 397.242C75.7127 377.835 22.8906 351.969 5.63965 304.907C-11.1717 259.044 13.8032 206.865 36.2389 163.475C56.6538 123.993 92.9049 96.4011 127.732 68.7848C157.602 45.0987 189.68 24.7843 225.948 13.0434C259.764 2.09686 295.893 -3.80963 330.766 3.05899Z" fill="#7BA0D5"/>
</svg>
