<svg width="586" height="581" viewBox="0 0 586 581" fill="none" xmlns="http://www.w3.org/2000/svg">
<path fill-rule="evenodd" clip-rule="evenodd" d="M313.395 29.9619C355.776 13.2789 405.784 -12.2917 447.05 6.75603C488.353 25.8205 490.716 81.7979 510.807 121.084C527.277 153.291 545.718 183.743 555.277 218.388C565.037 253.762 564.094 289.68 567.379 326.12C571.809 375.27 597.911 426.303 578.129 471.899C558.517 517.101 510.508 548.025 463.012 566.672C416.225 585.041 363.45 582.95 313.395 575.837C266.876 569.226 223.062 551.724 183.85 526.999C147.247 503.919 123.812 468.163 93.9896 437.49C62.0476 404.637 6.69083 383.255 0.902248 338.832C-5.04929 293.158 49.1284 260.416 65.2625 217.03C79.2718 179.358 56.7652 126.05 89.3853 100.893C124.772 73.6026 180.92 108.19 224.134 94.5059C260.039 83.1369 278.428 43.7266 313.395 29.9619Z" fill="#7BA0D5"/>
</svg>
