<svg width="597" height="581" viewBox="0 0 597 581" fill="none" xmlns="http://www.w3.org/2000/svg">
<path fill-rule="evenodd" clip-rule="evenodd" d="M313.905 0.0633849C352.169 -0.151843 385.224 24.9967 423.083 30.5438C477.707 38.5471 555.051 -5.49099 586.356 39.982C618.997 87.3937 560.915 150.185 543.141 204.933C532.323 238.253 500.508 265.155 501.887 300.16C503.96 352.792 575.938 400.419 552.705 447.691C532.23 489.352 457.953 449.568 417.376 472.115C373.187 496.669 363.933 573.111 313.905 580.38C266.737 587.234 235.64 529.126 194.864 504.447C157.855 482.049 115.505 470.113 83.5464 440.96C48.8858 409.341 10.9451 374.502 1.94029 328.459C-7.05647 282.456 17.1521 236.906 35.1769 193.637C51.3734 154.756 71.483 117.296 101.998 88.2645C130.797 60.8655 168.618 47.0435 205.317 31.7687C240.571 17.095 275.72 0.278174 313.905 0.0633849Z" fill="#7BA0D5"/>
</svg>
