<svg width="65" height="64" viewBox="0 0 65 64" fill="none" xmlns="http://www.w3.org/2000/svg">
<path d="M5.83337 14C5.83337 11.7014 6.74647 9.49704 8.37178 7.87172C9.9971 6.24641 12.2015 5.33331 14.5 5.33331H45.1667C47.4652 5.33331 49.6696 6.24641 51.295 7.87172C52.9203 9.49704 53.8334 11.7014 53.8334 14V21.36C52.4951 21.2209 51.143 21.3074 49.8334 21.616V18.6666H9.83337V44.6666C9.83337 47.2426 11.924 49.3333 14.5 49.3333H35.7934L34.6174 51.3706C34.2646 51.9805 34.0125 52.6432 33.8707 53.3333H14.5C12.2015 53.3333 9.9971 52.4202 8.37178 50.7949C6.74647 49.1696 5.83337 46.9652 5.83337 44.6666V14ZM14.5 9.33331C13.2624 9.33331 12.0754 9.82498 11.2002 10.7001C10.325 11.5753 9.83337 12.7623 9.83337 14V14.6666H49.8334V14C49.8334 12.7623 49.3417 11.5753 48.4665 10.7001C47.5914 9.82498 46.4044 9.33331 45.1667 9.33331H14.5ZM53.452 24C51.6736 23.8332 49.8847 24.1808 48.2981 25.0015C46.7115 25.8222 45.3942 27.0814 44.5027 28.6293C43.6053 30.1822 43.1743 31.9608 43.2613 33.7522C43.3483 35.5436 43.9497 37.2721 44.9934 38.7306L36.9267 52.704C36.4489 53.5948 36.3366 54.6366 36.6136 55.6088C36.8905 56.581 37.5349 57.4072 38.4104 57.9125C39.2859 58.4178 40.3237 58.5626 41.304 58.3161C42.2844 58.0696 43.1303 57.4513 43.6627 56.592L51.7427 42.592C53.5913 42.7598 55.448 42.3727 57.0754 41.48C58.7028 40.5873 60.0271 39.2296 60.879 37.5805C61.731 35.9313 62.0718 34.0656 61.858 32.2218C61.6442 30.3779 60.8854 28.6397 59.6787 27.2293L55.2787 34.8506C55.0778 35.211 54.8072 35.5278 54.4827 35.7826C54.1581 36.0375 53.7862 36.2252 53.3885 36.335C52.9907 36.4447 52.5751 36.4743 52.1659 36.4219C51.7566 36.3696 51.3618 36.2364 51.0045 36.03C50.6472 35.8237 50.3345 35.5484 50.0846 35.2201C49.8346 34.8918 49.6525 34.5171 49.5487 34.1178C49.445 33.7184 49.4216 33.3024 49.4801 32.894C49.5386 32.4856 49.6777 32.0928 49.8894 31.7386L54.2894 24.1173C54.0122 24.0655 53.7328 24.0263 53.452 24ZM27.9747 24.648C28.1523 24.8416 28.2901 25.0683 28.38 25.3152C28.47 25.562 28.5104 25.8242 28.4991 26.0867C28.4877 26.3492 28.4247 26.6069 28.3136 26.8451C28.2026 27.0832 28.0458 27.2971 27.852 27.4746L21.46 33.3333L27.852 39.192C28.2431 39.5505 28.4758 40.0498 28.4988 40.5799C28.5218 41.11 28.3333 41.6275 27.9747 42.0186C27.6161 42.4097 27.1169 42.6424 26.5868 42.6654C26.0567 42.6884 25.5391 42.4999 25.148 42.1413L17.148 34.808C16.9435 34.6206 16.7802 34.3928 16.6685 34.1389C16.5568 33.885 16.4991 33.6107 16.4991 33.3333C16.4991 33.0559 16.5568 32.7816 16.6685 32.5277C16.7802 32.2739 16.9435 32.046 17.148 31.8586L25.148 24.5253C25.3417 24.3477 25.5684 24.21 25.8152 24.12C26.0621 24.03 26.3243 23.9896 26.5868 24.001C26.8493 24.0124 27.107 24.0754 27.3451 24.1864C27.5833 24.2974 27.7972 24.4542 27.9747 24.648ZM35.852 42.1413L41.2387 37.2026C40.3713 34.6899 40.3638 31.9601 41.2174 29.4426L35.852 24.5253C35.6584 24.3478 35.4317 24.2101 35.1848 24.1202C34.9379 24.0303 34.6758 23.9898 34.4133 24.0012C34.1508 24.0126 33.8932 24.0756 33.655 24.1866C33.4169 24.2975 33.2029 24.4543 33.0254 24.648C32.8478 24.8416 32.7102 25.0684 32.6202 25.3152C32.5303 25.5621 32.4899 25.8242 32.5013 26.0867C32.5127 26.3492 32.5757 26.6069 32.6866 26.845C32.7976 27.0831 32.9544 27.2971 33.148 27.4746L39.54 33.3333L33.148 39.192C32.7569 39.5505 32.5243 40.0498 32.5013 40.5799C32.4783 41.11 32.6668 41.6275 33.0254 42.0186C33.3839 42.4097 33.8832 42.6424 34.4133 42.6654C34.9434 42.6884 35.4609 42.4999 35.852 42.1413Z" fill="white"/>
</svg>
