<svg width="65" height="64" viewBox="0 0 65 64" fill="none" xmlns="http://www.w3.org/2000/svg">
<path d="M15.8333 5.33331C15.3029 5.33331 14.7942 5.54403 14.4191 5.9191C14.044 6.29417 13.8333 6.80288 13.8333 7.33331V38C13.8333 39.5913 14.4655 41.1174 15.5907 42.2426C16.7159 43.3678 18.242 44 19.8333 44H25.8333V52C25.8333 53.7681 26.5357 55.4638 27.7859 56.714C29.0362 57.9643 30.7319 58.6666 32.5 58.6666C34.2681 58.6666 35.9638 57.9643 37.214 56.714C38.4643 55.4638 39.1666 53.7681 39.1666 52V44H45.1666C45.9546 44 46.7348 43.8448 47.4627 43.5433C48.1907 43.2417 48.8521 42.7998 49.4093 42.2426C49.9664 41.6855 50.4084 41.024 50.7099 40.2961C51.0115 39.5681 51.1666 38.7879 51.1666 38V7.33331C51.1666 6.80288 50.9559 6.29417 50.5809 5.9191C50.2058 5.54403 49.6971 5.33331 49.1666 5.33331H15.8333ZM17.8333 29.3333V9.33331H33.8333V14.0053C33.8333 14.5357 34.044 15.0445 34.4191 15.4195C34.7942 15.7946 35.3029 16.0053 35.8333 16.0053C36.3637 16.0053 36.8725 15.7946 37.2475 15.4195C37.6226 15.0445 37.8333 14.5357 37.8333 14.0053V9.33331H40.5V16.6693C40.5 17.1997 40.7107 17.7085 41.0858 18.0835C41.4608 18.4586 41.9695 18.6693 42.5 18.6693C43.0304 18.6693 43.5391 18.4586 43.9142 18.0835C44.2893 17.7085 44.5 17.1997 44.5 16.6693V9.33331H47.1666V29.3333H17.8333ZM17.8333 38V33.3333H47.1666V38C47.1666 38.5304 46.9559 39.0391 46.5809 39.4142C46.2058 39.7893 45.6971 40 45.1666 40H37.1666C36.6362 40 36.1275 40.2107 35.7524 40.5858C35.3774 40.9608 35.1666 41.4695 35.1666 42V52C35.1666 52.7072 34.8857 53.3855 34.3856 53.8856C33.8855 54.3857 33.2072 54.6666 32.5 54.6666C31.7927 54.6666 31.1145 54.3857 30.6144 53.8856C30.1143 53.3855 29.8333 52.7072 29.8333 52V42C29.8333 41.4695 29.6226 40.9608 29.2475 40.5858C28.8725 40.2107 28.3637 40 27.8333 40H19.8333C19.3029 40 18.7942 39.7893 18.4191 39.4142C18.044 39.0391 17.8333 38.5304 17.8333 38Z" fill="white"/>
</svg>
