<svg width="65" height="64" viewBox="0 0 65 64" fill="none" xmlns="http://www.w3.org/2000/svg">
<path d="M29.8333 41.3333C32.3254 41.337 34.7561 40.5612 36.7853 39.1147L43.7533 46.08C43.9364 46.2765 44.1572 46.4341 44.4026 46.5434C44.6479 46.6527 44.9127 46.7115 45.1813 46.7162C45.4498 46.721 45.7166 46.6716 45.9656 46.571C46.2146 46.4704 46.4409 46.3207 46.6308 46.1308C46.8207 45.9409 46.9704 45.7146 47.071 45.4656C47.1716 45.2166 47.221 44.9498 47.2162 44.6813C47.2115 44.4127 47.1527 44.1479 47.0434 43.9026C46.9341 43.6572 46.7765 43.4364 46.58 43.2533L39.6147 36.2853C41.1731 34.0927 41.9496 31.44 41.8195 28.7531C41.6895 26.0661 40.6603 23.5009 38.8974 21.469C37.1344 19.4372 34.7399 18.0566 32.0981 17.5489C29.4564 17.0413 26.7207 17.436 24.3302 18.6697C21.9397 19.9034 20.0331 21.9045 18.9164 24.3519C17.7997 26.7992 17.5377 29.5507 18.1724 32.1649C18.8072 34.779 20.3019 37.104 22.4166 38.7667C24.5312 40.4294 27.1433 41.3333 29.8333 41.3333ZM29.8333 37.3333C28.7828 37.3333 27.7425 37.1264 26.7719 36.7244C25.8013 36.3223 24.9193 35.7331 24.1765 34.9902C23.4336 34.2473 22.8443 33.3654 22.4423 32.3948C22.0403 31.4242 21.8333 30.3839 21.8333 29.3333C21.8333 28.2828 22.0403 27.2425 22.4423 26.2719C22.8443 25.3013 23.4336 24.4193 24.1765 23.6765C24.9193 22.9336 25.8013 22.3443 26.7719 21.9423C27.7425 21.5403 28.7828 21.3333 29.8333 21.3333C31.9551 21.3333 33.9899 22.1762 35.4902 23.6765C36.9905 25.1768 37.8333 27.2116 37.8333 29.3333C37.8333 31.4551 36.9905 33.4899 35.4902 34.9902C33.9899 36.4905 31.9551 37.3333 29.8333 37.3333ZM17.1667 8C14.8681 8 12.6637 8.91309 11.0384 10.5384C9.41309 12.1637 8.5 14.3681 8.5 16.6667V47.3333C8.5 49.6319 9.41309 51.8363 11.0384 53.4616C12.6637 55.0869 14.8681 56 17.1667 56H47.8333C50.1319 56 52.3363 55.0869 53.9616 53.4616C55.5869 51.8363 56.5 49.6319 56.5 47.3333V16.6667C56.5 14.3681 55.5869 12.1637 53.9616 10.5384C52.3363 8.91309 50.1319 8 47.8333 8H17.1667ZM12.5 16.6667C12.5 14.0907 14.5907 12 17.1667 12H47.8333C50.4093 12 52.5 14.0907 52.5 16.6667V47.3333C52.5 48.571 52.0083 49.758 51.1332 50.6332C50.258 51.5083 49.071 52 47.8333 52H17.1667C15.929 52 14.742 51.5083 13.8668 50.6332C12.9917 49.758 12.5 48.571 12.5 47.3333V16.6667Z" fill="white"/>
</svg>
