<svg width="36" height="36" viewBox="0 0 36 36" fill="none" xmlns="http://www.w3.org/2000/svg">
<path fill-rule="evenodd" clip-rule="evenodd" d="M36 4C36 1.79086 34.2091 0 32 0H4C1.79086 0 0 1.79086 0 4V32C0 34.2091 1.79086 36 4 36H32C34.2091 36 36 34.2091 36 32V4ZM26.9017 21.1637C27.3524 21.5404 27.7928 22.0753 28.3803 22.0753H28.8286C29.7222 22.0753 30.4936 21.3142 30.1265 20.4994C30.0521 20.3343 29.9648 20.1758 29.8646 20.024C29.4828 19.4357 28.9393 18.9799 28.2341 18.6565C27.5289 18.3331 26.6932 18.1714 25.727 18.1714C24.7802 18.1714 23.9406 18.3312 23.2081 18.6507C22.4796 18.9701 21.9088 19.4163 21.4958 19.989C21.0867 20.5578 20.8841 21.2221 20.888 21.9818C20.8841 22.9169 21.1861 23.6552 21.7939 24.1968C22.4055 24.7344 23.2413 25.1182 24.301 25.3481L25.4932 25.6052C25.9374 25.7026 26.29 25.8078 26.551 25.9208C26.812 26.0299 26.9991 26.1546 27.112 26.2948C27.2289 26.4312 27.2893 26.5909 27.2932 26.774C27.2893 26.9689 27.227 27.1422 27.1062 27.2942C26.9854 27.4461 26.8081 27.565 26.5744 27.6507C26.3406 27.7364 26.0504 27.7792 25.7036 27.7792C25.2906 27.7792 24.9341 27.715 24.6341 27.5864C24.338 27.4578 24.1081 27.2689 23.9445 27.0195C23.6447 26.5626 23.2416 26.0961 22.6951 26.0961H22.171C21.2956 26.0961 20.5425 26.8264 20.8045 27.6617C20.9085 27.9933 21.0494 28.2935 21.227 28.5624C21.6555 29.2013 22.2555 29.6747 23.027 29.9825C23.8023 30.2903 24.7101 30.4442 25.7504 30.4442C26.7633 30.4442 27.6302 30.302 28.351 30.0176C29.0757 29.7331 29.6328 29.3182 30.0224 28.7727C30.412 28.2273 30.6088 27.5611 30.6127 26.774C30.6088 26.3182 30.5348 25.8974 30.3906 25.5117C30.2504 25.126 30.0302 24.7792 29.7302 24.4714C29.4302 24.1598 29.0445 23.889 28.5731 23.6591C28.1017 23.4292 27.5348 23.2442 26.8724 23.1039L25.8906 22.8935C25.6062 22.8351 25.3607 22.7689 25.1542 22.6948C24.9478 22.6208 24.7783 22.539 24.6458 22.4494C24.5133 22.3559 24.4159 22.2526 24.3536 22.1396C24.2952 22.0227 24.2698 21.8922 24.2776 21.7481C24.2815 21.5727 24.3341 21.4169 24.4354 21.2805C24.5367 21.1442 24.6926 21.037 24.903 20.9591C25.1172 20.8773 25.3919 20.8364 25.727 20.8364C26.2529 20.8364 26.6445 20.9455 26.9017 21.1637ZM19.3481 19.9364C19.3481 19.052 18.6312 18.3351 17.7468 18.3351C16.8624 18.3351 16.1455 19.052 16.1455 19.9364V26.5403C16.1416 26.8481 16.0968 27.1072 16.0111 27.3176C15.9254 27.524 15.7987 27.6799 15.6312 27.7851C15.4676 27.8903 15.265 27.9429 15.0234 27.9429C14.7857 27.9429 14.5831 27.8922 14.4156 27.7909C14.252 27.6857 14.1234 27.5299 14.0299 27.3234C13.8567 26.9242 13.5339 26.5637 13.0988 26.5637H12.2815C11.3675 26.5637 10.565 27.3307 10.8806 28.1885C10.9633 28.4132 11.0663 28.6196 11.1896 28.8078C11.5676 29.3805 12.0741 29.8013 12.7091 30.0702C13.3442 30.3351 14.0455 30.4676 14.813 30.4676C15.6974 30.4676 16.4786 30.3039 17.1565 29.9766C17.8383 29.6455 18.3721 29.1857 18.7578 28.5974C19.1474 28.0052 19.3442 27.3195 19.3481 26.5403V19.9364Z" fill="white"/>
</svg>
