<svg width="36" height="36" viewBox="0 0 36 36" fill="none" xmlns="http://www.w3.org/2000/svg">
<g clip-path="url(#clip0_201_484)">
<rect width="36" height="36" rx="4" fill="#0E489D"/>
<rect width="36" height="36" fill="#0E489D"/>
<path d="M16.1454 18.335H19.348V26.5402C19.3441 27.3194 19.1473 28.0052 18.7577 28.5974C18.372 29.1857 17.8382 29.6454 17.1564 29.9766C16.4785 30.3039 15.6973 30.4675 14.8129 30.4675C14.0454 30.4675 13.3441 30.335 12.709 30.0701C12.0739 29.8013 11.5674 29.3805 11.1895 28.8078C10.8116 28.2311 10.6246 27.4831 10.6285 26.5636H13.8778C13.8895 26.8636 13.9402 27.1168 14.0298 27.3233C14.1233 27.5298 14.2519 27.6857 14.4155 27.7909C14.583 27.8922 14.7856 27.9428 15.0233 27.9428C15.2648 27.9428 15.4674 27.8902 15.6311 27.785C15.7986 27.6798 15.9252 27.524 16.0109 27.3175C16.0967 27.1071 16.1415 26.848 16.1454 26.5402V18.335Z" fill="white"/>
<path d="M27.3398 22.0753C27.3087 21.6857 27.1626 21.3818 26.9015 21.1636C26.6444 20.9454 26.2528 20.8363 25.7269 20.8363C25.3918 20.8363 25.1171 20.8772 24.9028 20.959C24.6924 21.037 24.5366 21.1441 24.4353 21.2805C24.334 21.4168 24.2814 21.5727 24.2775 21.748C24.2697 21.8922 24.295 22.0227 24.3535 22.1396C24.4158 22.2526 24.5132 22.3558 24.6457 22.4493C24.7782 22.5389 24.9476 22.6207 25.1541 22.6948C25.3606 22.7688 25.6061 22.835 25.8905 22.8935L26.8723 23.1039C27.5346 23.2441 28.1015 23.4292 28.573 23.659C29.0444 23.8889 29.4301 24.1597 29.7301 24.4714C30.0301 24.7792 30.2502 25.1259 30.3905 25.5116C30.5346 25.8974 30.6087 26.3181 30.6126 26.774C30.6087 27.561 30.4119 28.2272 30.0223 28.7727C29.6327 29.3181 29.0756 29.7331 28.3509 30.0175C27.6301 30.3019 26.7632 30.4441 25.7502 30.4441C24.71 30.4441 23.8022 30.2902 23.0269 29.9824C22.2554 29.6746 21.6554 29.2013 21.2269 28.5623C20.8022 27.9194 20.5879 27.0974 20.584 26.0961H23.6697C23.6892 26.4623 23.7807 26.7701 23.9444 27.0194C24.108 27.2688 24.3379 27.4578 24.634 27.5863C24.934 27.7149 25.2905 27.7792 25.7035 27.7792C26.0502 27.7792 26.3405 27.7363 26.5743 27.6506C26.808 27.5649 26.9853 27.4461 27.1061 27.2941C27.2269 27.1422 27.2892 26.9688 27.2931 26.774C27.2892 26.5909 27.2288 26.4311 27.1119 26.2948C26.9989 26.1545 26.8119 26.0298 26.5509 25.9207C26.2898 25.8078 25.9372 25.7026 25.4931 25.6052L24.3009 25.348C23.2411 25.1181 22.4054 24.7344 21.7937 24.1967C21.1859 23.6552 20.884 22.9168 20.8879 21.9818C20.884 21.222 21.0866 20.5578 21.4957 19.9889C21.9087 19.4162 22.4795 18.9701 23.208 18.6506C23.9405 18.3311 24.7801 18.1714 25.7269 18.1714C26.6931 18.1714 27.5288 18.3331 28.234 18.6565C28.9392 18.9798 29.4827 19.4357 29.8645 20.024C30.2502 20.6084 30.445 21.2922 30.4489 22.0753H27.3398Z" fill="white"/>
</g>
<defs>
<clipPath id="clip0_201_484">
<rect width="36" height="36" rx="4" fill="white"/>
</clipPath>
</defs>
</svg>
