<svg width="96" height="96" viewBox="0 0 96 96" fill="none" xmlns="http://www.w3.org/2000/svg">
<path d="M48 96C21.5318 96 0 74.4682 0 48C0 21.5318 21.5318 0 48 0C74.4682 0 96 21.5318 96 48C96 74.4682 74.4682 96 48 96ZM48 0.595264C21.8657 0.595264 0.595264 21.8584 0.595264 48C0.595264 74.1343 21.8584 95.4047 48 95.4047C74.1416 95.4047 95.4047 74.1416 95.4047 48C95.3975 21.8584 74.1343 0.595264 48 0.595264Z" fill="#BBCADF"/>
<path d="M48.0003 91.3685C24.0874 91.3685 4.63184 71.913 4.63184 48.0001C4.63184 24.0872 24.0874 4.63171 48.0003 4.63171C71.9131 4.63171 91.3687 24.0872 91.3687 48.0001C91.3687 71.913 71.9131 91.3685 48.0003 91.3685ZM48.0003 5.82953C24.748 5.82953 5.82965 24.7479 5.82965 48.0001C5.82965 71.2524 24.748 90.1707 48.0003 90.1707C71.2525 90.1707 90.1708 71.2524 90.1708 48.0001C90.1636 24.7479 71.2525 5.82953 48.0003 5.82953Z" fill="#BBCADF"/>
<path d="M48 79.3176C30.7296 79.3176 16.6751 65.2631 16.6751 47.9927C16.6751 30.7223 30.7296 16.6678 48 16.6678C65.2704 16.6678 79.3249 30.7223 79.3249 47.9927C79.3249 65.2704 65.2704 79.3176 48 79.3176ZM48 17.8729C31.3902 17.8729 17.8802 31.3829 17.8802 47.9927C17.8802 64.6025 31.3902 78.1125 48 78.1125C64.6098 78.1125 78.1198 64.6025 78.1198 47.9927C78.1198 31.3901 64.6098 17.8729 48 17.8729Z" fill="#BBCADF"/>
<path d="M48 73.9382C33.6987 73.9382 22.0617 62.3012 22.0617 47.9999C22.0617 33.6986 33.6987 22.0543 48 22.0543C62.3013 22.0543 73.9455 33.6914 73.9455 47.9999C73.9383 62.3012 62.3013 73.9382 48 73.9382ZM48 22.6569C34.0254 22.6569 22.657 34.0253 22.657 47.9999C22.657 61.9745 34.0254 73.3429 48 73.3429C61.9746 73.3429 73.343 61.9745 73.343 47.9999C73.343 34.0253 61.9746 22.6569 48 22.6569Z" fill="#BBCADF"/>
<path d="M48.0002 64.1305C39.1001 64.1305 31.8623 56.8927 31.8623 47.9925C31.8623 39.0923 39.1001 31.8546 48.0002 31.8546C56.9004 31.8546 64.1382 39.0923 64.1382 47.9925C64.1382 56.8927 56.8932 64.1305 48.0002 64.1305ZM48.0002 33.0597C39.7679 33.0597 33.0674 39.7602 33.0674 47.9925C33.0674 56.2248 39.7679 62.9254 48.0002 62.9254C56.2325 62.9254 62.9331 56.2248 62.9331 47.9925C62.9331 39.7602 56.2325 33.0597 48.0002 33.0597Z" fill="#BBCADF"/>
<path d="M48 56.0145C43.5789 56.0145 39.9782 52.4137 39.9782 47.9927C39.9782 43.5716 43.5789 39.9709 48 39.9709C52.421 39.9709 56.0218 43.5716 56.0218 47.9927C56.0145 52.421 52.421 56.0145 48 56.0145ZM48 40.5807C43.9056 40.5807 40.5808 43.9128 40.5808 48C40.5808 52.0943 43.9056 55.4192 48 55.4192C52.0944 55.4192 55.4192 52.0943 55.4192 48C55.4192 43.9056 52.0871 40.5807 48 40.5807Z" fill="#BBCADF"/>
</svg>
