<svg width="29" height="29" viewBox="0 0 29 29" fill="none" xmlns="http://www.w3.org/2000/svg">
<path d="M17.0518 26.6146L17.0518 17.0518L26.6146 17.0518C27.818 17.0518 28.8065 16.0633 28.8065 14.8599C28.8065 13.6564 27.818 12.6679 26.6146 12.6679L17.0518 12.668L17.0518 3.10509C17.0518 1.90167 16.0633 0.91318 14.8599 0.91318C13.6564 0.91318 12.668 1.90167 12.668 3.10509L12.6679 12.6679L3.10509 12.668C1.90168 12.668 0.913182 13.6564 0.913181 14.8599C0.913182 16.0633 1.90168 17.0518 3.10509 17.0518L12.668 17.0518L12.6679 26.6146C12.6679 27.818 13.6565 28.8065 14.8599 28.8065C16.0633 28.8065 17.0518 27.818 17.0518 26.6146Z" fill="#E3E7FA"/>
</svg>
