<svg width="19" height="19" viewBox="0 0 19 19" fill="none" xmlns="http://www.w3.org/2000/svg">
<path d="M17.508 8.32998L11.2147 8.32996L11.2147 2.03671C11.2147 1.24475 10.5642 0.594229 9.7722 0.594229C8.98024 0.594229 8.3297 1.24477 8.3297 2.03673L8.32972 8.32998L2.03645 8.32998C1.24449 8.32998 0.59397 8.9805 0.59397 9.77246C0.59397 10.5644 1.24449 11.2149 2.03645 11.2149L8.3297 11.215L8.32972 17.5082C8.32972 18.3002 8.98024 18.9507 9.7722 18.9507C10.5642 18.9507 11.2147 18.3002 11.2147 17.5082V11.2149L17.5079 11.215C18.2999 11.215 18.9504 10.5644 18.9504 9.77246C18.9504 8.9805 18.2999 8.32998 17.508 8.32998Z" fill="#889EFA"/>
</svg>
