<svg width="19" height="19" viewBox="0 0 19 19" fill="none" xmlns="http://www.w3.org/2000/svg">
<path d="M17.508 8.32973L11.2147 8.32971L11.2147 2.03647C11.2147 1.24451 10.5642 0.593985 9.7722 0.593985C8.98024 0.593985 8.3297 1.24453 8.3297 2.03649L8.32972 8.32973L2.03645 8.32973C1.24449 8.32973 0.59397 8.98026 0.59397 9.77222C0.59397 10.5642 1.24449 11.2147 2.03645 11.2147L8.3297 11.2147L8.32972 17.508C8.32972 18.2999 8.98024 18.9504 9.7722 18.9504C10.5642 18.9504 11.2147 18.2999 11.2147 17.508V11.2147L17.5079 11.2147C18.2999 11.2147 18.9504 10.5642 18.9504 9.77222C18.9504 8.98026 18.2999 8.32973 17.508 8.32973Z" fill="#E3E7FA"/>
</svg>
