<svg width="67" height="67" viewBox="0 0 67 67" fill="none" xmlns="http://www.w3.org/2000/svg">
<path d="M66.3529 33.4916C66.3529 51.7889 51.5196 66.6222 33.2222 66.6222C14.9248 66.6222 0.0915527 51.7889 0.0915527 33.4916C0.0915527 15.1942 14.9248 0.360901 33.2222 0.360901C51.5196 0.360901 66.3529 15.1942 66.3529 33.4916Z" fill="#889EFA"/>
<path d="M40.694 26.1265V28.5041L50.8921 32.4294L40.694 36.354V38.7315L53.5279 33.6608V31.1972L40.694 26.1265Z" fill="white"/>
<path d="M27.8881 45.3206H30.3805L39.8348 18.3347H37.3425L27.8881 45.3206Z" fill="white"/>
<path d="M26.7714 26.1265L13.9369 31.1972V33.6608L26.7714 38.7315V36.354L16.6013 32.4294L26.7714 28.5041V26.1265Z" fill="white"/>
</svg>
