<svg width="89" height="89" viewBox="0 0 89 89" fill="none" xmlns="http://www.w3.org/2000/svg">
<path d="M80.6674 44.3812C80.6901 47.6226 80.2736 50.8115 79.4603 53.8721L86.0009 59.8641L78.7231 72.6082L70.2387 70.0195C68.0159 72.2756 65.4816 74.254 62.6775 75.8822L63.0654 84.7399L48.9082 88.6049L44.741 80.7795C41.4989 80.8024 38.31 80.386 35.2491 79.5719L29.2575 86.1116L16.5137 78.8344L19.1021 70.3494C16.846 68.1266 14.8677 65.5923 13.2404 62.7886L4.38177 63.1761L0.516716 49.0188L8.34216 44.8517C8.31929 41.6096 8.73594 38.4214 9.55004 35.3605L3.01008 29.3682L10.2873 16.6244L18.7725 19.2135C20.9949 16.9583 23.5296 14.979 26.3333 13.3518L25.9456 4.49246L40.1028 0.627387L44.2693 8.45308C47.5107 8.43046 50.7005 8.84731 53.7614 9.66141L59.7534 3.12075L72.4966 10.3982L69.9081 18.8832C72.1643 21.106 74.1433 23.64 75.7705 26.4437L84.6292 26.0563L88.4943 40.2135L80.6674 44.3812ZM65.1228 39.6795C62.0406 28.3902 50.3901 21.7363 39.1002 24.8187C27.8109 27.9009 21.1577 39.5511 24.2398 50.8404C27.322 62.1297 38.9725 68.7836 50.2617 65.7014C61.5517 62.619 68.2049 50.9688 65.1228 39.6795Z" fill="#D1D7FA"/>
</svg>
