<svg width="121" height="121" viewBox="0 0 121 121" fill="none" xmlns="http://www.w3.org/2000/svg">
<path d="M98.9024 92.3478C96.0305 95.8008 92.7403 98.8041 89.1444 101.317L90.7155 113.506L71.6229 120.496L64.9529 110.175C60.5841 110.578 56.1313 110.408 51.7083 109.626L44.2043 119.351L25.7613 110.793L28.3419 98.7845C24.8884 95.9117 21.8854 92.6208 19.3718 89.024L7.18365 90.5947L0.193848 71.5028L10.5157 64.8323C10.1132 60.4634 10.2823 56.0114 11.065 51.5887L1.33914 44.0841L9.89687 25.6411L21.9055 28.221C24.7781 24.7683 28.0692 21.7646 31.6658 19.2517L30.0947 7.06254L49.1873 0.072998L55.8575 10.3956C60.2261 9.99374 64.6783 10.1622 69.1004 10.9446L76.6059 1.21829L95.0486 9.7767L92.4678 21.7858C95.9206 24.6584 98.9245 27.9488 101.438 31.5456L113.627 29.9742L120.616 49.0662L110.295 55.7376C110.697 60.1064 110.527 64.5579 109.745 68.9802L119.471 76.4855L110.913 94.9285L98.9024 92.3478ZM86.6457 73.4797C93.4695 58.7727 87.0787 41.3182 72.3719 34.4936C57.6651 27.669 40.2106 34.0598 33.3867 48.7669C26.5622 63.4737 32.9523 80.928 47.6591 87.7525C62.3659 94.5771 79.8211 88.1865 86.6457 73.4797Z" fill="#D1D7FA"/>
</svg>
