<svg width="25" height="25" viewBox="0 0 25 25" fill="none" xmlns="http://www.w3.org/2000/svg">
<path d="M19.3509 5.32227C19.9627 5.94772 20.4781 6.64604 20.8935 7.39316L23.2878 7.33326L24.2597 11.1732L22.126 12.2597C22.1166 13.1146 21.9944 13.9739 21.754 14.8157L23.489 16.465L21.4611 19.8678L19.1846 19.1273C18.5585 19.7388 17.8613 20.2554 17.1135 20.6705L17.1737 23.0642L13.3337 24.036L12.2473 21.9024C11.3923 21.893 10.5324 21.7705 9.69124 21.5304L8.04214 23.2647L4.63934 21.2367L5.37962 18.961C4.7681 18.3349 4.25174 17.637 3.83638 16.8899L1.44271 16.9501L0.470192 13.1099L2.60451 12.0236C2.61396 11.1686 2.73641 10.3088 2.97655 9.46761L1.24152 7.81826L3.26949 4.41545L5.5459 5.15599C6.17205 4.54447 6.86992 4.0281 7.61702 3.61275L7.55687 1.21908L11.3971 0.24656L12.4833 2.3809C13.3383 2.39033 14.1975 2.51253 15.0386 2.75267L16.6887 1.01789L20.0915 3.04586L19.3509 5.32227ZM15.4485 7.32001C12.7344 5.70279 9.22334 6.5912 7.60612 9.3053C5.9889 12.0194 6.87733 15.5304 9.59143 17.1476C12.3055 18.7649 15.8165 17.8764 17.4338 15.1624C19.051 12.4483 18.1626 8.93721 15.4485 7.32001Z" fill="#889EFA"/>
</svg>
