<svg width="52" height="52" viewBox="0 0 52 52" fill="none" xmlns="http://www.w3.org/2000/svg">
<path d="M42.577 39.471C41.3512 40.945 39.9476 42.2263 38.4127 43.299L39.0831 48.5013L30.9347 51.4845L28.0875 47.0797C26.2224 47.2516 24.3229 47.1791 22.4351 46.8453L19.2323 50.9959L11.3604 47.3435L12.4618 42.218C10.9881 40.9916 9.70633 39.587 8.6336 38.0521L3.43204 38.7228L0.448769 30.5744L4.85366 27.7272C4.68174 25.8621 4.75493 23.9628 5.08867 22.075L0.937467 18.8719L4.58954 11.0008L9.71505 12.1022C10.9415 10.6284 12.3453 9.34646 13.8803 8.27372L13.2098 3.07147L21.359 0.0884628L24.2059 4.49403C26.07 4.32255 27.9698 4.39435 29.8576 4.7281L33.0607 0.576896L40.9323 4.22993L39.8309 9.35542C41.3039 10.5816 42.5866 11.9857 43.6593 13.5206L48.8616 12.8502L51.8449 20.9986L47.4393 23.8456C47.6112 25.7107 47.538 27.6099 47.2043 29.4977L51.3555 32.7008L47.7034 40.572L42.577 39.471ZM37.3461 31.4181C40.2586 25.1415 37.5306 17.6918 31.2539 14.7793C24.9773 11.8668 17.5279 14.5941 14.6154 20.8707C11.7028 27.1474 14.4302 34.5968 20.7068 37.5093C26.9835 40.4218 34.4336 37.6947 37.3461 31.4181Z" fill="#889EFA"/>
</svg>
