<svg width="31" height="31" viewBox="0 0 31 31" fill="none" xmlns="http://www.w3.org/2000/svg">
<path d="M27.7013 15.2668C27.7092 16.362 27.5679 17.439 27.2928 18.4732L29.5032 20.4981L27.0444 24.8041L24.1775 23.9293C23.4263 24.6919 22.5695 25.3607 21.6223 25.9106L21.753 28.9034L16.9694 30.2096L15.5618 27.5653C14.4663 27.5726 13.389 27.4322 12.3548 27.1571L10.3303 29.3666L6.02429 26.9077L6.89842 24.0411C6.13653 23.2896 5.46798 22.4336 4.91808 21.4864L1.92458 21.6173L0.619097 16.8335L3.26334 15.4259C3.25607 14.3304 3.39641 13.253 3.67155 12.2188L1.46115 10.1939L3.92064 5.88765L6.78755 6.76247C7.539 6.00058 8.39507 5.33204 9.34228 4.78213L9.21135 1.78864L13.9942 0.482708L15.4025 3.12671C16.4977 3.11874 17.5753 3.25976 18.6096 3.53492L20.6341 1.32545L24.94 3.78425L24.0652 6.65117C24.8271 7.40263 25.4964 8.25843 26.0463 9.20564L29.0398 9.07471L30.3452 13.8585L27.7013 15.2668ZM22.4484 13.6782C21.4072 9.86373 17.4703 7.6154 13.6559 8.6566C9.84146 9.69779 7.59313 13.6347 8.63433 17.4491C9.67551 21.2636 13.6124 23.5119 17.4268 22.4707C21.2413 21.4295 23.4896 17.4926 22.4484 13.6782Z" fill="#889EFA"/>
</svg>
