<svg width="42" height="43" viewBox="0 0 42 43" fill="none" xmlns="http://www.w3.org/2000/svg">
<path d="M22.6841 4.69712C24.2087 4.84391 25.6864 5.19431 27.0852 5.72544L30.2191 2.94279L35.8537 6.98129L34.2255 10.8427C35.1777 11.9968 35.9843 13.2841 36.613 14.6803L40.7945 14.9281L41.9228 21.7685L38.0431 23.3466C37.8963 24.8712 37.5462 26.3495 37.015 27.7483L39.7974 30.8815L35.7582 36.5164L31.8969 34.8882C30.7427 35.8404 29.4561 36.6468 28.0599 37.2754L27.8114 41.4572L20.971 42.5855L19.3929 38.7058C17.8683 38.559 16.3907 38.2086 14.9919 37.6774L11.858 40.4601L6.22312 36.4209L7.85199 32.5593C6.8998 31.4051 6.09343 30.1185 5.46478 28.7223L1.28303 28.4738L0.153977 21.6337L4.03374 20.0556C4.18053 18.531 4.5316 17.0532 5.06276 15.6543L2.28034 12.5211L6.31862 6.88579L10.1802 8.51467C11.3344 7.56247 12.6217 6.75588 14.0179 6.12721L14.2657 1.94572L21.1058 0.816657L22.6841 4.69712ZM19.7201 11.7733C14.2655 12.6731 10.5727 17.8242 11.4728 23.2794C12.3726 28.734 17.525 32.4263 22.9796 31.5265C28.4341 30.6267 32.126 25.4752 31.2262 20.0206C30.3262 14.5654 25.1746 10.8735 19.7201 11.7733Z" fill="#889EFA"/>
</svg>
