<svg width="320" height="320" viewBox="0 0 320 320" fill="none" xmlns="http://www.w3.org/2000/svg">
<g id="illustration">
<path id="Vector" d="M61.7696 256.309C61.7811 257.945 61.5709 259.554 61.1604 261.099L64.4615 264.123L60.7883 270.555L56.5062 269.249C55.3844 270.387 54.1053 271.386 52.6901 272.208L52.8858 276.678L45.7406 278.629L43.6374 274.679C42.0011 274.691 40.3917 274.481 38.8469 274.07L35.8229 277.37L29.391 273.698L30.6974 269.415C29.5588 268.293 28.5603 267.014 27.739 265.599L23.268 265.795L21.3173 258.65L25.2668 256.546C25.2553 254.91 25.4656 253.301 25.8765 251.756L22.5757 248.732L26.2485 242.3L30.5311 243.607C31.6527 242.469 32.932 241.47 34.347 240.648L34.1514 236.177L41.2965 234.226L43.3994 238.176C45.0353 238.164 46.6452 238.375 48.1901 238.786L51.2143 235.485L57.6458 239.158L56.3394 243.44C57.4781 244.562 58.4769 245.841 59.2982 247.256L63.7692 247.06L65.7199 254.205L61.7696 256.309ZM53.9242 253.936C52.3686 248.238 46.4886 244.88 40.7905 246.436C35.0928 247.991 31.7349 253.871 33.2904 259.569C34.846 265.267 40.7261 268.625 46.4238 267.069C52.1219 265.514 55.4798 259.634 53.9242 253.936Z" fill="#D1D7FA"/>
<path id="Vector_2" d="M301.521 108.373C301.525 108.926 301.454 109.469 301.315 109.991L302.43 111.013L301.189 113.187L299.742 112.745C299.363 113.13 298.931 113.467 298.453 113.745L298.519 115.255L296.104 115.915L295.394 114.58C294.841 114.584 294.297 114.513 293.775 114.374L292.754 115.489L290.58 114.248L291.022 112.801C290.637 112.422 290.3 111.99 290.022 111.512L288.511 111.578L287.852 109.164L289.187 108.453C289.183 107.9 289.254 107.357 289.393 106.835L288.277 105.813L289.519 103.639L290.966 104.081C291.345 103.696 291.777 103.359 292.255 103.081L292.189 101.571L294.603 100.911L295.314 102.246C295.866 102.242 296.41 102.313 296.932 102.452L297.954 101.337L300.127 102.578L299.686 104.025C300.07 104.404 300.408 104.836 300.686 105.314L302.196 105.248L302.855 107.662L301.521 108.373ZM298.87 107.571C298.344 105.646 296.357 104.511 294.432 105.037C292.507 105.562 291.372 107.549 291.898 109.474C292.423 111.4 294.41 112.534 296.335 112.009C298.26 111.483 299.395 109.496 298.87 107.571Z" fill="#889EFA"/>
<path id="Vector_3" d="M282.279 96.3632C281.661 97.1072 280.952 97.7538 280.178 98.2953L280.516 100.921L276.403 102.427L274.966 100.203C274.025 100.29 273.066 100.254 272.114 100.085L270.497 102.18L266.524 100.337L267.08 97.7497C266.336 97.1307 265.689 96.4218 265.148 95.6471L262.523 95.9856L261.017 91.8731L263.24 90.4361C263.153 89.4948 263.19 88.5362 263.359 87.5834L261.264 85.9668L263.107 81.9942L265.694 82.5501C266.313 81.8063 267.021 81.1593 267.796 80.6179L267.458 77.9923L271.571 76.4867L273.007 78.7102C273.948 78.6237 274.907 78.6599 275.86 78.8284L277.476 76.7332L281.449 78.5769L280.893 81.1638C281.637 81.7827 282.284 82.4913 282.826 83.266L285.451 82.9276L286.957 87.0402L284.733 88.477C284.82 89.4183 284.783 90.3769 284.615 91.3297L286.71 92.9463L284.867 96.9189L282.279 96.3632ZM279.639 92.2989C281.109 89.1311 279.732 85.3712 276.565 83.9012C273.397 82.4313 269.637 83.8078 268.167 86.9756C266.697 90.1435 268.074 93.9032 271.241 95.3732C274.409 96.8431 278.169 95.4668 279.639 92.2989Z" fill="#889EFA"/>
<path id="Vector_4" d="M102.769 84.6929C101.32 86.4357 99.6592 87.9514 97.8443 89.2198L98.6373 95.3717L89.0012 98.8993L85.6348 93.6903C83.4298 93.8935 81.1825 93.808 78.9502 93.4133L75.1629 98.3213L65.8546 94.0022L67.1571 87.9415C65.4141 86.4916 63.8985 84.8307 62.6299 83.0154L56.4784 83.8081L52.9507 74.1723L58.1602 70.8057C57.957 68.6007 58.0424 66.3538 58.4374 64.1216L53.5287 60.334L57.8478 51.0258L63.9086 52.3279C65.3584 50.5853 67.0195 49.0693 68.8347 47.801L68.0417 41.6491L77.6778 38.1215L81.0443 43.3313C83.2491 43.1285 85.4962 43.2135 87.728 43.6084L91.5161 38.6995L100.824 43.019L99.5217 49.08C101.264 50.5298 102.78 52.1905 104.049 54.0058L110.201 53.2127L113.728 62.8485L108.519 66.2156C108.722 68.4205 108.636 70.6672 108.242 72.8992L113.15 76.6871L108.831 85.9954L102.769 84.6929ZM96.5832 75.1701C100.027 67.7474 96.8018 58.9381 89.3792 55.4937C81.9566 52.0493 73.1473 55.2748 69.7032 62.6975C66.2589 70.12 69.484 78.9293 76.9065 82.3736C84.3291 85.818 93.1388 82.5927 96.5832 75.1701Z" fill="#D1D7FA"/>
<g id="Group 1">
<g id="Group">
<g id="Group_2">
<g id="Group_3">
<g id="Group_4">
<path id="Vector_5" d="M189.276 234.105L188.082 217.993H156.053L154.851 234.218C154.717 236.026 154.192 237.766 153.332 239.33H190.857C189.96 237.739 189.413 235.958 189.276 234.105Z" fill="#051351"/>
</g>
</g>
<g id="Group_5">
<path id="Vector_6" d="M197.59 239.33H146.598C145.929 239.33 145.387 239.872 145.387 240.541V244.086C145.387 244.755 145.929 245.297 146.598 245.297H197.59C198.259 245.297 198.801 244.755 198.801 244.086V240.541C198.801 239.872 198.259 239.33 197.59 239.33Z" fill="#071A6C"/>
</g>
</g>
</g>
<g id="Group_6">
<g id="Group_7">
<path id="Vector_7" d="M91.0449 206.34V216.635C91.0449 219.519 93.3832 221.857 96.2673 221.857H251.738C254.622 221.857 256.96 219.519 256.96 216.635V206.34H91.0449Z" fill="#071A6C"/>
</g>
<g id="Group_8">
<g id="Group_9">
<path id="Vector_8" d="M251.738 107.567H96.2673C93.3832 107.567 91.0449 109.905 91.0449 112.789V206.34H256.96V112.789C256.96 109.905 254.622 107.567 251.738 107.567Z" fill="#051351"/>
</g>
<g id="Group_10">
<path id="Vector_9" d="M249.5 199.775H97.9084V114.132H249.5V199.775Z" fill="#E3E7FA"/>
</g>
</g>
</g>
</g>
<g id="Group_11">
<g id="Group_12">
<g id="Group_13">
<g id="Group_14">
<path id="Vector_10" d="M108.913 270.26L109.021 272.605L234.643 272.932L234.761 270.314C234.778 270.238 234.72 270.166 234.643 270.166L230.772 270.157L108.913 270.26Z" fill="#071A6C"/>
</g>
<g id="Group_15">
<g id="Group_16">
<g id="Group_17">
<path id="Vector_11" d="M234.804 270.261L219.122 251.809L124.581 251.901L108.913 270.261H234.804Z" fill="#071A6C"/>
</g>
</g>
<g id="Group_18">
<g id="Group_19">
<path id="Vector_12" d="M124.558 253.595H129.915C130.077 253.595 130.244 253.546 130.289 253.484L131.106 252.363C131.148 252.305 131.055 252.257 130.898 252.257H125.666C125.508 252.257 125.341 252.305 125.292 252.363L124.359 253.484C124.308 253.546 124.397 253.595 124.558 253.595Z" fill="white"/>
</g>
<g id="Group_20">
<path id="Vector_13" d="M131.436 253.595H136.793C136.954 253.595 137.116 253.546 137.153 253.484L137.835 252.363C137.871 252.305 137.772 252.257 137.615 252.257H132.383C132.225 252.257 132.064 252.305 132.022 252.363L131.223 253.484C131.179 253.546 131.274 253.595 131.436 253.595Z" fill="white"/>
</g>
<g id="Group_21">
<path id="Vector_14" d="M138.314 253.595H143.671C143.832 253.595 143.988 253.546 144.017 253.484L144.565 252.363C144.593 252.305 144.489 252.257 144.331 252.257H139.1C138.942 252.257 138.786 252.305 138.751 252.363L138.087 253.484C138.051 253.546 138.152 253.595 138.314 253.595Z" fill="white"/>
</g>
<g id="Group_22">
<path id="Vector_15" d="M145.192 253.595H150.549C150.71 253.595 150.859 253.546 150.882 253.484L151.295 252.363C151.316 252.305 151.206 252.257 151.048 252.257H145.816C145.659 252.257 145.509 252.305 145.481 252.363L144.952 253.484C144.923 253.546 145.03 253.595 145.192 253.595Z" fill="white"/>
</g>
<g id="Group_23">
<path id="Vector_16" d="M152.069 253.595H157.426C157.588 253.595 157.731 253.546 157.746 253.484L158.024 252.363C158.038 252.305 157.923 252.257 157.765 252.257H152.533C152.376 252.257 152.231 252.305 152.211 252.363L151.816 253.484C151.794 253.546 151.908 253.595 152.069 253.595Z" fill="white"/>
</g>
<g id="Group_24">
<path id="Vector_17" d="M158.947 253.595H164.304C164.466 253.595 164.603 253.546 164.61 253.484L164.754 252.363C164.761 252.305 164.639 252.257 164.482 252.257H159.25C159.093 252.257 158.954 252.305 158.94 252.363L158.68 253.484C158.666 253.546 158.785 253.595 158.947 253.595Z" fill="white"/>
</g>
<g id="Group_25">
<path id="Vector_18" d="M165.825 253.595H171.182C171.343 253.595 171.475 253.546 171.475 253.484L171.483 252.363C171.484 252.305 171.357 252.257 171.199 252.257H165.967C165.81 252.257 165.677 252.305 165.67 252.363L165.545 253.484C165.538 253.546 165.663 253.595 165.825 253.595Z" fill="white"/>
</g>
<g id="Group_26">
<path id="Vector_19" d="M172.702 253.595H178.059C178.221 253.595 178.346 253.546 178.339 253.484L178.213 252.363C178.206 252.305 178.073 252.257 177.915 252.257H172.684C172.526 252.257 172.399 252.305 172.399 252.363L172.409 253.484C172.41 253.546 172.541 253.595 172.702 253.595Z" fill="white"/>
</g>
<g id="Group_27">
<path id="Vector_20" d="M179.58 253.595H184.937C185.098 253.595 185.218 253.546 185.204 253.484L184.942 252.363C184.928 252.305 184.79 252.257 184.632 252.257H179.401C179.243 252.257 179.121 252.305 179.129 252.363L179.274 253.484C179.281 253.546 179.418 253.595 179.58 253.595Z" fill="white"/>
</g>
<g id="Group_28">
<path id="Vector_21" d="M186.458 253.595H191.815C191.977 253.595 192.089 253.546 192.068 253.484L191.672 252.363C191.651 252.305 191.506 252.257 191.349 252.257H186.117C185.96 252.257 185.844 252.305 185.859 252.363L186.138 253.484C186.153 253.546 186.296 253.595 186.458 253.595Z" fill="white"/>
</g>
<g id="Group_29">
<path id="Vector_22" d="M193.336 253.595H198.692C198.854 253.595 198.961 253.546 198.932 253.484L198.402 252.363C198.374 252.305 198.223 252.257 198.066 252.257H192.834C192.677 252.257 192.566 252.305 192.588 252.363L193.002 253.484C193.025 253.546 193.174 253.595 193.336 253.595Z" fill="white"/>
</g>
<g id="Group_30">
<path id="Vector_23" d="M200.213 253.595H205.57C205.732 253.595 205.833 253.546 205.797 253.484L205.131 252.363C205.096 252.305 204.94 252.257 204.783 252.257H199.551C199.394 252.257 199.289 252.305 199.318 252.363L199.867 253.484C199.897 253.546 200.052 253.595 200.213 253.595Z" fill="white"/>
</g>
<g id="Group_31">
<path id="Vector_24" d="M207.091 253.595H212.448C212.61 253.595 212.705 253.546 212.661 253.484L211.861 252.363C211.819 252.305 211.657 252.257 211.5 252.257H206.268C206.111 252.257 206.012 252.305 206.048 252.363L206.731 253.484C206.769 253.546 206.93 253.595 207.091 253.595Z" fill="white"/>
</g>
<g id="Group_32">
<path id="Vector_25" d="M213.969 253.595H219.326C219.487 253.595 219.576 253.546 219.525 253.484L218.591 252.363C218.542 252.305 218.374 252.257 218.217 252.257H212.985C212.827 252.257 212.734 252.305 212.777 252.363L213.595 253.484C213.64 253.546 213.807 253.595 213.969 253.595Z" fill="white"/>
</g>
<g id="Group_33">
<path id="Vector_26" d="M122.427 256.107H127.816C127.985 256.107 128.161 256.053 128.21 255.986L129.622 254.062C129.667 253.999 129.573 253.949 129.41 253.949H124.216C124.054 253.949 123.88 253.999 123.828 254.062L122.223 255.986C122.167 256.053 122.259 256.107 122.427 256.107Z" fill="white"/>
</g>
<g id="Group_34">
<path id="Vector_27" d="M129.348 256.107H134.737C134.906 256.107 135.075 256.053 135.117 255.986L136.306 254.062C136.344 253.999 136.243 253.949 136.081 253.949H130.887C130.724 253.949 130.557 253.999 130.512 254.062L129.13 255.986C129.082 256.053 129.18 256.107 129.348 256.107Z" fill="white"/>
</g>
<g id="Group_35">
<path id="Vector_28" d="M136.269 256.107H141.658C141.826 256.107 141.99 256.053 142.023 255.986L142.989 254.062C143.02 253.999 142.914 253.949 142.751 253.949H137.557C137.395 253.949 137.233 253.999 137.195 254.062L136.036 255.986C135.996 256.053 136.1 256.107 136.269 256.107Z" fill="white"/>
</g>
<g id="Group_36">
<path id="Vector_29" d="M143.189 256.107H148.578C148.747 256.107 148.904 256.053 148.93 255.986L149.673 254.062C149.697 253.999 149.584 253.949 149.422 253.949H144.228C144.065 253.949 143.909 253.999 143.879 254.062L142.943 255.986C142.911 256.053 143.021 256.107 143.189 256.107Z" fill="white"/>
</g>
<g id="Group_37">
<path id="Vector_30" d="M150.562 254.062L149.85 255.986C149.825 256.053 149.941 256.107 150.11 256.107H155.499C155.667 256.107 155.819 256.053 155.837 255.986L156.356 254.062C156.372 253.999 156.254 253.949 156.092 253.949H150.898C150.736 253.949 150.585 253.999 150.562 254.062Z" fill="white"/>
</g>
<g id="Group_38">
<path id="Vector_31" d="M162.763 253.949H157.569C157.406 253.949 157.261 253.999 157.246 254.062L156.756 255.986C156.739 256.053 156.862 256.107 157.031 256.107H162.42C162.588 256.107 162.733 256.053 162.743 255.986L163.039 254.062C163.049 253.999 162.925 253.949 162.763 253.949Z" fill="white"/>
</g>
<g id="Group_39">
<path id="Vector_32" d="M169.433 253.949H164.239C164.076 253.949 163.938 253.999 163.929 254.062L163.663 255.986C163.654 256.053 163.782 256.107 163.951 256.107H169.34C169.509 256.107 169.647 256.053 169.65 255.986L169.723 254.062C169.725 253.999 169.595 253.949 169.433 253.949Z" fill="white"/>
</g>
<g id="Group_40">
<path id="Vector_33" d="M176.104 253.949H170.909C170.747 253.949 170.614 253.999 170.613 254.062L170.569 255.986C170.568 256.053 170.703 256.107 170.872 256.107H176.261C176.429 256.107 176.562 256.053 176.557 255.986L176.406 254.062C176.401 253.999 176.266 253.949 176.104 253.949Z" fill="white"/>
</g>
<g id="Group_41">
<path id="Vector_34" d="M183.182 256.107C183.35 256.107 183.476 256.053 183.463 255.986L183.09 254.062C183.078 253.999 182.936 253.949 182.774 253.949H177.58C177.418 253.949 177.29 253.999 177.296 254.062L177.476 255.986C177.482 256.053 177.624 256.107 177.792 256.107H183.182Z" fill="white"/>
</g>
<g id="Group_42">
<path id="Vector_35" d="M190.102 256.107C190.271 256.107 190.391 256.053 190.37 255.986L189.773 254.062C189.754 253.999 189.607 253.949 189.444 253.949H184.25C184.088 253.949 183.967 253.999 183.98 254.062L184.383 255.986C184.397 256.053 184.545 256.107 184.713 256.107H190.102Z" fill="white"/>
</g>
<g id="Group_43">
<path id="Vector_36" d="M196.115 253.949H190.921C190.759 253.949 190.643 253.999 190.663 254.062L191.29 255.986C191.311 256.053 191.465 256.107 191.634 256.107H197.023C197.191 256.107 197.305 256.053 197.276 255.986L196.457 254.062C196.43 253.999 196.277 253.949 196.115 253.949Z" fill="white"/>
</g>
<g id="Group_44">
<path id="Vector_37" d="M202.785 253.949H197.591C197.429 253.949 197.32 253.999 197.347 254.062L198.196 255.986C198.225 256.053 198.386 256.107 198.554 256.107H203.943C204.112 256.107 204.219 256.053 204.183 255.986L203.14 254.062C203.107 253.999 202.948 253.949 202.785 253.949Z" fill="white"/>
</g>
<g id="Group_45">
<path id="Vector_38" d="M210.864 256.107C211.033 256.107 211.134 256.053 211.09 255.986L209.824 254.062C209.783 253.999 209.618 253.949 209.456 253.949H204.262C204.099 253.949 203.996 253.999 204.03 254.062L205.103 255.986C205.14 256.053 205.307 256.107 205.475 256.107H210.864Z" fill="white"/>
</g>
<g id="Group_46">
<path id="Vector_39" d="M219.864 254.062C219.812 253.999 219.639 253.949 219.476 253.949H211.024C210.861 253.949 210.764 253.999 210.806 254.062L212.104 255.986C212.149 256.053 212.322 256.107 212.491 256.107H221.261C221.429 256.107 221.521 256.053 221.465 255.986L219.864 254.062Z" fill="white"/>
</g>
<g id="Group_47">
<path id="Vector_40" d="M221.588 256.503H216.164C215.994 256.503 215.897 256.558 215.946 256.626L217.484 258.729C217.538 258.802 217.724 258.861 217.9 258.861H223.537C223.714 258.861 223.807 258.802 223.747 258.729L221.997 256.626C221.941 256.558 221.758 256.503 221.588 256.503Z" fill="white"/>
</g>
<g id="Group_48">
<path id="Vector_41" d="M216.522 258.729L215.017 256.626C214.968 256.558 214.791 256.503 214.622 256.503H209.197C209.027 256.503 208.923 256.558 208.965 256.626L210.26 258.729C210.305 258.802 210.484 258.861 210.66 258.861H216.298C216.474 258.861 216.575 258.802 216.522 258.729Z" fill="white"/>
</g>
<g id="Group_49">
<path id="Vector_42" d="M201.985 256.626L203.035 258.729C203.071 258.802 203.244 258.861 203.42 258.861H209.058C209.234 258.861 209.341 258.802 209.297 258.729L208.036 256.626C207.995 256.558 207.825 256.503 207.655 256.503H202.23C202.061 256.503 201.951 256.558 201.985 256.626Z" fill="white"/>
</g>
<g id="Group_50">
<path id="Vector_43" d="M195.004 256.626L195.81 258.729C195.839 258.802 196.004 258.861 196.18 258.861H201.818C201.994 258.861 202.108 258.802 202.073 258.729L201.055 256.626C201.022 256.558 200.858 256.503 200.689 256.503H195.264C195.094 256.503 194.978 256.558 195.004 256.626Z" fill="white"/>
</g>
<g id="Group_51">
<path id="Vector_44" d="M194.848 258.729L194.074 256.626C194.049 256.558 193.891 256.503 193.722 256.503H188.297C188.127 256.503 188.005 256.558 188.023 256.626L188.586 258.729C188.605 258.802 188.764 258.861 188.94 258.861H194.578C194.754 258.861 194.875 258.802 194.848 258.729Z" fill="white"/>
</g>
<g id="Group_52">
<path id="Vector_45" d="M187.624 258.729L187.094 256.626C187.077 256.558 186.925 256.503 186.756 256.503H181.331C181.161 256.503 181.032 256.558 181.042 256.626L181.361 258.729C181.372 258.802 181.524 258.861 181.701 258.861H187.338C187.514 258.861 187.643 258.802 187.624 258.729Z" fill="white"/>
</g>
<g id="Group_53">
<path id="Vector_46" d="M174.061 256.626L174.137 258.729C174.139 258.802 174.284 258.861 174.46 258.861H180.098C180.275 258.861 180.409 258.802 180.399 258.729L180.113 256.626C180.103 256.558 179.959 256.503 179.789 256.503H174.364C174.194 256.503 174.059 256.558 174.061 256.626Z" fill="white"/>
</g>
<g id="Group_54">
<path id="Vector_47" d="M167.081 256.626L166.912 258.729C166.906 258.802 167.044 258.861 167.221 258.861H172.858C173.035 258.861 173.176 258.802 173.175 258.729L173.132 256.626C173.131 256.558 172.992 256.503 172.822 256.503H167.398C167.228 256.503 167.086 256.558 167.081 256.626Z" fill="white"/>
</g>
<g id="Group_55">
<path id="Vector_48" d="M160.1 256.626L159.687 258.729C159.673 258.802 159.804 258.861 159.981 258.861H165.619C165.795 258.861 165.943 258.802 165.95 258.729L166.151 256.626C166.158 256.558 166.025 256.503 165.856 256.503H160.431C160.261 256.503 160.113 256.558 160.1 256.626Z" fill="white"/>
</g>
<g id="Group_56">
<path id="Vector_49" d="M153.12 256.626L152.463 258.729C152.44 258.802 152.565 258.861 152.741 258.861H158.379C158.555 258.861 158.711 258.802 158.726 258.729L159.171 256.626C159.185 256.558 159.059 256.503 158.89 256.503H153.465C153.295 256.503 153.141 256.558 153.12 256.626Z" fill="white"/>
</g>
<g id="Group_57">
<path id="Vector_50" d="M151.501 258.729L152.189 256.626C152.212 256.558 152.093 256.503 151.923 256.503H146.498C146.328 256.503 146.167 256.558 146.138 256.626L145.238 258.729C145.207 258.802 145.325 258.861 145.501 258.861H151.138C151.315 258.861 151.477 258.802 151.501 258.729Z" fill="white"/>
</g>
<g id="Group_58">
<path id="Vector_51" d="M143.899 258.861C144.075 258.861 144.244 258.802 144.276 258.729L145.209 256.626C145.239 256.558 145.126 256.503 144.956 256.503H139.531C139.362 256.503 139.195 256.558 139.157 256.626L138.014 258.729C137.974 258.802 138.084 258.861 138.261 258.861H143.899Z" fill="white"/>
</g>
<g id="Group_59">
<path id="Vector_52" d="M137.052 258.729L138.228 256.626C138.266 256.558 138.16 256.503 137.99 256.503H132.565C132.395 256.503 132.222 256.558 132.177 256.626L130.789 258.729C130.741 258.802 130.845 258.861 131.021 258.861H136.659C136.835 258.861 137.011 258.802 137.052 258.729Z" fill="white"/>
</g>
<g id="Group_60">
<path id="Vector_53" d="M130.85 261.936H136.765C136.95 261.936 137.134 261.871 137.177 261.791L138.405 259.48C138.444 259.405 138.332 259.345 138.154 259.345H132.473C132.296 259.345 132.113 259.405 132.066 259.48L130.607 261.791C130.556 261.871 130.665 261.936 130.85 261.936Z" fill="white"/>
</g>
<g id="Group_61">
<path id="Vector_54" d="M132.886 265.337H139.109C139.303 265.337 139.495 265.265 139.537 265.176L140.738 262.624C140.776 262.542 140.657 262.476 140.47 262.476H134.506C134.32 262.476 134.131 262.542 134.084 262.624L132.626 265.176C132.575 265.265 132.692 265.337 132.886 265.337Z" fill="white"/>
</g>
<g id="Group_62">
<path id="Vector_55" d="M120.454 265.995H114.173C113.976 265.995 113.755 266.069 113.679 266.16L110.884 269.508C110.8 269.608 110.9 269.69 111.107 269.69H117.722C117.929 269.69 118.157 269.608 118.23 269.508L120.688 266.16C120.755 266.069 120.651 265.995 120.454 265.995Z" fill="white"/>
</g>
<g id="Group_63">
<path id="Vector_56" d="M128.573 265.995H122.291C122.095 265.995 121.883 266.069 121.817 266.16L119.413 269.508C119.341 269.608 119.45 269.69 119.657 269.69H126.272C126.479 269.69 126.697 269.608 126.759 269.508L128.827 266.16C128.883 266.069 128.769 265.995 128.573 265.995Z" fill="white"/>
</g>
<g id="Group_64">
<path id="Vector_57" d="M136.691 265.995H130.41C130.213 265.995 130.01 266.069 129.955 266.16L127.941 269.508C127.881 269.608 128 269.69 128.206 269.69H134.821C135.028 269.69 135.237 269.608 135.287 269.508L136.964 266.16C137.01 266.069 136.888 265.995 136.691 265.995Z" fill="white"/>
</g>
<g id="Group_65">
<path id="Vector_58" d="M146.706 265.995H138.529C138.332 265.995 138.137 266.069 138.093 266.16L136.47 269.508C136.421 269.608 136.549 269.69 136.756 269.69H145.368C145.575 269.69 145.772 269.608 145.808 269.508L147.004 266.16C147.036 266.069 146.903 265.995 146.706 265.995Z" fill="white"/>
</g>
<g id="Group_66">
<path id="Vector_59" d="M205.375 265.995H199.093C198.897 265.995 198.766 266.069 198.801 266.16L200.092 269.508C200.13 269.608 200.33 269.69 200.536 269.69H207.152C207.358 269.69 207.486 269.608 207.437 269.508L205.81 266.16C205.766 266.069 205.571 265.995 205.375 265.995Z" fill="white"/>
</g>
<g id="Group_67">
<path id="Vector_60" d="M197.256 265.995H189.078C188.882 265.995 188.74 266.069 188.762 266.16L189.571 269.508C189.595 269.608 189.783 269.69 189.99 269.69H198.602C198.809 269.69 198.946 269.608 198.909 269.508L197.673 266.16C197.639 266.069 197.452 265.995 197.256 265.995Z" fill="white"/>
</g>
<g id="Group_68">
<path id="Vector_61" d="M187.063 265.995H148.543C148.347 265.995 148.163 266.069 148.132 266.16L146.991 269.508C146.957 269.608 147.096 269.69 147.303 269.69H187.868C188.075 269.69 188.224 269.608 188.202 269.508L187.455 266.16C187.435 266.069 187.26 265.995 187.063 265.995Z" fill="white"/>
</g>
<g id="Group_69">
<path id="Vector_62" d="M148.122 262.476H142.158C141.972 262.476 141.79 262.542 141.753 262.624L140.591 265.176C140.55 265.265 140.675 265.337 140.87 265.337H147.092C147.286 265.337 147.47 265.265 147.501 265.176L148.407 262.624C148.436 262.542 148.308 262.476 148.122 262.476Z" fill="white"/>
</g>
<g id="Group_70">
<path id="Vector_63" d="M148.853 265.337H155.075C155.269 265.337 155.445 265.265 155.466 265.176L156.076 262.624C156.096 262.542 155.96 262.476 155.774 262.476H149.81C149.623 262.476 149.45 262.542 149.422 262.624L148.555 265.176C148.525 265.265 148.658 265.337 148.853 265.337Z" fill="white"/>
</g>
<g id="Group_71">
<path id="Vector_64" d="M156.836 265.337H163.058C163.253 265.337 163.419 265.265 163.43 265.176L163.745 262.624C163.755 262.542 163.612 262.476 163.426 262.476H157.462C157.275 262.476 157.109 262.542 157.091 262.624L156.52 265.176C156.5 265.265 156.641 265.337 156.836 265.337Z" fill="white"/>
</g>
<g id="Group_72">
<path id="Vector_65" d="M164.819 265.337H171.041C171.236 265.337 171.394 265.265 171.395 265.176L171.414 262.624C171.415 262.542 171.264 262.476 171.077 262.476H165.114C164.927 262.476 164.769 262.542 164.76 262.624L164.485 265.176C164.475 265.265 164.625 265.337 164.819 265.337Z" fill="white"/>
</g>
<g id="Group_73">
<path id="Vector_66" d="M172.803 265.337H179.025C179.219 265.337 179.369 265.265 179.36 265.176L179.083 262.624C179.074 262.542 178.916 262.476 178.73 262.476H172.766C172.579 262.476 172.428 262.542 172.429 262.624L172.449 265.176C172.45 265.265 172.608 265.337 172.803 265.337Z" fill="white"/>
</g>
<g id="Group_74">
<path id="Vector_67" d="M186.381 262.476H180.417C180.231 262.476 180.088 262.542 180.098 262.624L180.414 265.176C180.425 265.265 180.591 265.337 180.786 265.337H187.008C187.203 265.337 187.344 265.265 187.324 265.176L186.752 262.624C186.734 262.542 186.568 262.476 186.381 262.476Z" fill="white"/>
</g>
<g id="Group_75">
<path id="Vector_68" d="M194.991 265.337C195.186 265.337 195.319 265.265 195.288 265.176L194.421 262.624C194.393 262.542 194.219 262.476 194.033 262.476H188.069C187.883 262.476 187.747 262.542 187.767 262.624L188.378 265.176C188.399 265.265 188.574 265.337 188.769 265.337H194.991Z" fill="white"/>
</g>
<g id="Group_76">
<path id="Vector_69" d="M196.752 265.337H202.974C203.169 265.337 203.294 265.265 203.253 265.176L202.09 262.624C202.053 262.542 201.871 262.476 201.685 262.476H195.721C195.534 262.476 195.407 262.542 195.436 262.624L196.343 265.176C196.374 265.265 196.558 265.337 196.752 265.337Z" fill="white"/>
</g>
<g id="Group_77">
<path id="Vector_70" d="M204.735 265.337H210.958C211.152 265.337 211.269 265.265 211.218 265.176L209.76 262.624C209.712 262.542 209.523 262.476 209.337 262.476H203.373C203.186 262.476 203.067 262.542 203.105 262.624L204.307 265.176C204.349 265.265 204.541 265.337 204.735 265.337Z" fill="white"/>
</g>
<g id="Group_78">
<path id="Vector_71" d="M144.769 261.791L145.728 259.48C145.759 259.405 145.64 259.345 145.462 259.345H139.781C139.603 259.345 139.428 259.405 139.39 259.48L138.199 261.791C138.157 261.871 138.273 261.936 138.458 261.936H144.374C144.558 261.936 144.735 261.871 144.769 261.791Z" fill="white"/>
</g>
<g id="Group_79">
<path id="Vector_72" d="M146.068 261.936H151.983C152.168 261.936 152.337 261.871 152.361 261.791L153.052 259.48C153.074 259.405 152.948 259.345 152.771 259.345H147.089C146.912 259.345 146.744 259.405 146.714 259.48L145.791 261.791C145.759 261.871 145.883 261.936 146.068 261.936Z" fill="white"/>
</g>
<g id="Group_80">
<path id="Vector_73" d="M159.953 261.791L160.376 259.48C160.389 259.405 160.256 259.345 160.079 259.345H154.397C154.22 259.345 154.058 259.405 154.037 259.48L153.383 261.791C153.36 261.871 153.491 261.936 153.676 261.936H159.592C159.776 261.936 159.938 261.871 159.953 261.791Z" fill="white"/>
</g>
<g id="Group_81">
<path id="Vector_74" d="M167.545 261.791L167.699 259.48C167.704 259.405 167.564 259.345 167.386 259.345H161.705C161.528 259.345 161.374 259.405 161.361 259.48L160.975 261.791C160.961 261.871 161.1 261.936 161.285 261.936H167.2C167.385 261.936 167.54 261.871 167.545 261.791Z" fill="white"/>
</g>
<g id="Group_82">
<path id="Vector_75" d="M175.137 261.791L175.023 259.48C175.019 259.405 174.872 259.345 174.695 259.345H169.013C168.836 259.345 168.689 259.405 168.685 259.48L168.567 261.791C168.563 261.871 168.709 261.936 168.894 261.936H174.809C174.994 261.936 175.141 261.871 175.137 261.791Z" fill="white"/>
</g>
<g id="Group_83">
<path id="Vector_76" d="M182.729 261.791L182.346 259.48C182.334 259.405 182.18 259.345 182.002 259.345H176.321C176.144 259.345 176.004 259.405 176.008 259.48L176.158 261.791C176.164 261.871 176.318 261.936 176.503 261.936H182.418C182.603 261.936 182.742 261.871 182.729 261.791Z" fill="white"/>
</g>
<g id="Group_84">
<path id="Vector_77" d="M184.112 261.936H190.027C190.212 261.936 190.344 261.871 190.321 261.791L189.67 259.48C189.649 259.405 189.488 259.345 189.311 259.345H183.629C183.452 259.345 183.319 259.405 183.332 259.48L183.75 261.791C183.765 261.871 183.927 261.936 184.112 261.936Z" fill="white"/>
</g>
<g id="Group_85">
<path id="Vector_78" d="M191.721 261.936H197.636C197.821 261.936 197.945 261.871 197.913 261.791L196.994 259.48C196.965 259.405 196.796 259.345 196.619 259.345H190.938C190.76 259.345 190.634 259.405 190.656 259.48L191.343 261.791C191.367 261.871 191.536 261.936 191.721 261.936Z" fill="white"/>
</g>
<g id="Group_86">
<path id="Vector_79" d="M205.505 261.791L204.318 259.48C204.279 259.405 204.104 259.345 203.927 259.345H198.245C198.068 259.345 197.949 259.405 197.979 259.48L198.934 261.791C198.967 261.871 199.145 261.936 199.329 261.936H205.245C205.43 261.936 205.546 261.871 205.505 261.791Z" fill="white"/>
</g>
<g id="Group_87">
<path id="Vector_80" d="M213.097 261.791L211.641 259.48C211.595 259.405 211.412 259.345 211.235 259.345H205.554C205.376 259.345 205.264 259.405 205.303 259.48L206.527 261.791C206.569 261.871 206.754 261.936 206.939 261.936H212.854C213.039 261.936 213.148 261.871 213.097 261.791Z" fill="white"/>
</g>
<g id="Group_88">
<path id="Vector_81" d="M120.145 258.861H129.319C129.495 258.861 129.678 258.802 129.728 258.729L131.151 256.626C131.197 256.558 131.097 256.503 130.927 256.503H122.099C121.93 256.503 121.747 256.558 121.69 256.626L119.936 258.729C119.875 258.802 119.969 258.861 120.145 258.861Z" fill="white"/>
</g>
<g id="Group_89">
<path id="Vector_82" d="M117.596 261.936H129.106C129.291 261.936 129.483 261.871 129.535 261.791L131.032 259.48C131.081 259.405 130.976 259.345 130.798 259.345H119.744C119.566 259.345 119.372 259.405 119.31 259.48L117.383 261.791C117.316 261.871 117.411 261.936 117.596 261.936Z" fill="white"/>
</g>
<g id="Group_90">
<path id="Vector_83" d="M114.783 265.33H130.968C131.163 265.33 131.363 265.258 131.415 265.169L132.918 262.618C132.966 262.536 132.854 262.47 132.667 262.47H117.154C116.968 262.47 116.761 262.536 116.693 262.618L114.565 265.169C114.491 265.258 114.588 265.33 114.783 265.33Z" fill="white"/>
</g>
<g id="Group_91">
<path id="Vector_84" d="M226.586 262.47H211.072C210.886 262.47 210.774 262.536 210.822 262.618L212.321 265.169C212.374 265.258 212.574 265.33 212.768 265.33H228.953C229.148 265.33 229.245 265.258 229.171 265.169L227.047 262.618C226.979 262.536 226.772 262.47 226.586 262.47Z" fill="white"/>
</g>
<g id="Group_92">
<path id="Vector_85" d="M224.148 259.362H213.091C212.913 259.362 212.808 259.423 212.856 259.497L214.357 261.809C214.409 261.889 214.601 261.955 214.786 261.955H226.299C226.484 261.955 226.58 261.889 226.513 261.809L224.582 259.497C224.52 259.423 224.326 259.362 224.148 259.362Z" fill="white"/>
</g>
<g id="Group_93">
<path id="Vector_86" d="M213.194 265.995L207.147 266.028C206.991 266.028 206.884 266.188 206.943 266.332C207.648 268.046 208.45 269.477 208.45 269.477C208.5 269.578 208.708 269.659 208.915 269.659H215.605C215.812 269.659 215.93 269.578 215.87 269.477C215.87 269.477 215.032 268.103 214.021 266.456C213.845 266.168 213.531 265.993 213.194 265.995Z" fill="white"/>
</g>
<g id="Group_94">
<path id="Vector_87" d="M229.097 265.919L222.975 265.935C222.845 265.936 222.77 266.083 222.846 266.189C224.108 267.949 225.298 269.478 225.298 269.478C225.371 269.578 225.598 269.659 225.805 269.659H232.495C232.702 269.659 232.802 269.578 232.719 269.478C232.719 269.478 231.415 267.968 229.815 266.232C229.63 266.031 229.369 265.918 229.097 265.919Z" fill="white"/>
</g>
<g id="Group_95">
<path id="Vector_88" d="M221.382 265.817H215.043C214.847 265.817 214.758 265.931 214.845 266.072L216 267.946L216.25 268.352L216.944 269.477C217.006 269.578 217.223 269.659 217.43 269.659H224.12C224.327 269.659 224.436 269.578 224.364 269.477L223.556 268.352L223.265 267.946L221.92 266.072C221.818 265.931 221.578 265.817 221.382 265.817Z" fill="white"/>
</g>
</g>
</g>
</g>
</g>
</g>
<g id="Group 6">
<g id="Group_96">
<g id="Group_97">
<path id="Vector_89" d="M240.113 199.742H108.31V99.0354H240.113V199.742Z" fill="white"/>
</g>
<g id="Group_98">
<path id="Vector_90" d="M240.113 108.413H108.31V99.0354H240.113V108.413Z" fill="#071A6C"/>
</g>
</g>
<g id="Group_99">
<g id="Group_100">
<path id="Vector_91" d="M231.538 134.534H168.699V113.842H231.538V134.534Z" fill="#E3E7FA"/>
</g>
</g>
<g id="Group_101">
<g id="Group_102">
<path id="Vector_92" d="M231.537 155.127H168.698V137.425H231.537V155.127Z" fill="#0B28A8"/>
</g>
</g>
<g id="Group_103">
<g id="Group_104">
<path id="Vector_93" d="M231.538 175.665H115.413V160.914H231.538V175.665Z" fill="#889EFA"/>
</g>
</g>
<g id="Group_105">
<g id="Group_106">
<path id="Vector_94" d="M142.279 194.692H115.359V180.18H142.279V194.692Z" fill="#0B28A8"/>
</g>
</g>
<g id="Group_107">
<g id="Group_108">
<path id="Vector_95" d="M164.243 155.547H115.359V114.734H164.243V155.547Z" fill="#889EFA"/>
</g>
</g>
<g id="Group_109">
<g id="Group_110">
<path id="Vector_96" d="M231.538 195.073H146.39V180.562H231.538V195.073Z" fill="#E3E7FA"/>
</g>
</g>
<g id="Group_111">
<g id="Group_112">
<path id="Vector_97" d="M115.359 156.399L131.789 127.144L141.578 143.662L148.809 133.081L162.69 156.399H115.359Z" fill="white"/>
</g>
</g>
<g id="Group_113">
<g id="Group_114">
<path id="Vector_98" d="M155.679 124.733C155.679 126.363 154.434 127.684 152.898 127.684C151.363 127.684 150.117 126.363 150.117 124.733C150.117 123.103 151.363 121.782 152.898 121.782C154.434 121.782 155.679 123.103 155.679 124.733Z" fill="white"/>
</g>
</g>
<g id="Group_115">
<g id="Group_116">
<path id="Vector_99" d="M173.19 119.165H224.446" stroke="#071A6C" stroke-width="0.25" stroke-miterlimit="10"/>
</g>
</g>
<g id="Group_117">
<g id="Group_118">
<path id="Vector_100" d="M173.19 121.782H214.988" stroke="#071A6C" stroke-width="0.25" stroke-miterlimit="10"/>
</g>
</g>
<g id="Group_119">
<g id="Group_120">
<path id="Vector_101" d="M173.19 124.4H209.497" stroke="#071A6C" stroke-width="0.25" stroke-miterlimit="10"/>
</g>
</g>
<g id="Group_121">
<g id="Group_122">
<path id="Vector_102" d="M173.19 127.144H209.497" stroke="#071A6C" stroke-width="0.25" stroke-miterlimit="10"/>
</g>
</g>
<g id="Group_123">
<g id="Group_124">
<path id="Vector_103" d="M173.19 129.888H203.112" stroke="#071A6C" stroke-width="0.25" stroke-miterlimit="10"/>
</g>
</g>
<g id="Group_125">
<g id="Group_126">
<path id="Vector_104" d="M226.149 142.866H173.189V141.77H226.149V142.866Z" fill="white"/>
</g>
</g>
<g id="Group_127">
<g id="Group_128">
<path id="Vector_105" d="M226.149 145.78H173.189V144.684H226.149V145.78Z" fill="white"/>
</g>
</g>
<g id="Group_129">
<g id="Group_130">
<path id="Vector_106" d="M211.187 148.694H173.189V147.598H211.187V148.694Z" fill="white"/>
</g>
</g>
<g id="Group_131">
<g id="Group_132">
<path id="Vector_107" d="M200.047 151.609H173.189V150.513H200.047V151.609Z" fill="white"/>
</g>
</g>
<g id="Group_133">
<g id="Group_134">
<path id="Vector_108" d="M119.637 165.468H227.237" stroke="white" stroke-width="0.5" stroke-miterlimit="10"/>
</g>
</g>
<g id="Group_135">
<g id="Group_136">
<path id="Vector_109" d="M119.637 168.29H213.989" stroke="white" stroke-width="0.5" stroke-miterlimit="10"/>
</g>
</g>
<g id="Group_137">
<g id="Group_138">
<path id="Vector_110" d="M119.637 171.111H187.122" stroke="white" stroke-width="0.5" stroke-miterlimit="10"/>
</g>
</g>
<g id="Group_139">
<g id="Group_140">
<path id="Vector_111" d="M137.842 184.2H118.114V183.104H137.842V184.2Z" fill="white"/>
</g>
</g>
<g id="Group_141">
<g id="Group_142">
<path id="Vector_112" d="M137.842 186.289H118.114V185.193H137.842V186.289Z" fill="white"/>
</g>
</g>
<g id="Group_143">
<g id="Group_144">
<path id="Vector_113" d="M132.269 188.377H118.114V187.281H132.269V188.377Z" fill="white"/>
</g>
</g>
<g id="Group_145">
<g id="Group_146">
<path id="Vector_114" d="M128.119 190.466H118.114V189.37H128.119V190.466Z" fill="white"/>
</g>
</g>
<g id="Group_147">
<g id="Group_148">
<path id="Vector_115" d="M150.355 184.889H227.237" stroke="white" stroke-width="0.5" stroke-miterlimit="10"/>
</g>
</g>
<g id="Group_149">
<g id="Group_150">
<path id="Vector_116" d="M150.355 187.71H217.771" stroke="white" stroke-width="0.5" stroke-miterlimit="10"/>
</g>
</g>
<g id="Group_151">
<g id="Group_152">
<path id="Vector_117" d="M150.355 190.532H198.575" stroke="white" stroke-width="0.5" stroke-miterlimit="10"/>
</g>
</g>
</g>
<g id="Group 2">
<g id="Group_153">
<g id="Group_154">
<path id="Vector_118" d="M218.441 94.9488C218.441 104.041 211.071 111.411 201.979 111.411C192.887 111.411 185.517 104.041 185.517 94.9488C185.517 85.857 192.887 78.4868 201.979 78.4868C211.071 78.4868 218.441 85.857 218.441 94.9488Z" fill="#889EFA"/>
</g>
</g>
<g id="Group_155">
<g id="Group_156">
<g id="Group_157">
<path id="Vector_119" d="M207.401 91.3987C204.657 88.17 202.096 91.5568 202.096 91.5568C202.096 91.5568 199.535 88.17 196.79 91.3987C194.106 94.5567 200.643 99.4204 202.096 99.8942C203.548 99.4204 210.085 94.5567 207.401 91.3987Z" fill="white"/>
</g>
</g>
</g>
</g>
<g id="Group 5">
<g id="Group_158">
<g id="Group_159">
<path id="Vector_120" d="M283.65 146.983L283.861 192.651L219.032 192.95L218.821 147.282L283.65 146.983Z" fill="white"/>
</g>
</g>
<g id="Group_160">
<g id="Group_161">
<path id="Vector_121" d="M283.65 146.983L283.696 156.976L218.867 157.276L218.821 147.282L283.65 146.983Z" fill="#889EFA"/>
</g>
</g>
<g id="Group_162">
<g id="Group_163">
<path id="Vector_122" d="M249.01 182.786H226.322V166.146H249.01V182.786Z" fill="#071A6C"/>
</g>
<g id="Group_164">
<path id="Vector_123" d="M226.321 182.902L233.43 170.974L237.666 177.708L240.795 173.394L246.801 182.902H226.321Z" fill="white"/>
</g>
<g id="Group_165">
<path id="Vector_124" d="M243.768 170.223C243.768 170.887 243.229 171.426 242.564 171.426C241.9 171.426 241.361 170.887 241.361 170.223C241.361 169.558 241.9 169.019 242.564 169.019C243.229 169.019 243.768 169.558 243.768 170.223Z" fill="white"/>
</g>
</g>
<g id="Group_166">
<g id="Group_167">
<path id="Vector_125" d="M225.56 152.449C225.563 152.988 225.127 153.428 224.588 153.43C224.048 153.433 223.608 152.997 223.606 152.458C223.603 151.918 224.039 151.478 224.579 151.476C225.118 151.473 225.558 151.909 225.56 152.449Z" fill="white"/>
</g>
</g>
<g id="Group_168">
<g id="Group_169">
<path id="Vector_126" d="M229.273 152.432C229.276 152.971 228.84 153.411 228.301 153.413C227.761 153.416 227.322 152.98 227.319 152.44C227.317 151.901 227.752 151.461 228.292 151.459C228.831 151.457 229.27 151.892 229.273 152.432Z" fill="white"/>
</g>
</g>
<g id="Group_170">
<g id="Group_171">
<path id="Vector_127" d="M232.986 152.414C232.989 152.954 232.553 153.393 232.013 153.396C231.474 153.398 231.034 152.963 231.032 152.423C231.029 151.883 231.465 151.444 232.004 151.441C232.544 151.439 232.983 151.874 232.986 152.414Z" fill="white"/>
</g>
</g>
<g id="Group_172">
<g id="Group_173">
<path id="Vector_128" d="M276.196 169.773H252.177V168.337H276.196V169.773Z" fill="#0B28A8"/>
</g>
</g>
<g id="Group_174">
<g id="Group_175">
<path id="Vector_129" d="M276.196 172.507H252.177V171.072H276.196V172.507Z" fill="#0B28A8"/>
</g>
</g>
<g id="Group_176">
<g id="Group_177">
<path id="Vector_130" d="M273.472 175.241H252.177V173.806H273.472V175.241Z" fill="#0B28A8"/>
</g>
</g>
<g id="Group_178">
<g id="Group_179">
<path id="Vector_131" d="M270.576 177.976H252.177V176.54H270.576V177.976Z" fill="#0B28A8"/>
</g>
</g>
<g id="Group_180">
<g id="Group_181">
<path id="Vector_132" d="M265.523 180.71H252.177V179.274H265.523V180.71Z" fill="#0B28A8"/>
</g>
</g>
</g>
<g id="Group_182">
<g id="Group_183">
<path id="Vector_133" d="M120.513 184.344H55.5691V130.472H120.513V184.344Z" fill="#E3E7FA"/>
</g>
<g id="Group_184">
<path id="Vector_134" d="M120.513 140.268H55.5691V130.472H120.513V140.268Z" fill="#0B28A8"/>
</g>
<g id="Group_185">
<path id="Vector_135" d="M103.133 175.926H72.9492V147.908H103.133V175.926Z" fill="#051351"/>
</g>
<g id="Group_186">
<path id="Vector_136" d="M93.3906 161.928L84.7161 156.973L84.7621 166.962L93.3906 161.928Z" fill="white"/>
</g>
<g id="Group_187">
<g id="Group_188">
<g id="Group_189">
<path id="Vector_137" d="M62.1195 135.37C62.1195 135.807 61.7656 136.16 61.3294 136.16C60.8931 136.16 60.5393 135.807 60.5393 135.37C60.5393 134.934 60.8931 134.58 61.3294 134.58C61.7656 134.58 62.1195 134.934 62.1195 135.37Z" fill="white"/>
</g>
</g>
<g id="Group_190">
<g id="Group_191">
<path id="Vector_138" d="M65.3433 135.37C65.3433 135.807 64.9895 136.16 64.5533 136.16C64.117 136.16 63.7632 135.807 63.7632 135.37C63.7632 134.934 64.117 134.58 64.5533 134.58C64.9895 134.58 65.3433 134.934 65.3433 135.37Z" fill="white"/>
</g>
</g>
<g id="Group_192">
<g id="Group_193">
<path id="Vector_139" d="M68.5675 135.37C68.5675 135.807 68.2136 136.16 67.7774 136.16C67.3411 136.16 66.9873 135.807 66.9873 135.37C66.9873 134.934 67.3411 134.58 67.7774 134.58C68.2136 134.58 68.5675 134.934 68.5675 135.37Z" fill="white"/>
</g>
</g>
</g>
</g>
<g id="Group_194">
<g id="Group_195">
<path id="Vector_140" d="M274.763 268.581C275.532 268.655 276.278 268.832 276.984 269.1L278.566 267.696L281.409 269.734L280.588 271.683C281.068 272.265 281.475 272.915 281.793 273.62L283.903 273.745L284.473 277.197L282.514 277.994C282.44 278.763 282.264 279.509 281.996 280.215L283.4 281.797L281.361 284.641L279.412 283.819C278.83 284.299 278.18 284.706 277.476 285.024L277.35 287.134L273.898 287.704L273.102 285.745C272.332 285.671 271.586 285.495 270.88 285.227L269.299 286.631L266.455 284.592L267.277 282.643C266.796 282.061 266.389 281.411 266.072 280.707L263.961 280.581L263.392 277.129L265.35 276.333C265.424 275.563 265.601 274.817 265.869 274.111L264.465 272.53L266.503 269.686L268.452 270.508C269.034 270.027 269.684 269.62 270.389 269.303L270.514 267.193L273.966 266.623L274.763 268.581ZM273.267 272.153C270.514 272.607 268.65 275.206 269.104 277.96C269.558 280.713 272.159 282.576 274.912 282.122C277.665 281.668 279.528 279.068 279.074 276.315C278.62 273.562 276.02 271.698 273.267 272.153Z" fill="#889EFA"/>
</g>
</g>
<g id="Group_196">
<g id="Group_197">
<path id="Vector_141" d="M294.278 258.298C294.587 258.614 294.847 258.966 295.057 259.343L296.265 259.313L296.755 261.251L295.679 261.799C295.674 262.231 295.612 262.665 295.491 263.089L296.367 263.922L295.343 265.639L294.194 265.265C293.878 265.574 293.526 265.835 293.149 266.044L293.179 267.252L291.241 267.743L290.693 266.666C290.261 266.661 289.827 266.6 289.403 266.478L288.57 267.354L286.853 266.33L287.227 265.182C286.918 264.866 286.657 264.513 286.448 264.136L285.24 264.167L284.749 262.228L285.826 261.68C285.831 261.249 285.893 260.815 286.014 260.39L285.138 259.558L286.162 257.84L287.311 258.214C287.627 257.905 287.979 257.645 288.356 257.435L288.326 256.227L290.264 255.736L290.812 256.814C291.243 256.818 291.677 256.88 292.102 257.001L292.934 256.126L294.652 257.149L294.278 258.298ZM292.308 259.306C290.939 258.49 289.167 258.938 288.35 260.308C287.534 261.678 287.983 263.45 289.352 264.266C290.722 265.083 292.494 264.634 293.31 263.264C294.127 261.895 293.678 260.123 292.308 259.306Z" fill="#889EFA"/>
</g>
</g>
<g id="Group 3">
<g id="Group_198">
<g id="Group_199">
<path id="Vector_142" d="M265.426 228.537C265.426 238.824 257.088 247.162 246.801 247.162C236.515 247.162 228.176 238.824 228.176 228.537C228.176 218.25 236.515 209.912 246.801 209.912C257.088 209.912 265.426 218.25 265.426 228.537Z" fill="white"/>
<path id="Vector_143" d="M265.426 228.537C265.426 238.824 257.088 247.162 246.801 247.162C236.515 247.162 228.176 238.824 228.176 228.537C228.176 218.25 236.515 209.912 246.801 209.912C257.088 209.912 265.426 218.25 265.426 228.537Z" stroke="#E3E7FA" stroke-width="2" stroke-miterlimit="10"/>
</g>
</g>
<g id="Group_200">
<g id="Group_201">
<g id="Group_202">
<g id="Group_203">
<path id="Vector_144" d="M252.229 229.189C252.229 228.821 252.016 228.506 251.707 228.353C252.016 228.199 252.229 227.884 252.229 227.516C252.229 226.998 251.809 226.578 251.292 226.578C251.24 226.578 251.139 226.578 251.139 226.578L248.858 226.629C248.858 226.629 249.34 224.601 249.162 223.511C248.985 222.422 247.515 221.94 247.489 223.157C247.464 224.373 247.312 224.779 246.374 225.843C245.761 226.539 245.429 227.083 245.274 227.377C245.196 227.524 245.158 227.687 245.158 227.853V232.459C245.158 232.711 245.362 232.915 245.614 232.915H251.139C251.139 232.915 251.24 232.915 251.292 232.915C251.809 232.915 252.273 232.536 252.232 232.019C252.198 231.597 251.68 231.436 251.68 231.436C251.68 231.436 252.314 231.365 252.314 230.752C252.314 230.182 251.959 230.042 251.707 230.025C252.016 229.872 252.229 229.557 252.229 229.189Z" fill="#071A6C"/>
</g>
<g id="Group_204">
<path id="Vector_145" d="M243.874 227.516H241.88C241.553 227.516 241.288 227.781 241.288 228.108V233.32C241.288 233.647 241.553 233.912 241.88 233.912H243.874C244.2 233.912 244.465 233.647 244.465 233.32V228.108C244.465 227.781 244.2 227.516 243.874 227.516Z" fill="#071A6C"/>
</g>
</g>
</g>
</g>
</g>
<g id="Group 4">
<g id="Group_205">
<g id="Group_206">
<path id="Vector_146" d="M114.1 224.568C114.1 233.803 106.614 241.289 97.3789 241.289C88.1441 241.289 80.6577 233.803 80.6577 224.568C80.6577 215.334 88.1441 207.847 97.3789 207.847C106.614 207.847 114.1 215.334 114.1 224.568Z" fill="#889EFA"/>
</g>
</g>
<g id="Group_207">
<g id="Group_208">
<path id="Vector_147" d="M101.15 220.851V222.051L106.297 224.032L101.15 226.013V227.213L107.627 224.654V223.41L101.15 220.851Z" fill="white"/>
</g>
<g id="Group_209">
<path id="Vector_148" d="M94.6868 230.538H95.9447L100.716 216.919H99.4584L94.6868 230.538Z" fill="white"/>
</g>
<g id="Group_210">
<path id="Vector_149" d="M94.1232 220.851L87.6455 223.41V224.654L94.1232 227.213V226.013L88.9903 224.032L94.1232 222.051V220.851Z" fill="white"/>
</g>
</g>
</g>
</g>
</svg>
