<svg width="250" height="43" viewBox="0 0 250 43" fill="none" xmlns="http://www.w3.org/2000/svg">
<path d="M0.0753174 37.0243L0.290127 41.6705L249.191 42.3172L249.427 37.1295C249.46 36.9794 249.346 36.8374 249.192 36.8374L241.523 36.819L0.0753174 37.0243Z" fill="#071A6C"/>
<path d="M249.511 37.0243L218.438 0.464844L31.12 0.648017L0.0753174 37.0243L249.511 37.0243Z" fill="#071A6C"/>
<path d="M31.0749 4.0047H41.6893C42.0093 4.0047 42.3403 3.90612 42.4286 3.78474L44.0477 1.56387C44.1323 1.44764 43.9477 1.35348 43.6358 1.35348H33.27C32.9573 1.35348 32.6263 1.44764 32.5292 1.56387L30.6791 3.78474C30.5783 3.90612 30.7549 4.0047 31.0749 4.0047Z" fill="white"/>
<path d="M44.7017 4.0047H55.3162C55.6362 4.0047 55.9554 3.90612 56.029 3.78474L57.3818 1.56387C57.4524 1.44764 57.256 1.35348 56.9441 1.35348H46.5783C46.2664 1.35348 45.9457 1.44764 45.8625 1.56387L44.2795 3.78474C44.1934 3.90612 44.3817 4.0047 44.7017 4.0047Z" fill="white"/>
<path d="M58.3293 4.0047H68.9437C69.2637 4.0047 69.5712 3.90612 69.6301 3.78474L70.7152 1.56387C70.7718 1.44764 70.5644 1.35348 70.2524 1.35348H59.8866C59.5747 1.35348 59.2658 1.44764 59.1966 1.56387L57.8806 3.78474C57.8085 3.90612 58.0093 4.0047 58.3293 4.0047Z" fill="white"/>
<path d="M71.9569 4.0047H82.5713C82.8913 4.0047 83.1863 3.90612 83.2312 3.78474L84.0492 1.56387C84.0919 1.44764 83.8741 1.35348 83.5615 1.35348H73.195C72.8831 1.35348 72.5859 1.44764 72.5307 1.56387L71.4817 3.78474C71.4243 3.90612 71.6376 4.0047 71.9569 4.0047Z" fill="white"/>
<path d="M85.5837 4.0047H96.1982C96.5182 4.0047 96.8014 3.90612 96.8316 3.78474L97.3825 1.56387C97.4112 1.44764 97.1817 1.35348 96.8698 1.35348H86.5033C86.1914 1.35348 85.9052 1.44764 85.864 1.56387L85.082 3.78474C85.0394 3.90612 85.2637 4.0047 85.5837 4.0047Z" fill="white"/>
<path d="M99.2113 4.0047H109.826C110.146 4.0047 110.417 3.90612 110.433 3.78474L110.717 1.56387C110.731 1.44764 110.49 1.35348 110.178 1.35348H99.8123C99.5004 1.35348 99.2253 1.44764 99.1981 1.56387L98.6831 3.78474C98.6552 3.90612 98.8913 4.0047 99.2113 4.0047Z" fill="white"/>
<path d="M112.839 4.0047H123.453C123.773 4.0047 124.033 3.90612 124.034 3.78474L124.051 1.56387C124.051 1.44764 123.799 1.35348 123.487 1.35348H113.121C112.809 1.35348 112.545 1.44764 112.532 1.56387L112.284 3.78474C112.271 3.90612 112.519 4.0047 112.839 4.0047Z" fill="white"/>
<path d="M126.466 4.0047H137.079C137.399 4.0047 137.648 3.90612 137.634 3.78474L137.384 1.56387C137.371 1.44764 137.107 1.35348 136.795 1.35348H126.429C126.117 1.35348 125.865 1.44764 125.866 1.56387L125.885 3.78474C125.886 3.90612 126.146 4.0047 126.466 4.0047Z" fill="white"/>
<path d="M140.093 4.0047H150.707C151.027 4.0047 151.263 3.90612 151.235 3.78474L150.717 1.56387C150.69 1.44764 150.415 1.35348 150.103 1.35348H139.737C139.425 1.35348 139.184 1.44764 139.199 1.56387L139.486 3.78474C139.501 3.90612 139.773 4.0047 140.093 4.0047Z" fill="white"/>
<path d="M153.72 4.0047H164.335C164.655 4.0047 164.878 3.90612 164.836 3.78474L164.051 1.56387C164.01 1.44764 163.723 1.35348 163.411 1.35348H153.046C152.734 1.35348 152.504 1.44764 152.533 1.56387L153.086 3.78474C153.116 3.90612 153.4 4.0047 153.72 4.0047Z" fill="white"/>
<path d="M167.348 4.0047H177.962C178.282 4.0047 178.494 3.90612 178.437 3.78474L177.385 1.56387C177.33 1.44764 177.032 1.35348 176.72 1.35348H166.354C166.042 1.35348 165.824 1.44764 165.867 1.56387L166.687 3.78474C166.732 3.90612 167.028 4.0047 167.348 4.0047Z" fill="white"/>
<path d="M180.975 4.0047H191.589C191.909 4.0047 192.11 3.90612 192.038 3.78474L190.719 1.56387C190.65 1.44764 190.341 1.35348 190.029 1.35348H179.663C179.351 1.35348 179.144 1.44764 179.2 1.56387L180.288 3.78474C180.348 3.90612 180.655 4.0047 180.975 4.0047Z" fill="white"/>
<path d="M194.602 4.0047H205.217C205.537 4.0047 205.725 3.90612 205.638 3.78474L204.053 1.56387C203.97 1.44764 203.649 1.35348 203.337 1.35348H192.971C192.659 1.35348 192.464 1.44764 192.534 1.56387L193.889 3.78474C193.964 3.90612 194.282 4.0047 194.602 4.0047Z" fill="white"/>
<path d="M208.229 4.0047H218.844C219.164 4.0047 219.34 3.90612 219.239 3.78474L217.387 1.56387C217.29 1.44764 216.958 1.35348 216.646 1.35348H206.28C205.967 1.35348 205.783 1.44764 205.868 1.56387L207.49 3.78474C207.578 3.90612 207.909 4.0047 208.229 4.0047Z" fill="white"/>
<path d="M26.8531 8.98125H37.5308C37.8647 8.98125 38.2134 8.87459 38.3105 8.74217L41.1074 4.92865C41.1979 4.80507 41.0103 4.70576 40.6888 4.70576H30.3973C30.0759 4.70576 29.7316 4.80507 29.6286 4.92865L26.4477 8.74217C26.3374 8.87459 26.5191 8.98125 26.8531 8.98125Z" fill="white"/>
<path d="M40.5653 8.98125H51.243C51.5769 8.98125 51.9131 8.87459 51.9948 8.74217L54.3503 4.92865C54.4268 4.80507 54.2267 4.70576 53.9052 4.70576H43.6137C43.2922 4.70576 42.9597 4.80507 42.8707 4.92865L40.1327 8.74217C40.0378 8.87459 40.2313 8.98125 40.5653 8.98125Z" fill="white"/>
<path d="M54.2774 8.98125H64.9551C65.2891 8.98125 65.6135 8.87459 65.6797 8.74217L67.5924 4.92865C67.6542 4.80507 67.4445 4.70576 67.1223 4.70576H56.8301C56.5086 4.70576 56.1879 4.80507 56.1136 4.92865L53.8169 8.74217C53.7375 8.87459 53.9435 8.98125 54.2774 8.98125Z" fill="white"/>
<path d="M67.9896 8.98125H78.6674C79.0013 8.98125 79.3132 8.87459 79.364 8.74217L80.8353 4.92865C80.8831 4.80507 80.6602 4.70576 80.3387 4.70576H70.0472C69.7257 4.70576 69.416 4.80507 69.3557 4.92865L67.5019 8.74217C67.4379 8.87459 67.6557 8.98125 67.9896 8.98125Z" fill="white"/>
<path d="M82.5985 4.92865L81.1861 8.74217C81.1368 8.87459 81.3678 8.98125 81.7018 8.98125H92.3795C92.7135 8.98125 93.0136 8.87459 93.0489 8.74217L94.0773 4.92865C94.1104 4.80507 93.8765 4.70576 93.555 4.70576H83.2635C82.9421 4.70576 82.6441 4.80507 82.5985 4.92865Z" fill="white"/>
<path d="M106.771 4.70576H96.4799C96.1584 4.70576 95.8715 4.80507 95.8407 4.92865L94.8704 8.74217C94.8373 8.87459 95.08 8.98125 95.414 8.98125H106.092C106.426 8.98125 106.712 8.87459 106.732 8.74217L107.319 4.92865C107.339 4.80507 107.093 4.70576 106.771 4.70576Z" fill="white"/>
<path d="M119.988 4.70576H109.696C109.375 4.70576 109.1 4.80507 109.083 4.92865L108.555 8.74217C108.537 8.87459 108.792 8.98125 109.126 8.98125H119.804C120.138 8.98125 120.412 8.87459 120.417 8.74217L120.562 4.92865C120.567 4.80507 120.309 4.70576 119.988 4.70576Z" fill="white"/>
<path d="M133.205 4.70576H122.913C122.591 4.70576 122.329 4.80507 122.326 4.92865L122.24 8.74217C122.237 8.87459 122.504 8.98125 122.838 8.98125H133.516C133.85 8.98125 134.113 8.87459 134.102 8.74217L133.804 4.92865C133.795 4.80507 133.526 4.70576 133.205 4.70576Z" fill="white"/>
<path d="M147.229 8.98125C147.563 8.98125 147.812 8.87459 147.787 8.74217L147.047 4.92865C147.024 4.80507 146.743 4.70576 146.421 4.70576H136.13C135.808 4.70576 135.556 4.80507 135.568 4.92865L135.924 8.74217C135.936 8.87459 136.217 8.98125 136.551 8.98125H147.229Z" fill="white"/>
<path d="M160.941 8.98125C161.275 8.98125 161.513 8.87459 161.472 8.74217L160.289 4.92865C160.251 4.80507 159.959 4.70576 159.638 4.70576H149.346C149.025 4.70576 148.785 4.80507 148.811 4.92865L149.609 8.74217C149.637 8.87459 149.929 8.98125 150.263 8.98125H160.941Z" fill="white"/>
<path d="M172.855 4.70576H162.563C162.242 4.70576 162.012 4.80507 162.053 4.92865L163.294 8.74217C163.336 8.87459 163.642 8.98125 163.976 8.98125H174.653C174.987 8.98125 175.212 8.87459 175.156 8.74217L173.532 4.92865C173.479 4.80507 173.176 4.70576 172.855 4.70576Z" fill="white"/>
<path d="M186.071 4.70576H175.78C175.458 4.70576 175.241 4.80507 175.296 4.92865L176.978 8.74217C177.036 8.87459 177.354 8.98125 177.688 8.98125H188.366C188.7 8.98125 188.912 8.87459 188.841 8.74217L186.774 4.92865C186.707 4.80507 186.393 4.70576 186.071 4.70576Z" fill="white"/>
<path d="M202.078 8.98125C202.412 8.98125 202.612 8.87459 202.525 8.74217L200.017 4.92865C199.936 4.80507 199.609 4.70576 199.287 4.70576H188.996C188.674 4.70576 188.469 4.80507 188.538 4.92865L190.663 8.74217C190.736 8.87459 191.067 8.98125 191.401 8.98125H202.078Z" fill="white"/>
<path d="M219.911 4.92865C219.808 4.80507 219.464 4.70576 219.142 4.70576H202.394C202.073 4.70576 201.879 4.80507 201.962 4.92865L204.535 8.74217C204.624 8.87459 204.967 8.98125 205.301 8.98125H222.678C223.012 8.98125 223.193 8.87459 223.083 8.74217L219.911 4.92865Z" fill="white"/>
<path d="M223.326 9.76543H212.578C212.242 9.76543 212.049 9.87504 212.148 10.0097L215.195 14.1763C215.301 14.3205 215.669 14.4382 216.019 14.4382H227.189C227.538 14.4382 227.723 14.3205 227.603 14.1763L224.137 10.0097C224.025 9.87504 223.663 9.76543 223.326 9.76543Z" fill="white"/>
<path d="M213.289 14.1763L210.306 10.0097C210.209 9.87504 209.859 9.76543 209.523 9.76543H198.775C198.439 9.76543 198.233 9.87504 198.316 10.0097L200.88 14.1763C200.969 14.3205 201.324 14.4382 201.673 14.4382H212.844C213.193 14.4382 213.392 14.3205 213.289 14.1763Z" fill="white"/>
<path d="M184.484 10.0097L186.565 14.1763C186.638 14.3205 186.979 14.4382 187.328 14.4382H198.499C198.848 14.4382 199.06 14.3205 198.973 14.1763L196.474 10.0097C196.393 9.87504 196.056 9.76543 195.72 9.76543H184.971C184.635 9.76543 184.417 9.87504 184.484 10.0097Z" fill="white"/>
<path d="M170.653 10.0097L172.251 14.1763C172.307 14.3205 172.635 14.4382 172.984 14.4382H184.154C184.503 14.4382 184.729 14.3205 184.659 14.1763L182.643 10.0097C182.578 9.87504 182.253 9.76543 181.917 9.76543H171.168C170.832 9.76543 170.601 9.87504 170.653 10.0097Z" fill="white"/>
<path d="M170.345 14.1763L168.811 10.0097C168.761 9.87504 168.449 9.76543 168.113 9.76543H157.365C157.028 9.76543 156.786 9.87504 156.822 10.0097L157.936 14.1763C157.974 14.3205 158.289 14.4382 158.639 14.4382H169.809C170.159 14.4382 170.398 14.3205 170.345 14.1763Z" fill="white"/>
<path d="M156.031 14.1763L154.98 10.0097C154.946 9.87504 154.646 9.76543 154.31 9.76543H143.562C143.226 9.76543 142.97 9.87504 142.99 10.0097L143.622 14.1763C143.644 14.3205 143.945 14.4382 144.295 14.4382H155.464C155.814 14.4382 156.068 14.3205 156.031 14.1763Z" fill="white"/>
<path d="M129.158 10.0097L129.308 14.1763C129.313 14.3205 129.6 14.4382 129.949 14.4382H141.12C141.469 14.4382 141.735 14.3205 141.715 14.1763L141.148 10.0097C141.13 9.87504 140.843 9.76543 140.507 9.76543H129.758C129.422 9.76543 129.154 9.87504 129.158 10.0097Z" fill="white"/>
<path d="M115.328 10.0097L114.993 14.1763C114.981 14.3205 115.255 14.4382 115.604 14.4382H126.775C127.124 14.4382 127.404 14.3205 127.401 14.1763L127.317 10.0097C127.314 9.87504 127.04 9.76543 126.703 9.76543H115.955C115.619 9.76543 115.338 9.87504 115.328 10.0097Z" fill="white"/>
<path d="M101.495 10.0097L100.678 14.1763C100.649 14.3205 100.91 14.4382 101.259 14.4382H112.43C112.779 14.4382 113.073 14.3205 113.087 14.1763L113.486 10.0097C113.499 9.87504 113.236 9.76543 112.9 9.76543H102.152C101.815 9.76543 101.522 9.87504 101.495 10.0097Z" fill="white"/>
<path d="M87.6648 10.0097L86.3642 14.1763C86.3194 14.3205 86.5658 14.4382 86.9152 14.4382H98.0851C98.4345 14.4382 98.7427 14.3205 98.7729 14.1763L99.6542 10.0097C99.6829 9.87504 99.4335 9.76543 99.0973 9.76543H88.349C88.0128 9.76543 87.7068 9.87504 87.6648 10.0097Z" fill="white"/>
<path d="M84.4582 14.1763L85.8221 10.0097C85.8662 9.87504 85.6301 9.76543 85.2939 9.76543H74.5456C74.2094 9.76543 73.8901 9.87504 73.8328 10.0097L72.0496 14.1763C71.9878 14.3205 72.2202 14.4382 72.5697 14.4382H83.7395C84.0889 14.4382 84.4111 14.3205 84.4582 14.1763Z" fill="white"/>
<path d="M69.3954 14.4382C69.7448 14.4382 70.0795 14.3205 70.1435 14.1763L71.9914 10.0097C72.051 9.87504 71.8274 9.76543 71.4912 9.76543H60.7422C60.406 9.76543 60.0749 9.87504 60.0014 10.0097L57.7356 14.1763C57.6569 14.3205 57.8754 14.4382 58.2248 14.4382H69.3954Z" fill="white"/>
<path d="M55.8289 14.1763L58.1601 10.0097C58.2351 9.87504 58.024 9.76543 57.6878 9.76543H46.9388C46.6026 9.76543 46.259 9.87504 46.17 10.0097L43.421 14.1763C43.3253 14.3205 43.5306 14.4382 43.88 14.4382H55.0506C55.4 14.4382 55.748 14.3205 55.8289 14.1763Z" fill="white"/>
<path d="M43.5401 20.5307H55.2602C55.6266 20.5307 55.9922 20.4019 56.0768 20.243L58.5095 15.6645C58.5882 15.5166 58.3653 15.3974 58.0137 15.3974H46.7571C46.4054 15.3974 46.0442 15.5166 45.9508 15.6645L43.059 20.243C42.9583 20.4019 43.1738 20.5307 43.5401 20.5307Z" fill="white"/>
<path d="M47.5758 27.2683H59.9043C60.2898 27.2683 60.6693 27.1256 60.7525 26.9498L63.1322 21.8938C63.2088 21.7312 62.9711 21.5995 62.6019 21.5995H50.7854C50.4161 21.5995 50.0409 21.7312 49.9482 21.8938L47.0602 26.9498C46.9594 27.1256 47.1904 27.2683 47.5758 27.2683Z" fill="white"/>
<path d="M22.9432 28.5726H10.497C10.1079 28.5726 9.67019 28.719 9.51938 28.8993L3.98154 35.5332C3.81529 35.7318 4.01318 35.8936 4.42292 35.8936H17.5297C17.9394 35.8936 18.3911 35.7318 18.5368 35.5332L23.4074 28.8993C23.5398 28.719 23.3323 28.5726 22.9432 28.5726Z" fill="white"/>
<path d="M39.0293 28.5726H26.5824C26.1932 28.5726 25.7732 28.719 25.6437 28.8993L20.8797 35.5332C20.737 35.7318 20.9533 35.8936 21.3631 35.8936H34.4698C34.8796 35.8936 35.3114 35.7318 35.4342 35.5332L39.5317 28.8993C39.6435 28.719 39.4184 28.5726 39.0293 28.5726Z" fill="white"/>
<path d="M55.1146 28.5726H42.6684C42.2793 28.5726 41.8769 28.719 41.768 28.8993L37.7779 35.5332C37.658 35.7318 37.8934 35.8936 38.3032 35.8936H51.4099C51.8197 35.8936 52.2331 35.7318 52.3324 35.5332L55.656 28.8993C55.7465 28.719 55.5037 28.5726 55.1146 28.5726Z" fill="white"/>
<path d="M74.9583 28.5726H58.7552C58.3661 28.5726 57.9799 28.719 57.8923 28.8993L54.6761 35.5332C54.5798 35.7318 54.8336 35.8936 55.2433 35.8936H72.307C72.7168 35.8936 73.1074 35.7318 73.178 35.5332L75.5468 28.8993C75.6108 28.719 75.3474 28.5726 74.9583 28.5726Z" fill="white"/>
<path d="M191.202 28.5726H178.756C178.367 28.5726 178.107 28.719 178.177 28.8993L180.734 35.5332C180.811 35.7318 181.206 35.8936 181.615 35.8936H194.722C195.132 35.8936 195.386 35.7318 195.289 35.5332L192.065 28.8993C191.977 28.719 191.591 28.5726 191.202 28.5726Z" fill="white"/>
<path d="M175.115 28.5726H158.912C158.523 28.5726 158.243 28.719 158.286 28.8993L159.889 35.5332C159.937 35.7318 160.309 35.8936 160.718 35.8936H177.782C178.192 35.8936 178.465 35.7318 178.391 35.5332L175.941 28.8993C175.874 28.719 175.504 28.5726 175.115 28.5726Z" fill="white"/>
<path d="M154.92 28.5726H78.5982C78.209 28.5726 77.8441 28.719 77.7824 28.8993L75.5218 35.5332C75.4541 35.7318 75.7307 35.8936 76.1404 35.8936H156.514C156.924 35.8936 157.22 35.7318 157.175 35.5332L155.697 28.8993C155.656 28.719 155.309 28.5726 154.92 28.5726Z" fill="white"/>
<path d="M77.7625 21.5995H65.946C65.5767 21.5995 65.2178 21.7312 65.1435 21.8938L62.8409 26.9498C62.7607 27.1256 63.0079 27.2683 63.3934 27.2683H75.7218C76.1073 27.2683 76.47 27.1256 76.5325 26.9498L78.3275 21.8938C78.3856 21.7312 78.1318 21.5995 77.7625 21.5995Z" fill="white"/>
<path d="M79.2117 27.2683H91.5394C91.9249 27.2683 92.2721 27.1256 92.314 26.9498L93.5227 21.8938C93.5617 21.7312 93.2939 21.5995 92.9246 21.5995H81.1074C80.7381 21.5995 80.3938 21.7312 80.3387 21.8938L78.6217 26.9498C78.5621 27.1256 78.8262 27.2683 79.2117 27.2683Z" fill="white"/>
<path d="M95.0285 27.2683H107.357C107.742 27.2683 108.073 27.1256 108.095 26.9498L108.718 21.8938C108.738 21.7312 108.455 21.5995 108.085 21.5995H96.2688C95.8995 21.5995 95.5707 21.7312 95.5339 21.8938L94.4025 26.9498C94.3635 27.1256 94.6431 27.2683 95.0285 27.2683Z" fill="white"/>
<path d="M110.846 27.2683H123.175C123.56 27.2683 123.873 27.1256 123.875 26.9498L123.913 21.8938C123.915 21.7312 123.615 21.5995 123.246 21.5995H111.429C111.06 21.5995 110.746 21.7312 110.728 21.8938L110.183 26.9498C110.164 27.1256 110.461 27.2683 110.846 27.2683Z" fill="white"/>
<path d="M126.664 27.2683H138.993C139.378 27.2683 139.676 27.1256 139.656 26.9498L139.108 21.8938C139.091 21.7312 138.777 21.5995 138.408 21.5995H126.591C126.222 21.5995 125.923 21.7312 125.924 21.8938L125.964 26.9498C125.966 27.1256 126.279 27.2683 126.664 27.2683Z" fill="white"/>
<path d="M153.569 21.5995H141.752C141.383 21.5995 141.1 21.7312 141.12 21.8938L141.745 26.9498C141.767 27.1256 142.096 27.2683 142.482 27.2683H154.81C155.196 27.2683 155.476 27.1256 155.436 26.9498L154.304 21.8938C154.267 21.7312 153.938 21.5995 153.569 21.5995Z" fill="white"/>
<path d="M170.628 27.2683C171.013 27.2683 171.277 27.1256 171.217 26.9498L169.499 21.8938C169.444 21.7312 169.099 21.5995 168.729 21.5995H156.913C156.544 21.5995 156.275 21.7312 156.314 21.8938L157.525 26.9498C157.567 27.1256 157.914 27.2683 158.299 27.2683H170.628Z" fill="white"/>
<path d="M174.117 27.2683H186.446C186.831 27.2683 187.078 27.1256 186.998 26.9498L184.693 21.8938C184.619 21.7312 184.26 21.5995 183.891 21.5995H172.073C171.704 21.5995 171.451 21.7312 171.509 21.8938L173.306 26.9498C173.368 27.1256 173.732 27.2683 174.117 27.2683Z" fill="white"/>
<path d="M189.935 27.2683H202.263C202.649 27.2683 202.88 27.1256 202.779 26.9498L199.889 21.8938C199.796 21.7312 199.421 21.5995 199.051 21.5995H187.235C186.866 21.5995 186.628 21.7312 186.704 21.8938L189.086 26.9498C189.17 27.1256 189.549 27.2683 189.935 27.2683Z" fill="white"/>
<path d="M71.119 20.243L73.0199 15.6645C73.0809 15.5166 72.8448 15.3974 72.4932 15.3974H61.2365C60.8849 15.3974 60.5377 15.5166 60.4619 15.6645L58.1013 20.243C58.0196 20.4019 58.2491 20.5307 58.6155 20.5307H70.3363C70.7026 20.5307 71.0528 20.4019 71.119 20.243Z" fill="white"/>
<path d="M73.6923 20.5307H85.4123C85.7787 20.5307 86.1141 20.4019 86.162 20.243L87.531 15.6645C87.5751 15.5166 87.3257 15.3974 86.9741 15.3974H75.7167C75.3651 15.3974 75.0318 15.5166 74.973 15.6645L73.1442 20.243C73.0809 20.4019 73.3259 20.5307 73.6923 20.5307Z" fill="white"/>
<path d="M101.204 20.243L102.042 15.6645C102.069 15.5166 101.805 15.3974 101.454 15.3974H90.1961C89.8445 15.3974 89.5253 15.5166 89.4833 15.6645L88.1864 20.243C88.1415 20.4019 88.4019 20.5307 88.7683 20.5307H100.488C100.855 20.5307 101.175 20.4019 101.204 20.243Z" fill="white"/>
<path d="M116.247 20.243L116.552 15.6645C116.563 15.5166 116.285 15.3974 115.933 15.3974H104.676C104.325 15.3974 104.019 15.5166 103.994 15.6645L103.229 20.243C103.202 20.4019 103.477 20.5307 103.844 20.5307H115.564C115.931 20.5307 116.237 20.4019 116.247 20.243Z" fill="white"/>
<path d="M131.289 20.243L131.063 15.6645C131.056 15.5166 130.765 15.3974 130.413 15.3974H119.157C118.805 15.3974 118.513 15.5166 118.505 15.6645L118.272 20.243C118.263 20.4019 118.554 20.5307 118.92 20.5307H130.64C131.007 20.5307 131.297 20.4019 131.289 20.243Z" fill="white"/>
<path d="M146.332 20.243L145.575 15.6645C145.55 15.5166 145.245 15.3974 144.893 15.3974H133.636C133.284 15.3974 133.007 15.5166 133.017 15.6645L133.314 20.243C133.324 20.4019 133.629 20.5307 133.996 20.5307H145.717C146.083 20.5307 146.358 20.4019 146.332 20.243Z" fill="white"/>
<path d="M149.072 20.5307H160.792C161.158 20.5307 161.419 20.4019 161.374 20.243L160.085 15.6645C160.044 15.5166 159.724 15.3974 159.373 15.3974H148.116C147.764 15.3974 147.5 15.5166 147.527 15.6645L148.356 20.243C148.385 20.4019 148.705 20.5307 149.072 20.5307Z" fill="white"/>
<path d="M164.149 20.5307H175.869C176.235 20.5307 176.481 20.4019 176.417 20.243L174.597 15.6645C174.538 15.5166 174.205 15.3974 173.853 15.3974H162.596C162.245 15.3974 161.994 15.5166 162.038 15.6645L163.4 20.243C163.447 20.4019 163.782 20.5307 164.149 20.5307Z" fill="white"/>
<path d="M191.46 20.243L189.107 15.6645C189.031 15.5166 188.685 15.3974 188.332 15.3974H177.076C176.724 15.3974 176.488 15.5166 176.549 15.6645L178.441 20.243C178.507 20.4019 178.857 20.5307 179.224 20.5307H190.945C191.311 20.5307 191.541 20.4019 191.46 20.243Z" fill="white"/>
<path d="M206.503 20.243L203.618 15.6645C203.525 15.5166 203.164 15.3974 202.813 15.3974H191.556C191.204 15.3974 190.982 15.5166 191.06 15.6645L193.484 20.243C193.568 20.4019 193.934 20.5307 194.301 20.5307H206.021C206.387 20.5307 206.603 20.4019 206.503 20.243Z" fill="white"/>
<path d="M22.3304 14.4382H40.5079C40.8573 14.4382 41.22 14.3205 41.3178 14.1763L44.1382 10.0097C44.2294 9.87504 44.0308 9.76543 43.6946 9.76543H26.2028C25.8666 9.76543 25.5039 9.87504 25.3914 10.0097L21.9162 14.1763C21.7956 14.3205 21.981 14.4382 22.3304 14.4382Z" fill="white"/>
<path d="M17.2796 20.5307H40.0849C40.4512 20.5307 40.8323 20.4019 40.9353 20.243L43.9021 15.6645C43.9977 15.5166 43.7903 15.3974 43.4386 15.3974H21.5352C21.1836 15.3974 20.7981 15.5166 20.6752 15.6645L16.8573 20.243C16.7249 20.4019 16.9132 20.5307 17.2796 20.5307Z" fill="white"/>
<path d="M11.7064 27.2551H43.7748C44.1603 27.2551 44.5568 27.1124 44.6605 26.9366L47.6376 21.8821C47.7333 21.7195 47.5111 21.5878 47.1418 21.5878H16.4042C16.0349 21.5878 15.6259 21.7195 15.4905 21.8821L11.2746 26.9366C11.1282 27.1124 11.3209 27.2551 11.7064 27.2551Z" fill="white"/>
<path d="M233.228 21.5878H202.491C202.122 21.5878 201.9 21.7195 201.995 21.8821L204.966 26.9366C205.07 27.1124 205.465 27.2551 205.851 27.2551H237.919C238.305 27.2551 238.498 27.1124 238.352 26.9366L234.143 21.8821C234.007 21.7195 233.597 21.5878 233.228 21.5878Z" fill="white"/>
<path d="M228.398 15.4306H206.489C206.137 15.4306 205.929 15.5505 206.025 15.6983L208.999 20.2791C209.102 20.438 209.483 20.5682 209.849 20.5682H232.66C233.027 20.5682 233.216 20.438 233.083 20.2791L229.259 15.6983C229.135 15.5505 228.75 15.4306 228.398 15.4306Z" fill="white"/>
<path d="M206.694 28.5726L194.713 28.6373C194.404 28.6388 194.192 28.9544 194.309 29.2398C195.706 32.637 197.294 35.4728 197.294 35.4728C197.393 35.6715 197.806 35.8333 198.216 35.8333H211.472C211.882 35.8333 212.116 35.6715 211.997 35.4728C211.997 35.4728 210.337 32.7503 208.334 29.4855C207.984 28.9162 207.362 28.5689 206.694 28.5726Z" fill="white"/>
<path d="M238.203 28.4218L226.073 28.4542C225.817 28.4549 225.667 28.7477 225.817 28.9566C228.318 32.4443 230.676 35.4729 230.676 35.4729C230.821 35.6715 231.271 35.8326 231.681 35.8326H244.937C245.347 35.8326 245.545 35.6715 245.379 35.4729C245.379 35.4729 242.796 32.4818 239.626 29.042C239.26 28.6447 238.743 28.4203 238.203 28.4218Z" fill="white"/>
<path d="M222.918 28.221H210.357C209.969 28.221 209.794 28.4468 209.966 28.7264L214.124 35.4728C214.247 35.6715 214.678 35.8333 215.087 35.8333H228.343C228.753 35.8333 228.969 35.6715 228.827 35.4728L223.983 28.7264C223.783 28.4468 223.306 28.221 222.918 28.221Z" fill="white"/>
</svg>
