<svg width="75" height="75" viewBox="0 0 75 75" fill="none" xmlns="http://www.w3.org/2000/svg">
<path d="M74.1848 37.3548C74.1848 57.7362 57.6632 74.2578 37.2818 74.2578C16.9003 74.2578 0.378784 57.7362 0.378784 37.3548C0.378784 16.9733 16.9003 0.451782 37.2818 0.451782C57.6632 0.451782 74.1848 16.9733 74.1848 37.3548Z" fill="white"/>
<path d="M48.0374 38.6473C48.0374 37.9183 47.6137 37.2944 47.0031 36.9899C47.6137 36.6853 48.0374 36.0615 48.0374 35.3325C48.0374 34.3063 47.2054 33.4743 46.1792 33.4743C46.0762 33.4743 45.8776 33.4743 45.8776 33.4743L41.3579 33.5743C41.3579 33.5743 42.312 29.5571 41.9604 27.3972C41.6087 25.2382 38.6956 24.2841 38.6456 26.6947C38.5956 29.1054 38.2947 29.9087 36.4365 32.0178C35.222 33.3963 34.5643 34.4748 34.2554 35.0566C34.1009 35.3472 34.0259 35.6702 34.0259 35.999V45.1252C34.0259 45.6247 34.4304 46.0293 34.9299 46.0293H45.8776C45.8776 46.0293 46.0762 46.0293 46.1792 46.0293C47.2054 46.0293 48.1242 45.2783 48.0426 44.255C47.9756 43.4178 46.9494 43.0993 46.9494 43.0993C46.9494 43.0993 48.2044 42.9573 48.2044 41.7435C48.2044 40.6136 47.5012 40.3378 47.0031 40.3039C47.6137 39.9994 48.0374 39.3755 48.0374 38.6473Z" fill="#071A6C"/>
<path d="M31.4813 35.3325H27.531C26.8836 35.3325 26.3591 35.857 26.3591 36.5044V46.8327C26.3591 47.48 26.8836 48.0045 27.531 48.0045H31.4813C32.1287 48.0045 32.6532 47.48 32.6532 46.8327V36.5044C32.6532 35.857 32.1287 35.3325 31.4813 35.3325Z" fill="#071A6C"/>
</svg>
