<svg width="330" height="274" viewBox="0 0 330 274" fill="none" xmlns="http://www.w3.org/2000/svg">
<path d="M195.303 251.386L192.938 219.464H129.476L127.095 251.611C126.83 255.194 125.789 258.642 124.085 261.739H198.435C196.659 258.588 195.575 255.059 195.303 251.386Z" fill="#051351"/>
<path d="M211.776 261.739H110.744C109.417 261.739 108.343 262.814 108.343 264.14V271.162C108.343 272.489 109.417 273.563 110.744 273.563H211.776C213.102 273.563 214.177 272.489 214.177 271.162V264.14C214.177 262.814 213.102 261.739 211.776 261.739Z" fill="#071A6C"/>
<path d="M0.672363 196.374V216.773C0.672363 222.487 5.30537 227.119 11.0198 227.119H319.063C324.777 227.119 329.41 222.487 329.41 216.773V196.374H0.672363Z" fill="#071A6C"/>
<path d="M319.063 0.669678H11.0198C5.30537 0.669678 0.672368 5.30196 0.672368 11.0163L0.672363 196.374H329.41V11.0163C329.41 5.30196 324.777 0.669678 319.063 0.669678Z" fill="#051351"/>
<path d="M314.628 183.367H14.2712V13.6771H314.628V183.367Z" fill="#E3E7FA"/>
</svg>
