<svg width="130" height="107" viewBox="0 0 130 107" fill="none" xmlns="http://www.w3.org/2000/svg">
<path d="M129.06 106.792H0.381958V0.0529785H129.06V106.792Z" fill="#E3E7FA"/>
<path d="M129.06 19.4619H0.381958V0.0529785H129.06V19.4619Z" fill="#0B28A8"/>
<path d="M94.6238 90.1142H34.8184V34.6005H94.6238V90.1142Z" fill="#051351"/>
<path d="M75.3201 62.3779L58.1328 52.5602L58.224 72.3531L75.3201 62.3779Z" fill="white"/>
<path d="M13.3607 9.75816C13.3607 10.6225 12.6597 11.3229 11.7953 11.3229C10.9309 11.3229 10.2299 10.6225 10.2299 9.75816C10.2299 8.89306 10.9309 8.192 11.7953 8.192C12.6597 8.192 13.3607 8.89306 13.3607 9.75816Z" fill="white"/>
<path d="M19.7482 9.75816C19.7482 10.6225 19.0472 11.3229 18.1828 11.3229C17.3184 11.3229 16.6174 10.6225 16.6174 9.75816C16.6174 8.89306 17.3184 8.192 18.1828 8.192C19.0472 8.192 19.7482 8.89306 19.7482 9.75816Z" fill="white"/>
<path d="M26.1364 9.75816C26.1364 10.6225 25.4354 11.3229 24.571 11.3229C23.7066 11.3229 23.0056 10.6225 23.0056 9.75816C23.0056 8.89306 23.7066 8.192 24.571 8.192C25.4354 8.192 26.1364 8.89306 26.1364 9.75816Z" fill="white"/>
</svg>
