<svg width="130" height="92" viewBox="0 0 130 92" fill="none" xmlns="http://www.w3.org/2000/svg">
<path d="M129.293 0.766541L129.711 91.2522L1.26012 91.8452L0.843018 1.35946L129.293 0.766541Z" fill="white"/>
<path d="M129.293 0.766541L129.384 20.5676L0.934231 21.1605L0.843018 1.35946L129.293 0.766541Z" fill="#889EFA"/>
<path d="M60.659 71.7065H15.7045V38.7354H60.659V71.7065Z" fill="#071A6C"/>
<path d="M15.7043 71.9353L29.7894 48.3009L38.1822 61.6452L44.3814 53.0972L56.2817 71.9353H15.7043Z" fill="white"/>
<path d="M50.2716 46.8134C50.2716 48.1302 49.2042 49.1976 47.8874 49.1976C46.5706 49.1976 45.5032 48.1302 45.5032 46.8134C45.5032 45.4966 46.5706 44.4292 47.8874 44.4292C49.2042 44.4292 50.2716 45.4966 50.2716 46.8134Z" fill="white"/>
<path d="M14.1962 11.5965C14.2014 12.6654 13.3377 13.5364 12.2689 13.5415C11.2 13.5459 10.3283 12.6831 10.3238 11.6142C10.3187 10.5446 11.1823 9.67358 12.2512 9.66917C13.3201 9.66402 14.1911 10.5269 14.1962 11.5965Z" fill="white"/>
<path d="M21.5518 11.5626C21.5569 12.6315 20.694 13.5032 19.6252 13.5077C18.5563 13.5128 17.6853 12.6492 17.6809 11.5803C17.6758 10.5107 18.5386 9.64044 19.6075 9.63529C20.6764 9.63087 21.5466 10.493 21.5518 11.5626Z" fill="white"/>
<path d="M28.9089 11.5281C28.914 12.5969 28.0504 13.4679 26.9815 13.4731C25.9127 13.4782 25.0417 12.6146 25.0365 11.5457C25.0314 10.4761 25.895 9.60587 26.9639 9.60072C28.0328 9.59557 28.9037 10.4585 28.9089 11.5281Z" fill="white"/>
<path d="M114.524 45.9218H66.9344V43.0778H114.524V45.9218Z" fill="#0B28A8"/>
<path d="M114.524 51.3398H66.9344V48.4958H114.524V51.3398Z" fill="#0B28A8"/>
<path d="M109.127 56.7569H66.9344V53.913H109.127V56.7569Z" fill="#0B28A8"/>
<path d="M103.389 62.1749H66.9344V59.3309H103.389V62.1749Z" fill="#0B28A8"/>
<path d="M93.3774 67.592H66.9344V64.7481H93.3774V67.592Z" fill="#0B28A8"/>
</svg>
