<svg width="263" height="201" viewBox="0 0 263 201" fill="none" xmlns="http://www.w3.org/2000/svg">
<path d="M262.031 200.301H0.880005V0.765503H262.031V200.301Z" fill="white"/>
<path d="M262.031 19.3461H0.880005V0.765503H262.031V19.3461Z" fill="#071A6C"/>
<path d="M245.04 71.1001H120.533V30.1033H245.04V71.1001Z" fill="#E3E7FA"/>
<path d="M245.039 152.596H14.9541V123.37H245.039V152.596Z" fill="#889EFA"/>
<path d="M245.039 191.051H76.3309V162.299H245.039V191.051Z" fill="#E3E7FA"/>
<path d="M111.705 112.736H14.8474V31.871H111.705V112.736Z" fill="#889EFA"/>
<path d="M14.8482 114.423L47.4007 56.458L66.7971 89.1863L81.125 68.2215L108.628 114.423H14.8482Z" fill="white"/>
<path d="M94.7364 51.6823C94.7364 54.911 92.2691 57.5291 89.2265 57.5291C86.1839 57.5291 83.7166 54.911 83.7166 51.6823C83.7166 48.4529 86.1839 45.8355 89.2265 45.8355C92.2691 45.8355 94.7364 48.4529 94.7364 51.6823Z" fill="white"/>
<path d="M245.039 111.904H120.532V76.8291H245.039V111.904Z" fill="#0B28A8"/>
<path d="M234.362 87.6091H129.43V85.4375H234.362V87.6091Z" fill="white"/>
<path d="M234.362 93.3838H129.43V91.2122H234.362V93.3838Z" fill="white"/>
<path d="M204.716 99.1578H129.43V96.9862H204.716V99.1578Z" fill="white"/>
<path d="M182.644 104.932H129.43V102.761H182.644V104.932Z" fill="white"/>
<path d="M68.1867 190.295H14.8474V161.542H68.1867V190.295Z" fill="#0B28A8"/>
<path d="M59.3951 169.508H20.3066V167.336H59.3951V169.508Z" fill="white"/>
<path d="M59.3951 173.646H20.3066V171.474H59.3951V173.646Z" fill="white"/>
<path d="M48.3518 177.784H20.3066V175.612H48.3518V177.784Z" fill="white"/>
<path d="M40.1304 181.922H20.3066V179.75H40.1304V181.922Z" fill="white"/>
</svg>
